{"glyphs":{"0":{"ha":1014,"x_min":110,"x_max":946,"o":"m 471 -35 q 279 18 361 -35 q 153 168 197 71 q 110 396 110 265 q 176 697 110 567 q 364 900 243 828 q 640 972 485 972 q 699 966 665 972 q 753 951 732 960 q 767 885 763 940 q 900 773 854 861 q 946 543 946 685 q 883 250 946 382 q 711 42 819 118 q 471 -35 603 -35 m 483 71 q 631 129 565 71 q 733 292 696 188 q 769 528 769 396 q 712 760 769 683 q 533 836 654 836 q 421 814 488 836 q 321 605 356 719 q 286 378 286 490 q 340 153 286 236 q 483 71 393 71 z "},"1":{"ha":646,"x_min":158,"x_max":543,"o":"m 235 110 q 257 372 235 225 q 329 735 279 518 q 213 763 258 735 q 158 840 168 790 q 273 881 225 860 q 378 932 321 901 q 442 963 418 954 q 488 972 465 972 q 543 908 543 972 q 532 833 543 888 q 506 714 521 778 q 437 389 463 529 q 411 125 411 249 q 435 -6 411 50 q 333 -35 381 -35 q 260 2 285 -35 q 235 110 235 39 z "},"2":{"ha":911,"x_min":46,"x_max":849,"o":"m 814 179 q 841 128 833 149 q 849 88 849 107 q 794 -5 849 32 q 661 -42 740 -42 q 499 -24 581 -42 q 278 46 418 -6 q 205 -13 238 4 q 135 -31 172 -31 q 72 -6 97 -31 q 46 56 46 19 q 94 153 46 115 q 217 190 143 190 q 235 189 228 190 q 529 444 431 326 q 628 664 628 561 q 464 843 628 843 q 328 778 385 843 q 265 615 272 714 q 186 651 214 621 q 158 728 158 681 q 201 856 158 800 q 323 942 244 911 q 504 972 401 972 q 661 940 593 972 q 767 847 729 907 q 804 711 804 788 q 707 456 804 585 q 385 157 610 328 l 442 142 q 571 108 518 119 q 661 96 624 96 l 814 179 z "},"3":{"ha":919,"x_min":43,"x_max":803,"o":"m 614 393 q 738 290 693 356 q 783 143 783 224 q 718 -42 783 40 q 537 -170 653 -124 q 276 -217 421 -217 q 101 -185 158 -217 q 43 -89 43 -153 q 76 -22 43 -49 q 156 4 108 4 q 238 -26 197 4 q 304 -110 278 -57 q 457 -78 388 -110 q 567 10 526 -46 q 607 132 607 65 q 574 245 607 192 q 496 313 542 299 q 340 251 404 251 q 277 274 303 251 q 251 331 251 297 q 294 408 251 379 q 406 438 336 438 q 485 432 451 438 q 589 535 551 474 q 626 664 626 596 q 464 843 626 843 q 362 813 408 843 q 285 731 315 783 q 251 615 256 679 q 173 651 201 622 q 144 728 144 681 q 189 856 144 800 q 315 942 233 911 q 504 972 397 972 q 658 939 590 972 q 765 846 726 906 q 803 711 803 786 q 754 545 803 626 q 614 393 706 464 z "},"4":{"ha":939,"x_min":61,"x_max":858,"o":"m 858 490 q 850 435 858 472 q 831 353 842 397 q 781 140 800 239 q 763 -57 763 40 q 796 -203 763 -149 q 733 -228 760 -221 q 676 -236 707 -236 q 588 -199 619 -236 q 557 -94 557 -162 q 572 22 557 -54 q 423 6 507 13 q 269 0 339 0 q 111 31 161 0 q 61 126 61 61 q 92 234 61 169 q 192 421 122 299 q 330 682 282 576 q 378 875 378 788 q 367 949 378 908 q 465 972 415 972 q 578 836 578 972 q 478 538 578 713 q 176 131 379 364 l 597 131 q 704 483 640 293 q 758 513 728 501 q 815 524 789 524 q 849 516 839 524 q 858 490 858 508 z "},"5":{"ha":860,"x_min":47,"x_max":819,"o":"m 547 758 q 431 763 481 758 l 378 449 q 587 410 494 449 q 731 301 679 371 q 783 144 783 232 q 717 -40 783 42 q 535 -169 651 -122 q 276 -215 419 -215 q 103 -183 158 -215 q 47 -86 47 -151 q 81 -21 47 -47 q 163 6 115 6 q 244 -25 204 6 q 310 -107 283 -56 q 458 -75 390 -107 q 565 12 525 -43 q 604 131 604 67 q 577 233 604 183 q 492 316 550 283 q 346 349 433 349 q 276 342 313 349 q 233 335 239 335 q 213 344 221 335 q 204 367 204 354 l 279 799 q 217 888 217 829 q 308 972 217 972 q 380 946 347 972 q 433 876 413 919 q 609 909 511 881 q 800 981 707 938 q 819 896 819 950 q 745 792 819 825 q 547 758 671 758 z "},"6":{"ha":979,"x_min":131,"x_max":890,"o":"m 463 -35 q 222 63 313 -35 q 131 347 131 161 q 230 734 131 549 q 473 1034 329 919 q 733 1149 617 1149 q 808 1131 781 1149 q 854 1068 835 1114 q 556 895 692 1008 q 328 556 421 782 l 336 556 q 460 665 394 633 q 599 696 525 696 q 756 654 690 696 q 856 540 822 613 q 890 375 890 468 q 831 167 890 261 q 674 19 772 72 q 463 -35 575 -35 m 483 74 q 588 108 535 74 q 676 212 640 143 q 713 376 713 281 q 668 526 713 465 q 521 586 624 586 q 424 553 474 586 q 340 456 374 519 q 307 303 307 392 q 349 140 307 206 q 483 74 390 74 z "},"7":{"ha":785,"x_min":103,"x_max":803,"o":"m 803 894 q 683 783 803 813 q 498 378 574 594 q 422 -21 422 163 q 426 -85 422 -61 q 442 -136 429 -110 q 336 -168 390 -168 q 221 -33 221 -168 q 303 324 221 111 q 528 767 386 538 q 476 765 511 765 q 259 778 340 765 q 140 820 178 792 q 103 897 103 849 q 110 945 103 921 q 126 988 117 969 q 353 916 228 944 q 579 882 478 888 q 637 952 603 926 q 710 978 671 978 q 779 956 756 978 q 803 894 803 935 z "},"8":{"ha":917,"x_min":103,"x_max":842,"o":"m 621 553 q 783 417 725 485 q 842 260 842 349 q 792 106 842 174 q 651 1 742 39 q 446 -36 561 -36 q 195 32 288 -36 q 103 219 103 100 q 160 378 103 303 q 368 529 218 454 q 223 664 275 597 q 171 813 171 731 q 215 956 171 893 q 339 1052 258 1018 q 525 1086 419 1086 q 749 1018 667 1086 q 831 836 831 950 q 777 687 831 760 q 621 553 724 614 m 524 969 q 398 933 447 969 q 349 829 349 896 q 395 719 349 768 q 529 613 442 671 q 645 719 614 665 q 676 836 676 774 q 635 933 676 897 q 524 969 594 969 m 460 81 q 606 124 547 81 q 664 247 664 168 q 636 322 664 286 q 568 389 608 358 q 456 469 528 419 q 310 354 364 418 q 257 219 257 290 q 314 119 257 157 q 460 81 371 81 z "},"9":{"ha":951,"x_min":103,"x_max":863,"o":"m 260 -211 q 185 -194 213 -211 q 140 -131 158 -176 q 438 42 301 -71 q 665 382 574 156 l 657 382 q 533 273 599 304 q 394 242 468 242 q 237 283 303 242 q 137 398 171 325 q 103 563 103 471 q 162 772 103 678 q 319 919 221 865 q 531 972 417 972 q 772 874 681 972 q 863 590 863 776 q 763 203 863 389 q 520 -97 664 18 q 260 -211 376 -211 m 472 351 q 569 385 519 351 q 653 482 619 418 q 686 635 686 546 q 644 798 686 732 q 510 864 601 864 q 405 829 458 864 q 315 726 351 794 q 279 561 279 657 q 324 412 279 472 q 472 351 369 351 z "}," ":{"ha":450,"x_min":0,"x_max":0,"o":""},"A":{"ha":963,"x_min":61,"x_max":890,"o":"m 792 900 q 790 783 792 826 l 789 622 q 810 228 789 393 q 890 3 831 64 q 783 -33 844 -33 q 701 -6 732 -33 q 651 85 669 22 q 625 260 633 149 l 261 260 q 235 122 235 181 q 254 3 235 47 q 140 -33 208 -33 q 81 -3 101 -33 q 61 82 61 26 q 162 401 61 190 q 457 911 263 613 l 414 969 q 490 1006 454 994 q 565 1017 525 1017 q 636 989 622 1017 q 708 1017 669 1017 q 771 988 750 1017 q 792 900 792 960 m 619 358 q 618 501 618 401 q 619 881 618 803 l 603 881 q 300 358 390 565 l 619 358 z "},"Á":{"ha":963,"x_min":61,"x_max":890,"o":"m 792 900 q 790 783 792 826 l 789 622 q 810 228 789 393 q 890 3 831 64 q 783 -33 844 -33 q 701 -6 732 -33 q 651 85 669 22 q 625 260 633 149 l 261 260 q 235 122 235 181 q 254 3 235 47 q 140 -33 208 -33 q 81 -3 101 -33 q 61 82 61 26 q 162 401 61 190 q 457 911 263 613 l 414 969 q 490 1006 454 994 q 565 1017 525 1017 q 636 989 622 1017 q 708 1017 669 1017 q 771 988 750 1017 q 792 900 792 960 m 619 358 q 618 501 618 401 q 619 881 618 803 l 603 881 q 300 358 390 565 l 619 358 m 508 1119 q 457 1190 469 1119 q 563 1241 517 1214 q 658 1304 608 1268 q 735 1356 707 1340 q 797 1371 764 1371 q 872 1286 872 1371 q 860 1211 872 1240 q 738 1195 794 1211 q 604 1149 682 1179 q 508 1119 533 1119 z "},"Ă":{"ha":963,"x_min":61,"x_max":926,"o":"m 792 900 q 790 783 792 826 l 789 622 q 810 228 789 393 q 890 3 831 64 q 783 -33 844 -33 q 701 -6 732 -33 q 651 85 669 22 q 625 260 633 149 l 261 260 q 235 122 235 181 q 254 3 235 47 q 140 -33 208 -33 q 81 -3 101 -33 q 61 82 61 26 q 162 401 61 190 q 457 911 263 613 l 414 969 q 490 1006 454 994 q 565 1017 525 1017 q 636 989 622 1017 q 708 1017 669 1017 q 771 988 750 1017 q 792 900 792 960 m 619 358 q 618 501 618 401 q 619 881 618 803 l 603 881 q 300 358 390 565 l 619 358 m 668 1213 q 776 1263 733 1213 q 818 1397 818 1314 q 898 1371 869 1394 q 926 1301 926 1347 q 891 1210 926 1253 q 794 1142 856 1168 q 658 1117 732 1117 q 493 1157 551 1117 q 435 1260 435 1197 q 463 1335 435 1300 q 538 1383 492 1371 q 668 1213 526 1213 z "},"Ắ":{"ha":963,"x_min":61,"x_max":940,"o":"m 792 900 q 790 783 792 826 l 789 622 q 810 228 789 393 q 890 3 831 64 q 783 -33 844 -33 q 701 -6 732 -33 q 651 85 669 22 q 625 260 633 149 l 261 260 q 235 122 235 181 q 254 3 235 47 q 140 -33 208 -33 q 81 -3 101 -33 q 61 82 61 26 q 162 401 61 190 q 457 911 263 613 l 414 969 q 490 1006 454 994 q 565 1017 525 1017 q 636 989 622 1017 q 708 1017 669 1017 q 771 988 750 1017 q 792 900 792 960 m 619 358 q 618 501 618 401 q 619 881 618 803 l 603 881 q 300 358 390 565 l 619 358 m 668 1213 q 776 1263 733 1213 q 818 1397 818 1314 q 898 1371 869 1394 q 926 1301 926 1347 q 891 1210 926 1253 q 794 1142 856 1168 q 658 1117 732 1117 q 493 1157 551 1117 q 435 1260 435 1197 q 463 1335 435 1300 q 538 1383 492 1371 q 668 1213 526 1213 m 576 1479 q 525 1550 538 1479 q 631 1601 585 1574 q 726 1664 676 1628 q 803 1715 775 1700 q 865 1731 832 1731 q 940 1646 940 1731 q 928 1571 940 1600 q 806 1555 863 1571 q 672 1508 750 1539 q 576 1479 601 1479 z "},"Ặ":{"ha":963,"x_min":61,"x_max":926,"o":"m 792 900 q 790 783 792 826 l 789 622 q 810 228 789 393 q 890 3 831 64 q 783 -33 844 -33 q 701 -6 732 -33 q 651 85 669 22 q 625 260 633 149 l 261 260 q 235 122 235 181 q 254 3 235 47 q 140 -33 208 -33 q 81 -3 101 -33 q 61 82 61 26 q 162 401 61 190 q 457 911 263 613 l 414 969 q 490 1006 454 994 q 565 1017 525 1017 q 636 989 622 1017 q 708 1017 669 1017 q 771 988 750 1017 q 792 900 792 960 m 619 358 q 618 501 618 401 q 619 881 618 803 l 603 881 q 300 358 390 565 l 619 358 m 396 -307 q 333 -287 357 -307 q 310 -233 310 -267 q 342 -154 310 -185 q 428 -124 375 -124 q 491 -144 467 -124 q 515 -199 515 -165 q 482 -277 515 -247 q 396 -307 449 -307 m 668 1213 q 776 1263 733 1213 q 818 1397 818 1314 q 898 1371 869 1394 q 926 1301 926 1347 q 891 1210 926 1253 q 794 1142 856 1168 q 658 1117 732 1117 q 493 1157 551 1117 q 435 1260 435 1197 q 463 1335 435 1300 q 538 1383 492 1371 q 668 1213 526 1213 z "},"Ằ":{"ha":963,"x_min":61,"x_max":926,"o":"m 792 900 q 790 783 792 826 l 789 622 q 810 228 789 393 q 890 3 831 64 q 783 -33 844 -33 q 701 -6 732 -33 q 651 85 669 22 q 625 260 633 149 l 261 260 q 235 122 235 181 q 254 3 235 47 q 140 -33 208 -33 q 81 -3 101 -33 q 61 82 61 26 q 162 401 61 190 q 457 911 263 613 l 414 969 q 490 1006 454 994 q 565 1017 525 1017 q 636 989 622 1017 q 708 1017 669 1017 q 771 988 750 1017 q 792 900 792 960 m 619 358 q 618 501 618 401 q 619 881 618 803 l 603 881 q 300 358 390 565 l 619 358 m 668 1213 q 776 1263 733 1213 q 818 1397 818 1314 q 898 1371 869 1394 q 926 1301 926 1347 q 891 1210 926 1253 q 794 1142 856 1168 q 658 1117 732 1117 q 493 1157 551 1117 q 435 1260 435 1197 q 463 1335 435 1300 q 538 1383 492 1371 q 668 1213 526 1213 m 843 1479 q 747 1508 818 1479 q 613 1555 669 1539 q 492 1571 557 1571 q 479 1646 479 1600 q 554 1731 479 1731 q 616 1715 588 1731 q 693 1664 644 1700 q 789 1601 743 1628 q 894 1550 835 1574 q 843 1479 882 1479 z "},"Ẳ":{"ha":963,"x_min":61,"x_max":926,"o":"m 792 900 q 790 783 792 826 l 789 622 q 810 228 789 393 q 890 3 831 64 q 783 -33 844 -33 q 701 -6 732 -33 q 651 85 669 22 q 625 260 633 149 l 261 260 q 235 122 235 181 q 254 3 235 47 q 140 -33 208 -33 q 81 -3 101 -33 q 61 82 61 26 q 162 401 61 190 q 457 911 263 613 l 414 969 q 490 1006 454 994 q 565 1017 525 1017 q 636 989 622 1017 q 708 1017 669 1017 q 771 988 750 1017 q 792 900 792 960 m 619 358 q 618 501 618 401 q 619 881 618 803 l 603 881 q 300 358 390 565 l 619 358 m 668 1213 q 776 1263 733 1213 q 818 1397 818 1314 q 898 1371 869 1394 q 926 1301 926 1347 q 891 1210 926 1253 q 794 1142 856 1168 q 658 1117 732 1117 q 493 1157 551 1117 q 435 1260 435 1197 q 463 1335 435 1300 q 538 1383 492 1371 q 668 1213 526 1213 m 593 1433 q 734 1529 689 1481 q 779 1631 779 1578 q 758 1695 779 1672 q 694 1718 736 1718 q 624 1701 657 1718 q 550 1643 592 1683 q 620 1770 563 1719 q 751 1821 678 1821 q 867 1783 825 1821 q 910 1679 910 1744 q 830 1515 910 1582 q 597 1415 750 1447 l 593 1433 z "},"Ẵ":{"ha":963,"x_min":61,"x_max":950,"o":"m 792 900 q 790 783 792 826 l 789 622 q 810 228 789 393 q 890 3 831 64 q 783 -33 844 -33 q 701 -6 732 -33 q 651 85 669 22 q 625 260 633 149 l 261 260 q 235 122 235 181 q 254 3 235 47 q 140 -33 208 -33 q 81 -3 101 -33 q 61 82 61 26 q 162 401 61 190 q 457 911 263 613 l 414 969 q 490 1006 454 994 q 565 1017 525 1017 q 636 989 622 1017 q 708 1017 669 1017 q 771 988 750 1017 q 792 900 792 960 m 619 358 q 618 501 618 401 q 619 881 618 803 l 603 881 q 300 358 390 565 l 619 358 m 668 1213 q 776 1263 733 1213 q 818 1397 818 1314 q 898 1371 869 1394 q 926 1301 926 1347 q 891 1210 926 1253 q 794 1142 856 1168 q 658 1117 732 1117 q 493 1157 551 1117 q 435 1260 435 1197 q 463 1335 435 1300 q 538 1383 492 1371 q 668 1213 526 1213 m 539 1508 q 480 1524 496 1508 q 464 1575 464 1539 q 492 1679 464 1617 q 579 1661 543 1661 q 666 1671 625 1661 q 760 1699 707 1681 q 825 1718 799 1711 q 875 1725 851 1725 q 934 1710 918 1725 q 950 1658 950 1694 q 922 1553 950 1611 q 835 1571 874 1571 q 751 1562 790 1571 q 656 1535 713 1553 q 588 1515 613 1521 q 539 1508 563 1508 z "},"Â":{"ha":963,"x_min":61,"x_max":890,"o":"m 792 900 q 790 783 792 826 l 789 622 q 810 228 789 393 q 890 3 831 64 q 783 -33 844 -33 q 701 -6 732 -33 q 651 85 669 22 q 625 260 633 149 l 261 260 q 235 122 235 181 q 254 3 235 47 q 140 -33 208 -33 q 81 -3 101 -33 q 61 82 61 26 q 162 401 61 190 q 457 911 263 613 l 414 969 q 490 1006 454 994 q 565 1017 525 1017 q 636 989 622 1017 q 708 1017 669 1017 q 771 988 750 1017 q 792 900 792 960 m 619 358 q 618 501 618 401 q 619 881 618 803 l 603 881 q 300 358 390 565 l 619 358 m 603 1386 q 659 1413 632 1404 q 731 1421 686 1421 q 799 1403 772 1421 q 828 1347 826 1385 l 833 1226 q 875 1136 835 1167 q 779 1110 826 1110 q 721 1127 742 1110 q 700 1189 700 1144 q 717 1351 700 1294 l 696 1351 q 635 1256 658 1317 q 614 1135 611 1194 q 576 1117 604 1124 q 514 1110 547 1110 q 470 1121 486 1110 q 454 1150 454 1132 q 501 1268 454 1199 q 603 1386 547 1338 z "},"Ấ":{"ha":963,"x_min":61,"x_max":951,"o":"m 792 900 q 790 783 792 826 l 789 622 q 810 228 789 393 q 890 3 831 64 q 783 -33 844 -33 q 701 -6 732 -33 q 651 85 669 22 q 625 260 633 149 l 261 260 q 235 122 235 181 q 254 3 235 47 q 140 -33 208 -33 q 81 -3 101 -33 q 61 82 61 26 q 162 401 61 190 q 457 911 263 613 l 414 969 q 490 1006 454 994 q 565 1017 525 1017 q 636 989 622 1017 q 708 1017 669 1017 q 771 988 750 1017 q 792 900 792 960 m 619 358 q 618 501 618 401 q 619 881 618 803 l 603 881 q 300 358 390 565 l 619 358 m 603 1386 q 659 1413 632 1404 q 731 1421 686 1421 q 799 1403 772 1421 q 828 1347 826 1385 l 833 1226 q 875 1136 835 1167 q 779 1110 826 1110 q 721 1127 742 1110 q 700 1189 700 1144 q 717 1351 700 1294 l 696 1351 q 635 1256 658 1317 q 614 1135 611 1194 q 576 1117 604 1124 q 514 1110 547 1110 q 470 1121 486 1110 q 454 1150 454 1132 q 501 1268 454 1199 q 603 1386 547 1338 m 588 1526 q 536 1597 549 1526 q 642 1648 596 1621 q 738 1711 688 1675 q 815 1763 786 1747 q 876 1778 843 1778 q 951 1693 951 1778 q 939 1618 951 1647 q 817 1602 874 1618 q 683 1556 761 1586 q 588 1526 613 1526 z "},"Ậ":{"ha":963,"x_min":61,"x_max":890,"o":"m 792 900 q 790 783 792 826 l 789 622 q 810 228 789 393 q 890 3 831 64 q 783 -33 844 -33 q 701 -6 732 -33 q 651 85 669 22 q 625 260 633 149 l 261 260 q 235 122 235 181 q 254 3 235 47 q 140 -33 208 -33 q 81 -3 101 -33 q 61 82 61 26 q 162 401 61 190 q 457 911 263 613 l 414 969 q 490 1006 454 994 q 565 1017 525 1017 q 636 989 622 1017 q 708 1017 669 1017 q 771 988 750 1017 q 792 900 792 960 m 619 358 q 618 501 618 401 q 619 881 618 803 l 603 881 q 300 358 390 565 l 619 358 m 396 -307 q 333 -287 357 -307 q 310 -233 310 -267 q 342 -154 310 -185 q 428 -124 375 -124 q 491 -144 467 -124 q 515 -199 515 -165 q 482 -277 515 -247 q 396 -307 449 -307 m 603 1386 q 659 1413 632 1404 q 731 1421 686 1421 q 799 1403 772 1421 q 828 1347 826 1385 l 833 1226 q 875 1136 835 1167 q 779 1110 826 1110 q 721 1127 742 1110 q 700 1189 700 1144 q 717 1351 700 1294 l 696 1351 q 635 1256 658 1317 q 614 1135 611 1194 q 576 1117 604 1124 q 514 1110 547 1110 q 470 1121 486 1110 q 454 1150 454 1132 q 501 1268 454 1199 q 603 1386 547 1338 z "},"Ầ":{"ha":963,"x_min":61,"x_max":906,"o":"m 792 900 q 790 783 792 826 l 789 622 q 810 228 789 393 q 890 3 831 64 q 783 -33 844 -33 q 701 -6 732 -33 q 651 85 669 22 q 625 260 633 149 l 261 260 q 235 122 235 181 q 254 3 235 47 q 140 -33 208 -33 q 81 -3 101 -33 q 61 82 61 26 q 162 401 61 190 q 457 911 263 613 l 414 969 q 490 1006 454 994 q 565 1017 525 1017 q 636 989 622 1017 q 708 1017 669 1017 q 771 988 750 1017 q 792 900 792 960 m 619 358 q 618 501 618 401 q 619 881 618 803 l 603 881 q 300 358 390 565 l 619 358 m 603 1386 q 659 1413 632 1404 q 731 1421 686 1421 q 799 1403 772 1421 q 828 1347 826 1385 l 833 1226 q 875 1136 835 1167 q 779 1110 826 1110 q 721 1127 742 1110 q 700 1189 700 1144 q 717 1351 700 1294 l 696 1351 q 635 1256 658 1317 q 614 1135 611 1194 q 576 1117 604 1124 q 514 1110 547 1110 q 470 1121 486 1110 q 454 1150 454 1132 q 501 1268 454 1199 q 603 1386 547 1338 m 854 1526 q 758 1556 829 1526 q 624 1602 681 1586 q 503 1618 568 1618 q 490 1693 490 1647 q 565 1778 490 1778 q 627 1763 599 1778 q 704 1711 656 1747 q 800 1648 754 1675 q 906 1597 846 1621 q 854 1526 893 1526 z "},"Ẩ":{"ha":963,"x_min":61,"x_max":921,"o":"m 792 900 q 790 783 792 826 l 789 622 q 810 228 789 393 q 890 3 831 64 q 783 -33 844 -33 q 701 -6 732 -33 q 651 85 669 22 q 625 260 633 149 l 261 260 q 235 122 235 181 q 254 3 235 47 q 140 -33 208 -33 q 81 -3 101 -33 q 61 82 61 26 q 162 401 61 190 q 457 911 263 613 l 414 969 q 490 1006 454 994 q 565 1017 525 1017 q 636 989 622 1017 q 708 1017 669 1017 q 771 988 750 1017 q 792 900 792 960 m 619 358 q 618 501 618 401 q 619 881 618 803 l 603 881 q 300 358 390 565 l 619 358 m 603 1386 q 659 1413 632 1404 q 731 1421 686 1421 q 799 1403 772 1421 q 828 1347 826 1385 l 833 1226 q 875 1136 835 1167 q 779 1110 826 1110 q 721 1127 742 1110 q 700 1189 700 1144 q 717 1351 700 1294 l 696 1351 q 635 1256 658 1317 q 614 1135 611 1194 q 576 1117 604 1124 q 514 1110 547 1110 q 470 1121 486 1110 q 454 1150 454 1132 q 501 1268 454 1199 q 603 1386 547 1338 m 604 1481 q 745 1576 700 1528 q 790 1678 790 1625 q 769 1742 790 1719 q 706 1765 747 1765 q 635 1748 668 1765 q 561 1690 603 1731 q 631 1817 574 1767 q 763 1868 689 1868 q 878 1830 836 1868 q 921 1726 921 1792 q 841 1562 921 1629 q 608 1463 761 1494 l 604 1481 z "},"Ẫ":{"ha":963,"x_min":61,"x_max":961,"o":"m 792 900 q 790 783 792 826 l 789 622 q 810 228 789 393 q 890 3 831 64 q 783 -33 844 -33 q 701 -6 732 -33 q 651 85 669 22 q 625 260 633 149 l 261 260 q 235 122 235 181 q 254 3 235 47 q 140 -33 208 -33 q 81 -3 101 -33 q 61 82 61 26 q 162 401 61 190 q 457 911 263 613 l 414 969 q 490 1006 454 994 q 565 1017 525 1017 q 636 989 622 1017 q 708 1017 669 1017 q 771 988 750 1017 q 792 900 792 960 m 619 358 q 618 501 618 401 q 619 881 618 803 l 603 881 q 300 358 390 565 l 619 358 m 603 1386 q 659 1413 632 1404 q 731 1421 686 1421 q 799 1403 772 1421 q 828 1347 826 1385 l 833 1226 q 875 1136 835 1167 q 779 1110 826 1110 q 721 1127 742 1110 q 700 1189 700 1144 q 717 1351 700 1294 l 696 1351 q 635 1256 658 1317 q 614 1135 611 1194 q 576 1117 604 1124 q 514 1110 547 1110 q 470 1121 486 1110 q 454 1150 454 1132 q 501 1268 454 1199 q 603 1386 547 1338 m 550 1556 q 491 1571 507 1556 q 475 1622 475 1586 q 503 1726 475 1664 q 590 1708 554 1708 q 677 1718 636 1708 q 771 1746 718 1728 q 836 1765 810 1758 q 886 1772 863 1772 q 945 1757 929 1772 q 961 1706 961 1742 q 933 1600 961 1658 q 846 1618 885 1618 q 763 1609 801 1618 q 667 1582 724 1600 q 599 1562 624 1568 q 550 1556 574 1556 z "},"Ä":{"ha":963,"x_min":61,"x_max":935,"o":"m 792 900 q 790 783 792 826 l 789 622 q 810 228 789 393 q 890 3 831 64 q 783 -33 844 -33 q 701 -6 732 -33 q 651 85 669 22 q 625 260 633 149 l 261 260 q 235 122 235 181 q 254 3 235 47 q 140 -33 208 -33 q 81 -3 101 -33 q 61 82 61 26 q 162 401 61 190 q 457 911 263 613 l 414 969 q 490 1006 454 994 q 565 1017 525 1017 q 636 989 622 1017 q 708 1017 669 1017 q 771 988 750 1017 q 792 900 792 960 m 619 358 q 618 501 618 401 q 619 881 618 803 l 603 881 q 300 358 390 565 l 619 358 m 454 1139 q 390 1160 414 1139 q 367 1218 367 1182 q 399 1291 367 1260 q 481 1322 432 1322 q 547 1301 522 1322 q 572 1244 572 1279 q 539 1169 572 1200 q 454 1139 506 1139 m 821 1139 q 754 1160 779 1139 q 729 1218 729 1182 q 763 1291 729 1260 q 846 1322 796 1322 q 910 1301 886 1322 q 935 1244 935 1279 q 902 1169 935 1200 q 821 1139 869 1139 z "},"Ạ":{"ha":963,"x_min":61,"x_max":890,"o":"m 792 900 q 790 783 792 826 l 789 622 q 810 228 789 393 q 890 3 831 64 q 783 -33 844 -33 q 701 -6 732 -33 q 651 85 669 22 q 625 260 633 149 l 261 260 q 235 122 235 181 q 254 3 235 47 q 140 -33 208 -33 q 81 -3 101 -33 q 61 82 61 26 q 162 401 61 190 q 457 911 263 613 l 414 969 q 490 1006 454 994 q 565 1017 525 1017 q 636 989 622 1017 q 708 1017 669 1017 q 771 988 750 1017 q 792 900 792 960 m 619 358 q 618 501 618 401 q 619 881 618 803 l 603 881 q 300 358 390 565 l 619 358 m 396 -307 q 333 -287 357 -307 q 310 -233 310 -267 q 342 -154 310 -185 q 428 -124 375 -124 q 491 -144 467 -124 q 515 -199 515 -165 q 482 -277 515 -247 q 396 -307 449 -307 z "},"À":{"ha":963,"x_min":61,"x_max":890,"o":"m 792 900 q 790 783 792 826 l 789 622 q 810 228 789 393 q 890 3 831 64 q 783 -33 844 -33 q 701 -6 732 -33 q 651 85 669 22 q 625 260 633 149 l 261 260 q 235 122 235 181 q 254 3 235 47 q 140 -33 208 -33 q 81 -3 101 -33 q 61 82 61 26 q 162 401 61 190 q 457 911 263 613 l 414 969 q 490 1006 454 994 q 565 1017 525 1017 q 636 989 622 1017 q 708 1017 669 1017 q 771 988 750 1017 q 792 900 792 960 m 619 358 q 618 501 618 401 q 619 881 618 803 l 603 881 q 300 358 390 565 l 619 358 m 775 1119 q 679 1149 750 1119 q 545 1195 601 1179 q 424 1211 489 1211 q 411 1286 411 1240 q 486 1371 411 1371 q 548 1356 519 1371 q 625 1304 576 1340 q 721 1241 675 1268 q 826 1190 767 1214 q 775 1119 814 1119 z "},"Ả":{"ha":963,"x_min":61,"x_max":890,"o":"m 792 900 q 790 783 792 826 l 789 622 q 810 228 789 393 q 890 3 831 64 q 783 -33 844 -33 q 701 -6 732 -33 q 651 85 669 22 q 625 260 633 149 l 261 260 q 235 122 235 181 q 254 3 235 47 q 140 -33 208 -33 q 81 -3 101 -33 q 61 82 61 26 q 162 401 61 190 q 457 911 263 613 l 414 969 q 490 1006 454 994 q 565 1017 525 1017 q 636 989 622 1017 q 708 1017 669 1017 q 771 988 750 1017 q 792 900 792 960 m 619 358 q 618 501 618 401 q 619 881 618 803 l 603 881 q 300 358 390 565 l 619 358 m 525 1074 q 666 1169 621 1121 q 711 1271 711 1218 q 690 1335 711 1313 q 626 1358 668 1358 q 556 1341 589 1358 q 482 1283 524 1324 q 552 1410 494 1360 q 683 1461 610 1461 q 799 1423 757 1461 q 842 1319 842 1385 q 762 1155 842 1222 q 529 1056 682 1088 l 525 1074 z "},"Ā":{"ha":963,"x_min":61,"x_max":890,"o":"m 792 900 q 790 783 792 826 l 789 622 q 810 228 789 393 q 890 3 831 64 q 783 -33 844 -33 q 701 -6 732 -33 q 651 85 669 22 q 625 260 633 149 l 261 260 q 235 122 235 181 q 254 3 235 47 q 140 -33 208 -33 q 81 -3 101 -33 q 61 82 61 26 q 162 401 61 190 q 457 911 263 613 l 414 969 q 490 1006 454 994 q 565 1017 525 1017 q 636 989 622 1017 q 708 1017 669 1017 q 771 988 750 1017 q 792 900 792 960 m 619 358 q 618 501 618 401 q 619 881 618 803 l 603 881 q 300 358 390 565 l 619 358 m 474 1164 q 414 1229 414 1164 q 424 1283 414 1250 q 446 1336 435 1315 q 487 1324 461 1329 q 533 1319 513 1319 q 657 1325 574 1319 q 790 1331 743 1331 q 863 1315 839 1331 q 886 1265 886 1299 q 868 1181 886 1226 q 831 1190 857 1186 q 778 1193 804 1193 q 622 1178 719 1193 q 474 1164 519 1164 z "},"Ą":{"ha":963,"x_min":61,"x_max":899,"o":"m 771 -317 q 833 -306 803 -317 q 899 -269 863 -294 q 828 -384 886 -337 q 697 -431 769 -431 q 581 -390 624 -431 q 539 -281 539 -350 q 591 -132 539 -196 q 744 -29 643 -68 q 663 52 690 -14 q 625 260 635 118 l 261 260 q 235 122 235 181 q 254 3 235 47 q 140 -33 208 -33 q 81 -3 101 -33 q 61 82 61 26 q 162 401 61 190 q 457 911 263 613 l 414 969 q 490 1006 454 994 q 565 1017 525 1017 q 636 989 622 1017 q 708 1017 669 1017 q 771 988 750 1017 q 792 900 792 960 q 790 783 792 826 l 789 622 q 810 228 789 393 q 890 3 831 64 q 838 -25 863 -18 q 710 -124 751 -75 q 669 -229 669 -174 q 696 -294 669 -271 q 771 -317 722 -317 m 619 358 q 618 501 618 401 q 619 881 618 803 l 603 881 q 300 358 390 565 l 619 358 z "},"Å":{"ha":963,"x_min":61,"x_max":890,"o":"m 792 900 q 790 783 792 826 l 789 622 q 810 228 789 393 q 890 3 831 64 q 783 -33 844 -33 q 701 -6 732 -33 q 651 85 669 22 q 625 260 633 149 l 261 260 q 235 122 235 181 q 254 3 235 47 q 140 -33 208 -33 q 81 -3 101 -33 q 61 82 61 26 q 162 401 61 190 q 457 911 263 613 l 414 969 q 490 1006 454 994 q 565 1017 525 1017 q 636 989 622 1017 q 708 1017 669 1017 q 771 988 750 1017 q 792 900 792 960 m 619 358 q 618 501 618 401 q 619 881 618 803 l 603 881 q 300 358 390 565 l 619 358 m 629 1069 q 486 1119 539 1069 q 432 1254 433 1168 q 503 1426 433 1360 q 683 1493 572 1493 q 827 1443 774 1493 q 881 1308 881 1393 q 849 1185 881 1239 q 760 1100 818 1131 q 629 1069 703 1069 m 639 1153 q 722 1197 689 1153 q 754 1310 754 1242 q 735 1386 754 1363 q 675 1411 717 1410 q 610 1401 649 1411 q 557 1260 557 1342 q 580 1183 557 1213 q 639 1153 603 1153 z "},"Ǻ":{"ha":963,"x_min":61,"x_max":938,"o":"m 792 900 q 790 783 792 826 l 789 622 q 810 228 789 393 q 890 3 831 64 q 783 -33 844 -33 q 701 -6 732 -33 q 651 85 669 22 q 625 260 633 149 l 261 260 q 235 122 235 181 q 254 3 235 47 q 140 -33 208 -33 q 81 -3 101 -33 q 61 82 61 26 q 162 401 61 190 q 457 911 263 613 l 414 969 q 490 1006 454 994 q 565 1017 525 1017 q 636 989 622 1017 q 708 1017 669 1017 q 771 988 750 1017 q 792 900 792 960 m 619 358 q 618 501 618 401 q 619 881 618 803 l 603 881 q 300 358 390 565 l 619 358 m 629 1069 q 486 1119 539 1069 q 432 1254 433 1168 q 503 1426 433 1360 q 683 1493 572 1493 q 827 1443 774 1493 q 881 1308 881 1393 q 849 1185 881 1239 q 760 1100 818 1131 q 629 1069 703 1069 m 639 1153 q 722 1197 689 1153 q 754 1310 754 1242 q 735 1386 754 1363 q 675 1411 717 1410 q 610 1401 649 1411 q 557 1260 557 1342 q 580 1183 557 1213 q 639 1153 603 1153 m 574 1585 q 522 1656 535 1585 q 628 1706 582 1679 q 724 1769 674 1733 q 801 1821 772 1806 q 863 1836 829 1836 q 938 1751 938 1836 q 925 1676 938 1706 q 803 1660 860 1676 q 669 1614 747 1644 q 574 1585 599 1585 z "},"Ã":{"ha":963,"x_min":61,"x_max":890,"o":"m 792 900 q 790 783 792 826 l 789 622 q 810 228 789 393 q 890 3 831 64 q 783 -33 844 -33 q 701 -6 732 -33 q 651 85 669 22 q 625 260 633 149 l 261 260 q 235 122 235 181 q 254 3 235 47 q 140 -33 208 -33 q 81 -3 101 -33 q 61 82 61 26 q 162 401 61 190 q 457 911 263 613 l 414 969 q 490 1006 454 994 q 565 1017 525 1017 q 636 989 622 1017 q 708 1017 669 1017 q 771 988 750 1017 q 792 900 792 960 m 619 358 q 618 501 618 401 q 619 881 618 803 l 603 881 q 300 358 390 565 l 619 358 m 471 1149 q 412 1164 428 1149 q 396 1215 396 1179 q 424 1319 396 1257 q 511 1301 475 1301 q 598 1311 557 1301 q 692 1339 639 1321 q 757 1358 731 1351 q 807 1365 783 1365 q 866 1350 850 1365 q 882 1299 882 1335 q 854 1193 882 1251 q 767 1211 806 1211 q 683 1202 722 1211 q 588 1175 644 1193 q 519 1155 544 1161 q 471 1149 494 1149 z "},"Æ":{"ha":1193,"x_min":58,"x_max":1222,"o":"m 1050 808 q 814 835 919 808 q 801 757 808 804 q 783 646 794 710 l 761 508 q 906 501 818 501 l 1007 526 q 1008 493 1008 515 q 976 416 1008 443 q 883 389 943 389 q 744 407 822 389 q 710 122 710 182 q 711 104 710 110 l 989 104 q 1140 140 1072 114 q 1151 79 1151 103 q 1101 -7 1151 21 q 942 -35 1050 -35 q 743 -4 839 -35 q 636 -36 692 -36 q 561 -10 585 -36 q 538 76 538 17 q 553 260 538 143 l 263 260 q 229 106 229 167 q 233 42 229 67 q 253 -3 238 18 q 133 -40 207 -40 q 77 -12 96 -40 q 58 65 58 15 q 166 392 58 176 q 485 911 274 607 l 443 969 q 518 999 483 990 q 594 1008 553 1008 q 663 983 640 1008 q 767 1008 719 1008 q 828 944 824 1008 q 990 958 919 947 q 1182 993 1061 969 l 1215 1000 q 1222 942 1222 976 q 1173 841 1222 874 q 1050 808 1124 808 m 565 358 q 649 881 592 533 l 632 881 q 306 358 403 564 l 565 358 z "},"Ǽ":{"ha":1193,"x_min":58,"x_max":1222,"o":"m 1050 808 q 814 835 919 808 q 801 757 808 804 q 783 646 794 710 l 761 508 q 906 501 818 501 l 1007 526 q 1008 493 1008 515 q 976 416 1008 443 q 883 389 943 389 q 744 407 822 389 q 710 122 710 182 q 711 104 710 110 l 989 104 q 1140 140 1072 114 q 1151 79 1151 103 q 1101 -7 1151 21 q 942 -35 1050 -35 q 743 -4 839 -35 q 636 -36 692 -36 q 561 -10 585 -36 q 538 76 538 17 q 553 260 538 143 l 263 260 q 229 106 229 167 q 233 42 229 67 q 253 -3 238 18 q 133 -40 207 -40 q 77 -12 96 -40 q 58 65 58 15 q 166 392 58 176 q 485 911 274 607 l 443 969 q 518 999 483 990 q 594 1008 553 1008 q 663 983 640 1008 q 767 1008 719 1008 q 828 944 824 1008 q 990 958 919 947 q 1182 993 1061 969 l 1215 1000 q 1222 942 1222 976 q 1173 841 1222 874 q 1050 808 1124 808 m 565 358 q 649 881 592 533 l 632 881 q 306 358 403 564 l 565 358 m 721 1119 q 669 1190 682 1119 q 775 1241 729 1214 q 871 1304 821 1268 q 948 1356 919 1340 q 1010 1371 976 1371 q 1085 1286 1085 1371 q 1072 1211 1085 1240 q 951 1195 1007 1211 q 817 1149 894 1179 q 721 1119 746 1119 z "},"B":{"ha":1097,"x_min":154,"x_max":960,"o":"m 724 511 q 897 426 835 490 q 960 264 960 361 q 906 109 960 178 q 757 2 853 40 q 540 -36 661 -36 q 255 8 356 -36 q 154 133 154 53 q 177 376 154 213 q 257 865 200 540 l 214 950 q 379 1008 311 1008 q 442 938 439 1008 q 715 1010 586 1010 q 891 953 826 1010 q 956 797 956 896 q 895 634 956 708 q 724 511 835 560 m 431 846 q 368 508 403 715 q 585 551 493 517 q 726 642 676 586 q 775 769 775 699 q 635 890 775 890 q 431 846 532 890 m 532 67 q 713 119 646 67 q 781 260 781 172 q 722 394 781 346 q 554 442 663 442 q 356 415 460 442 q 322 104 332 256 q 423 77 367 88 q 532 67 479 67 z "},"C":{"ha":900,"x_min":71,"x_max":881,"o":"m 451 -35 q 172 69 272 -35 q 71 361 71 174 q 151 691 71 543 q 367 924 231 839 q 667 1008 503 1008 q 824 976 767 1008 q 881 888 881 944 q 843 808 881 840 q 750 775 806 775 q 561 890 619 775 q 400 772 471 851 q 289 584 329 693 q 249 350 249 475 q 301 139 249 215 q 447 63 354 63 q 623 139 554 63 q 700 333 692 215 q 814 238 814 333 q 765 101 814 164 q 632 2 715 39 q 451 -35 549 -35 z "},"Ć":{"ha":900,"x_min":71,"x_max":881,"o":"m 451 -35 q 172 69 272 -35 q 71 361 71 174 q 151 691 71 543 q 367 924 231 839 q 667 1008 503 1008 q 824 976 767 1008 q 881 888 881 944 q 843 808 881 840 q 750 775 806 775 q 561 890 619 775 q 400 772 471 851 q 289 584 329 693 q 249 350 249 475 q 301 139 249 215 q 447 63 354 63 q 623 139 554 63 q 700 333 692 215 q 814 238 814 333 q 765 101 814 164 q 632 2 715 39 q 451 -35 549 -35 m 499 1100 q 447 1171 460 1100 q 553 1222 507 1194 q 649 1285 599 1249 q 726 1336 697 1321 q 788 1351 754 1351 q 863 1267 863 1351 q 850 1192 863 1221 q 728 1176 785 1192 q 594 1129 672 1160 q 499 1100 524 1100 z "},"Č":{"ha":900,"x_min":71,"x_max":881,"o":"m 451 -35 q 172 69 272 -35 q 71 361 71 174 q 151 691 71 543 q 367 924 231 839 q 667 1008 503 1008 q 824 976 767 1008 q 881 888 881 944 q 843 808 881 840 q 750 775 806 775 q 561 890 619 775 q 400 772 471 851 q 289 584 329 693 q 249 350 249 475 q 301 139 249 215 q 447 63 354 63 q 623 139 554 63 q 700 333 692 215 q 814 238 814 333 q 765 101 814 164 q 632 2 715 39 q 451 -35 549 -35 m 713 1125 q 656 1099 682 1107 q 586 1090 631 1090 q 516 1108 543 1090 q 486 1164 489 1126 l 482 1285 q 440 1375 481 1344 q 536 1401 486 1401 q 595 1384 575 1401 q 615 1322 615 1367 q 599 1160 615 1225 l 619 1160 q 680 1256 656 1194 q 703 1376 704 1317 q 740 1394 711 1388 q 800 1401 768 1401 q 844 1390 829 1401 q 860 1361 860 1379 q 814 1242 860 1311 q 713 1125 768 1172 z "},"Ç":{"ha":900,"x_min":71,"x_max":881,"o":"m 451 -35 q 172 69 272 -35 q 71 361 71 174 q 151 691 71 543 q 367 924 231 839 q 667 1008 503 1008 q 824 976 767 1008 q 881 888 881 944 q 843 808 881 840 q 750 775 806 775 q 561 890 619 775 q 400 772 471 851 q 289 584 329 693 q 249 350 249 475 q 301 139 249 215 q 447 63 354 63 q 623 139 554 63 q 700 333 692 215 q 814 238 814 333 q 765 101 814 164 q 632 2 715 39 q 451 -35 549 -35 m 303 -418 q 178 -386 225 -418 q 132 -301 132 -354 q 183 -217 132 -251 q 308 -183 235 -183 q 262 -225 279 -199 q 244 -282 244 -251 q 314 -344 244 -344 q 392 -313 360 -344 q 424 -237 424 -282 q 308 -74 424 -126 q 490 -117 424 -74 q 556 -239 556 -161 q 522 -330 556 -289 q 431 -394 489 -371 q 303 -418 374 -418 z "},"Ĉ":{"ha":900,"x_min":71,"x_max":881,"o":"m 451 -35 q 172 69 272 -35 q 71 361 71 174 q 151 691 71 543 q 367 924 231 839 q 667 1008 503 1008 q 824 976 767 1008 q 881 888 881 944 q 843 808 881 840 q 750 775 806 775 q 561 890 619 775 q 400 772 471 851 q 289 584 329 693 q 249 350 249 475 q 301 139 249 215 q 447 63 354 63 q 623 139 554 63 q 700 333 692 215 q 814 238 814 333 q 765 101 814 164 q 632 2 715 39 q 451 -35 549 -35 m 593 1367 q 649 1393 622 1385 q 721 1401 676 1401 q 790 1383 763 1401 q 818 1328 817 1365 l 824 1207 q 865 1117 825 1147 q 769 1090 817 1090 q 711 1108 732 1090 q 690 1169 690 1125 q 707 1332 690 1275 l 686 1332 q 625 1236 649 1297 q 604 1115 601 1175 q 566 1097 594 1104 q 504 1090 538 1090 q 460 1101 476 1090 q 444 1131 444 1113 q 491 1249 444 1179 q 593 1367 538 1318 z "},"Ċ":{"ha":900,"x_min":71,"x_max":881,"o":"m 451 -35 q 172 69 272 -35 q 71 361 71 174 q 151 691 71 543 q 367 924 231 839 q 667 1008 503 1008 q 824 976 767 1008 q 881 888 881 944 q 843 808 881 840 q 750 775 806 775 q 561 890 619 775 q 400 772 471 851 q 289 584 329 693 q 249 350 249 475 q 301 139 249 215 q 447 63 354 63 q 623 139 554 63 q 700 333 692 215 q 814 238 814 333 q 765 101 814 164 q 632 2 715 39 q 451 -35 549 -35 m 642 1125 q 578 1145 601 1125 q 554 1199 554 1165 q 588 1278 554 1247 q 672 1308 621 1308 q 736 1288 713 1308 q 760 1233 760 1268 q 727 1156 760 1186 q 642 1125 694 1125 z "},"D":{"ha":1158,"x_min":153,"x_max":1063,"o":"m 667 1008 q 876 954 786 1008 q 1014 800 965 900 q 1063 565 1063 700 q 986 253 1063 389 q 774 41 910 117 q 461 -35 638 -35 q 229 7 306 -35 q 153 135 153 49 q 176 369 153 203 q 257 865 200 535 l 214 950 q 376 1008 315 1008 q 439 949 433 1008 q 542 993 489 978 q 667 1008 596 1008 m 482 67 q 689 127 597 67 q 832 294 781 188 q 883 536 883 401 q 813 805 883 713 q 607 897 742 897 q 508 888 547 897 q 429 858 468 879 q 396 642 421 797 q 342 271 360 399 q 324 90 324 143 q 482 67 399 67 z "},"Ð":{"ha":1158,"x_min":25,"x_max":1063,"o":"m 667 1008 q 876 954 786 1008 q 1014 800 965 900 q 1063 565 1063 700 q 986 253 1063 389 q 774 41 910 117 q 461 -35 638 -35 q 229 7 306 -35 q 153 135 153 49 q 183 417 153 204 q 100 411 128 411 q 42 427 58 411 q 25 475 25 443 q 50 556 25 518 q 200 539 94 539 l 203 539 q 257 865 222 668 l 214 950 q 376 1008 315 1008 q 439 949 433 1008 q 542 993 489 978 q 667 1008 596 1008 m 482 67 q 689 127 597 67 q 832 294 781 188 q 883 536 883 401 q 813 805 883 713 q 607 897 742 897 q 508 888 547 897 q 429 858 468 879 l 400 664 l 383 560 q 533 575 475 575 q 591 559 575 575 q 607 511 607 543 q 583 432 607 465 q 439 447 539 447 q 365 443 403 447 q 324 90 324 157 q 482 67 399 67 z "},"Ď":{"ha":1158,"x_min":153,"x_max":1063,"o":"m 667 1008 q 876 954 786 1008 q 1014 800 965 900 q 1063 565 1063 700 q 986 253 1063 389 q 774 41 910 117 q 461 -35 638 -35 q 229 7 306 -35 q 153 135 153 49 q 176 369 153 203 q 257 865 200 535 l 214 950 q 376 1008 315 1008 q 439 949 433 1008 q 542 993 489 978 q 667 1008 596 1008 m 482 67 q 689 127 597 67 q 832 294 781 188 q 883 536 883 401 q 813 805 883 713 q 607 897 742 897 q 508 888 547 897 q 429 858 468 879 q 396 642 421 797 q 342 271 360 399 q 324 90 324 143 q 482 67 399 67 m 774 1144 q 717 1118 743 1126 q 647 1110 692 1110 q 577 1128 604 1110 q 547 1183 550 1146 l 543 1304 q 501 1394 542 1364 q 597 1421 547 1421 q 656 1403 636 1421 q 676 1342 676 1386 q 660 1179 676 1244 l 681 1179 q 741 1275 717 1214 q 764 1396 765 1336 q 801 1414 772 1407 q 861 1421 829 1421 q 906 1410 890 1421 q 921 1381 921 1399 q 875 1261 921 1331 q 774 1144 829 1192 z "},"Đ":{"ha":1158,"x_min":25,"x_max":1063,"o":"m 667 1008 q 876 954 786 1008 q 1014 800 965 900 q 1063 565 1063 700 q 986 253 1063 389 q 774 41 910 117 q 461 -35 638 -35 q 229 7 306 -35 q 153 135 153 49 q 183 417 153 204 q 100 411 128 411 q 42 427 58 411 q 25 475 25 443 q 50 556 25 518 q 200 539 94 539 l 203 539 q 257 865 222 668 l 214 950 q 376 1008 315 1008 q 439 949 433 1008 q 542 993 489 978 q 667 1008 596 1008 m 482 67 q 689 127 597 67 q 832 294 781 188 q 883 536 883 401 q 813 805 883 713 q 607 897 742 897 q 508 888 547 897 q 429 858 468 879 l 400 664 l 383 560 q 533 575 475 575 q 591 559 575 575 q 607 511 607 543 q 583 432 607 465 q 439 447 539 447 q 365 443 403 447 q 324 90 324 157 q 482 67 399 67 z "},"E":{"ha":806,"x_min":150,"x_max":835,"o":"m 663 808 q 426 835 532 808 q 414 757 421 804 q 396 646 407 710 l 374 508 q 518 501 431 501 l 621 526 l 622 493 q 590 416 622 443 q 496 389 557 389 q 357 408 433 389 q 322 122 322 181 q 324 104 322 110 l 601 104 q 753 140 685 114 q 765 79 765 99 q 715 -7 765 21 q 554 -35 664 -35 q 356 -4 451 -35 q 249 -36 304 -36 q 174 -10 197 -36 q 150 76 150 17 q 172 318 150 156 q 257 865 194 481 l 214 950 q 379 1008 307 1008 q 440 944 436 1008 q 603 958 532 947 q 794 993 674 969 l 828 1000 q 835 942 835 976 q 785 841 835 874 q 663 808 736 808 z "},"É":{"ha":806,"x_min":150,"x_max":835,"o":"m 663 808 q 426 835 532 808 q 414 757 421 804 q 396 646 407 710 l 374 508 q 518 501 431 501 l 621 526 l 622 493 q 590 416 622 443 q 496 389 557 389 q 357 408 433 389 q 322 122 322 181 q 324 104 322 110 l 601 104 q 753 140 685 114 q 765 79 765 99 q 715 -7 765 21 q 554 -35 664 -35 q 356 -4 451 -35 q 249 -36 304 -36 q 174 -10 197 -36 q 150 76 150 17 q 172 318 150 156 q 257 865 194 481 l 214 950 q 379 1008 307 1008 q 440 944 436 1008 q 603 958 532 947 q 794 993 674 969 l 828 1000 q 835 942 835 976 q 785 841 835 874 q 663 808 736 808 m 440 1119 q 389 1190 401 1119 q 494 1241 449 1214 q 590 1304 540 1268 q 667 1356 639 1340 q 729 1371 696 1371 q 804 1286 804 1371 q 792 1211 804 1240 q 670 1195 726 1211 q 536 1149 614 1179 q 440 1119 465 1119 z "},"Ĕ":{"ha":806,"x_min":150,"x_max":858,"o":"m 663 808 q 426 835 532 808 q 414 757 421 804 q 396 646 407 710 l 374 508 q 518 501 431 501 l 621 526 l 622 493 q 590 416 622 443 q 496 389 557 389 q 357 408 433 389 q 322 122 322 181 q 324 104 322 110 l 601 104 q 753 140 685 114 q 765 79 765 99 q 715 -7 765 21 q 554 -35 664 -35 q 356 -4 451 -35 q 249 -36 304 -36 q 174 -10 197 -36 q 150 76 150 17 q 172 318 150 156 q 257 865 194 481 l 214 950 q 379 1008 307 1008 q 440 944 436 1008 q 603 958 532 947 q 794 993 674 969 l 828 1000 q 835 942 835 976 q 785 841 835 874 q 663 808 736 808 m 600 1213 q 708 1263 665 1213 q 750 1397 750 1314 q 830 1371 801 1394 q 858 1301 858 1347 q 823 1210 858 1253 q 726 1142 788 1168 q 590 1117 664 1117 q 425 1157 483 1117 q 367 1260 367 1197 q 395 1335 367 1300 q 469 1383 424 1371 q 600 1213 458 1213 z "},"Ě":{"ha":806,"x_min":150,"x_max":835,"o":"m 663 808 q 426 835 532 808 q 414 757 421 804 q 396 646 407 710 l 374 508 q 518 501 431 501 l 621 526 l 622 493 q 590 416 622 443 q 496 389 557 389 q 357 408 433 389 q 322 122 322 181 q 324 104 322 110 l 601 104 q 753 140 685 114 q 765 79 765 99 q 715 -7 765 21 q 554 -35 664 -35 q 356 -4 451 -35 q 249 -36 304 -36 q 174 -10 197 -36 q 150 76 150 17 q 172 318 150 156 q 257 865 194 481 l 214 950 q 379 1008 307 1008 q 440 944 436 1008 q 603 958 532 947 q 794 993 674 969 l 828 1000 q 835 942 835 976 q 785 841 835 874 q 663 808 736 808 m 654 1144 q 598 1118 624 1126 q 528 1110 572 1110 q 458 1128 485 1110 q 428 1183 431 1146 l 424 1304 q 382 1394 422 1364 q 478 1421 428 1421 q 537 1403 517 1421 q 557 1342 557 1386 q 540 1179 557 1244 l 561 1179 q 622 1275 597 1214 q 644 1396 646 1336 q 681 1414 653 1407 q 742 1421 710 1421 q 786 1410 771 1421 q 801 1381 801 1399 q 756 1261 801 1331 q 654 1144 710 1192 z "},"Ê":{"ha":806,"x_min":150,"x_max":835,"o":"m 663 808 q 426 835 532 808 q 414 757 421 804 q 396 646 407 710 l 374 508 q 518 501 431 501 l 621 526 l 622 493 q 590 416 622 443 q 496 389 557 389 q 357 408 433 389 q 322 122 322 181 q 324 104 322 110 l 601 104 q 753 140 685 114 q 765 79 765 99 q 715 -7 765 21 q 554 -35 664 -35 q 356 -4 451 -35 q 249 -36 304 -36 q 174 -10 197 -36 q 150 76 150 17 q 172 318 150 156 q 257 865 194 481 l 214 950 q 379 1008 307 1008 q 440 944 436 1008 q 603 958 532 947 q 794 993 674 969 l 828 1000 q 835 942 835 976 q 785 841 835 874 q 663 808 736 808 m 535 1386 q 591 1413 564 1404 q 663 1421 618 1421 q 731 1403 704 1421 q 760 1347 758 1385 l 765 1226 q 807 1136 767 1167 q 711 1110 758 1110 q 653 1127 674 1110 q 632 1189 632 1144 q 649 1351 632 1294 l 628 1351 q 567 1256 590 1317 q 546 1135 543 1194 q 508 1117 536 1124 q 446 1110 479 1110 q 402 1121 418 1110 q 386 1150 386 1132 q 433 1268 386 1199 q 535 1386 479 1338 z "},"Ế":{"ha":806,"x_min":150,"x_max":883,"o":"m 663 808 q 426 835 532 808 q 414 757 421 804 q 396 646 407 710 l 374 508 q 518 501 431 501 l 621 526 l 622 493 q 590 416 622 443 q 496 389 557 389 q 357 408 433 389 q 322 122 322 181 q 324 104 322 110 l 601 104 q 753 140 685 114 q 765 79 765 99 q 715 -7 765 21 q 554 -35 664 -35 q 356 -4 451 -35 q 249 -36 304 -36 q 174 -10 197 -36 q 150 76 150 17 q 172 318 150 156 q 257 865 194 481 l 214 950 q 379 1008 307 1008 q 440 944 436 1008 q 603 958 532 947 q 794 993 674 969 l 828 1000 q 835 942 835 976 q 785 841 835 874 q 663 808 736 808 m 535 1386 q 591 1413 564 1404 q 663 1421 618 1421 q 731 1403 704 1421 q 760 1347 758 1385 l 765 1226 q 807 1136 767 1167 q 711 1110 758 1110 q 653 1127 674 1110 q 632 1189 632 1144 q 649 1351 632 1294 l 628 1351 q 567 1256 590 1317 q 546 1135 543 1194 q 508 1117 536 1124 q 446 1110 479 1110 q 402 1121 418 1110 q 386 1150 386 1132 q 433 1268 386 1199 q 535 1386 479 1338 m 519 1526 q 468 1597 481 1526 q 574 1648 528 1621 q 669 1711 619 1675 q 747 1763 718 1747 q 808 1778 775 1778 q 883 1693 883 1778 q 871 1618 883 1647 q 749 1602 806 1618 q 615 1556 693 1586 q 519 1526 544 1526 z "},"Ệ":{"ha":806,"x_min":150,"x_max":835,"o":"m 663 808 q 426 835 532 808 q 414 757 421 804 q 396 646 407 710 l 374 508 q 518 501 431 501 l 621 526 l 622 493 q 590 416 622 443 q 496 389 557 389 q 357 408 433 389 q 322 122 322 181 q 324 104 322 110 l 601 104 q 753 140 685 114 q 765 79 765 99 q 715 -7 765 21 q 554 -35 664 -35 q 356 -4 451 -35 q 249 -36 304 -36 q 174 -10 197 -36 q 150 76 150 17 q 172 318 150 156 q 257 865 194 481 l 214 950 q 379 1008 307 1008 q 440 944 436 1008 q 603 958 532 947 q 794 993 674 969 l 828 1000 q 835 942 835 976 q 785 841 835 874 q 663 808 736 808 m 392 -307 q 329 -287 353 -307 q 306 -233 306 -267 q 338 -154 306 -185 q 424 -124 371 -124 q 487 -144 463 -124 q 511 -199 511 -165 q 478 -277 511 -247 q 392 -307 444 -307 m 535 1386 q 591 1413 564 1404 q 663 1421 618 1421 q 731 1403 704 1421 q 760 1347 758 1385 l 765 1226 q 807 1136 767 1167 q 711 1110 758 1110 q 653 1127 674 1110 q 632 1189 632 1144 q 649 1351 632 1294 l 628 1351 q 567 1256 590 1317 q 546 1135 543 1194 q 508 1117 536 1124 q 446 1110 479 1110 q 402 1121 418 1110 q 386 1150 386 1132 q 433 1268 386 1199 q 535 1386 479 1338 z "},"Ề":{"ha":806,"x_min":150,"x_max":838,"o":"m 663 808 q 426 835 532 808 q 414 757 421 804 q 396 646 407 710 l 374 508 q 518 501 431 501 l 621 526 l 622 493 q 590 416 622 443 q 496 389 557 389 q 357 408 433 389 q 322 122 322 181 q 324 104 322 110 l 601 104 q 753 140 685 114 q 765 79 765 99 q 715 -7 765 21 q 554 -35 664 -35 q 356 -4 451 -35 q 249 -36 304 -36 q 174 -10 197 -36 q 150 76 150 17 q 172 318 150 156 q 257 865 194 481 l 214 950 q 379 1008 307 1008 q 440 944 436 1008 q 603 958 532 947 q 794 993 674 969 l 828 1000 q 835 942 835 976 q 785 841 835 874 q 663 808 736 808 m 535 1386 q 591 1413 564 1404 q 663 1421 618 1421 q 731 1403 704 1421 q 760 1347 758 1385 l 765 1226 q 807 1136 767 1167 q 711 1110 758 1110 q 653 1127 674 1110 q 632 1189 632 1144 q 649 1351 632 1294 l 628 1351 q 567 1256 590 1317 q 546 1135 543 1194 q 508 1117 536 1124 q 446 1110 479 1110 q 402 1121 418 1110 q 386 1150 386 1132 q 433 1268 386 1199 q 535 1386 479 1338 m 786 1526 q 690 1556 761 1526 q 556 1602 613 1586 q 435 1618 500 1618 q 422 1693 422 1647 q 497 1778 422 1778 q 559 1763 531 1778 q 636 1711 588 1747 q 732 1648 686 1675 q 838 1597 778 1621 q 786 1526 825 1526 z "},"Ể":{"ha":806,"x_min":150,"x_max":853,"o":"m 663 808 q 426 835 532 808 q 414 757 421 804 q 396 646 407 710 l 374 508 q 518 501 431 501 l 621 526 l 622 493 q 590 416 622 443 q 496 389 557 389 q 357 408 433 389 q 322 122 322 181 q 324 104 322 110 l 601 104 q 753 140 685 114 q 765 79 765 99 q 715 -7 765 21 q 554 -35 664 -35 q 356 -4 451 -35 q 249 -36 304 -36 q 174 -10 197 -36 q 150 76 150 17 q 172 318 150 156 q 257 865 194 481 l 214 950 q 379 1008 307 1008 q 440 944 436 1008 q 603 958 532 947 q 794 993 674 969 l 828 1000 q 835 942 835 976 q 785 841 835 874 q 663 808 736 808 m 535 1386 q 591 1413 564 1404 q 663 1421 618 1421 q 731 1403 704 1421 q 760 1347 758 1385 l 765 1226 q 807 1136 767 1167 q 711 1110 758 1110 q 653 1127 674 1110 q 632 1189 632 1144 q 649 1351 632 1294 l 628 1351 q 567 1256 590 1317 q 546 1135 543 1194 q 508 1117 536 1124 q 446 1110 479 1110 q 402 1121 418 1110 q 386 1150 386 1132 q 433 1268 386 1199 q 535 1386 479 1338 m 536 1481 q 677 1576 632 1528 q 722 1678 722 1625 q 701 1742 722 1719 q 638 1765 679 1765 q 567 1748 600 1765 q 493 1690 535 1731 q 563 1817 506 1767 q 694 1868 621 1868 q 810 1830 768 1868 q 853 1726 853 1792 q 773 1562 853 1629 q 540 1463 693 1494 l 536 1481 z "},"Ễ":{"ha":806,"x_min":150,"x_max":893,"o":"m 663 808 q 426 835 532 808 q 414 757 421 804 q 396 646 407 710 l 374 508 q 518 501 431 501 l 621 526 l 622 493 q 590 416 622 443 q 496 389 557 389 q 357 408 433 389 q 322 122 322 181 q 324 104 322 110 l 601 104 q 753 140 685 114 q 765 79 765 99 q 715 -7 765 21 q 554 -35 664 -35 q 356 -4 451 -35 q 249 -36 304 -36 q 174 -10 197 -36 q 150 76 150 17 q 172 318 150 156 q 257 865 194 481 l 214 950 q 379 1008 307 1008 q 440 944 436 1008 q 603 958 532 947 q 794 993 674 969 l 828 1000 q 835 942 835 976 q 785 841 835 874 q 663 808 736 808 m 535 1386 q 591 1413 564 1404 q 663 1421 618 1421 q 731 1403 704 1421 q 760 1347 758 1385 l 765 1226 q 807 1136 767 1167 q 711 1110 758 1110 q 653 1127 674 1110 q 632 1189 632 1144 q 649 1351 632 1294 l 628 1351 q 567 1256 590 1317 q 546 1135 543 1194 q 508 1117 536 1124 q 446 1110 479 1110 q 402 1121 418 1110 q 386 1150 386 1132 q 433 1268 386 1199 q 535 1386 479 1338 m 482 1556 q 423 1571 439 1556 q 407 1622 407 1586 q 435 1726 407 1664 q 522 1708 486 1708 q 609 1718 568 1708 q 703 1746 650 1728 q 768 1765 742 1758 q 818 1772 794 1772 q 877 1757 861 1772 q 893 1706 893 1742 q 865 1600 893 1658 q 778 1618 817 1618 q 694 1609 733 1618 q 599 1582 656 1600 q 531 1562 556 1568 q 482 1556 506 1556 z "},"Ë":{"ha":806,"x_min":150,"x_max":867,"o":"m 663 808 q 426 835 532 808 q 414 757 421 804 q 396 646 407 710 l 374 508 q 518 501 431 501 l 621 526 l 622 493 q 590 416 622 443 q 496 389 557 389 q 357 408 433 389 q 322 122 322 181 q 324 104 322 110 l 601 104 q 753 140 685 114 q 765 79 765 99 q 715 -7 765 21 q 554 -35 664 -35 q 356 -4 451 -35 q 249 -36 304 -36 q 174 -10 197 -36 q 150 76 150 17 q 172 318 150 156 q 257 865 194 481 l 214 950 q 379 1008 307 1008 q 440 944 436 1008 q 603 958 532 947 q 794 993 674 969 l 828 1000 q 835 942 835 976 q 785 841 835 874 q 663 808 736 808 m 386 1139 q 322 1160 346 1139 q 299 1218 299 1182 q 331 1291 299 1260 q 413 1322 364 1322 q 479 1301 454 1322 q 504 1244 504 1279 q 471 1169 504 1200 q 386 1139 438 1139 m 753 1139 q 686 1160 711 1139 q 661 1218 661 1182 q 694 1291 661 1260 q 778 1322 728 1322 q 842 1301 818 1322 q 867 1244 867 1279 q 834 1169 867 1200 q 753 1139 801 1139 z "},"Ė":{"ha":806,"x_min":150,"x_max":835,"o":"m 663 808 q 426 835 532 808 q 414 757 421 804 q 396 646 407 710 l 374 508 q 518 501 431 501 l 621 526 l 622 493 q 590 416 622 443 q 496 389 557 389 q 357 408 433 389 q 322 122 322 181 q 324 104 322 110 l 601 104 q 753 140 685 114 q 765 79 765 99 q 715 -7 765 21 q 554 -35 664 -35 q 356 -4 451 -35 q 249 -36 304 -36 q 174 -10 197 -36 q 150 76 150 17 q 172 318 150 156 q 257 865 194 481 l 214 950 q 379 1008 307 1008 q 440 944 436 1008 q 603 958 532 947 q 794 993 674 969 l 828 1000 q 835 942 835 976 q 785 841 835 874 q 663 808 736 808 m 583 1144 q 519 1165 543 1144 q 496 1218 496 1185 q 529 1297 496 1267 q 614 1328 563 1328 q 678 1308 654 1328 q 701 1253 701 1288 q 669 1175 701 1206 q 583 1144 636 1144 z "},"Ẹ":{"ha":806,"x_min":150,"x_max":835,"o":"m 663 808 q 426 835 532 808 q 414 757 421 804 q 396 646 407 710 l 374 508 q 518 501 431 501 l 621 526 l 622 493 q 590 416 622 443 q 496 389 557 389 q 357 408 433 389 q 322 122 322 181 q 324 104 322 110 l 601 104 q 753 140 685 114 q 765 79 765 99 q 715 -7 765 21 q 554 -35 664 -35 q 356 -4 451 -35 q 249 -36 304 -36 q 174 -10 197 -36 q 150 76 150 17 q 172 318 150 156 q 257 865 194 481 l 214 950 q 379 1008 307 1008 q 440 944 436 1008 q 603 958 532 947 q 794 993 674 969 l 828 1000 q 835 942 835 976 q 785 841 835 874 q 663 808 736 808 m 392 -307 q 329 -287 353 -307 q 306 -233 306 -267 q 338 -154 306 -185 q 424 -124 371 -124 q 487 -144 463 -124 q 511 -199 511 -165 q 478 -277 511 -247 q 392 -307 444 -307 z "},"È":{"ha":806,"x_min":150,"x_max":835,"o":"m 663 808 q 426 835 532 808 q 414 757 421 804 q 396 646 407 710 l 374 508 q 518 501 431 501 l 621 526 l 622 493 q 590 416 622 443 q 496 389 557 389 q 357 408 433 389 q 322 122 322 181 q 324 104 322 110 l 601 104 q 753 140 685 114 q 765 79 765 99 q 715 -7 765 21 q 554 -35 664 -35 q 356 -4 451 -35 q 249 -36 304 -36 q 174 -10 197 -36 q 150 76 150 17 q 172 318 150 156 q 257 865 194 481 l 214 950 q 379 1008 307 1008 q 440 944 436 1008 q 603 958 532 947 q 794 993 674 969 l 828 1000 q 835 942 835 976 q 785 841 835 874 q 663 808 736 808 m 707 1119 q 611 1149 682 1119 q 477 1195 533 1179 q 356 1211 421 1211 q 343 1286 343 1240 q 418 1371 343 1371 q 480 1356 451 1371 q 557 1304 508 1340 q 653 1241 607 1268 q 758 1190 699 1214 q 707 1119 746 1119 z "},"Ẻ":{"ha":806,"x_min":150,"x_max":835,"o":"m 663 808 q 426 835 532 808 q 414 757 421 804 q 396 646 407 710 l 374 508 q 518 501 431 501 l 621 526 l 622 493 q 590 416 622 443 q 496 389 557 389 q 357 408 433 389 q 322 122 322 181 q 324 104 322 110 l 601 104 q 753 140 685 114 q 765 79 765 99 q 715 -7 765 21 q 554 -35 664 -35 q 356 -4 451 -35 q 249 -36 304 -36 q 174 -10 197 -36 q 150 76 150 17 q 172 318 150 156 q 257 865 194 481 l 214 950 q 379 1008 307 1008 q 440 944 436 1008 q 603 958 532 947 q 794 993 674 969 l 828 1000 q 835 942 835 976 q 785 841 835 874 q 663 808 736 808 m 457 1074 q 598 1169 553 1121 q 643 1271 643 1218 q 622 1335 643 1313 q 558 1358 600 1358 q 488 1341 521 1358 q 414 1283 456 1324 q 484 1410 426 1360 q 615 1461 542 1461 q 731 1423 689 1461 q 774 1319 774 1385 q 694 1155 774 1222 q 461 1056 614 1088 l 457 1074 z "},"Ē":{"ha":806,"x_min":150,"x_max":835,"o":"m 663 808 q 426 835 532 808 q 414 757 421 804 q 396 646 407 710 l 374 508 q 518 501 431 501 l 621 526 l 622 493 q 590 416 622 443 q 496 389 557 389 q 357 408 433 389 q 322 122 322 181 q 324 104 322 110 l 601 104 q 753 140 685 114 q 765 79 765 99 q 715 -7 765 21 q 554 -35 664 -35 q 356 -4 451 -35 q 249 -36 304 -36 q 174 -10 197 -36 q 150 76 150 17 q 172 318 150 156 q 257 865 194 481 l 214 950 q 379 1008 307 1008 q 440 944 436 1008 q 603 958 532 947 q 794 993 674 969 l 828 1000 q 835 942 835 976 q 785 841 835 874 q 663 808 736 808 m 406 1164 q 346 1229 346 1164 q 356 1283 346 1250 q 378 1336 367 1315 q 419 1324 393 1329 q 465 1319 444 1319 q 589 1325 506 1319 q 722 1331 675 1331 q 794 1315 771 1331 q 818 1265 818 1299 q 800 1181 818 1226 q 763 1190 789 1186 q 710 1193 736 1193 q 554 1178 651 1193 q 406 1164 451 1164 z "},"Ę":{"ha":806,"x_min":150,"x_max":835,"o":"m 663 808 q 426 835 532 808 q 414 757 421 804 q 396 646 407 710 l 374 508 q 518 501 431 501 l 621 526 l 622 493 q 590 416 622 443 q 496 389 557 389 q 357 408 433 389 q 322 122 322 181 q 324 104 322 110 l 601 104 q 753 140 685 114 q 765 79 765 99 q 671 -24 765 1 q 555 -117 592 -69 q 518 -218 518 -165 q 544 -283 518 -260 q 619 -306 571 -306 q 681 -294 651 -306 q 747 -258 711 -283 q 676 -373 735 -326 q 546 -419 618 -419 q 430 -379 472 -419 q 388 -269 388 -339 q 429 -134 388 -193 q 553 -35 471 -75 q 356 -4 451 -35 q 249 -36 304 -36 q 174 -10 197 -36 q 150 76 150 17 q 172 318 150 156 q 257 865 194 481 l 214 950 q 379 1008 307 1008 q 440 944 436 1008 q 603 958 532 947 q 794 993 674 969 l 828 1000 q 835 942 835 976 q 785 841 835 874 q 663 808 736 808 z "},"Ẽ":{"ha":806,"x_min":150,"x_max":835,"o":"m 663 808 q 426 835 532 808 q 414 757 421 804 q 396 646 407 710 l 374 508 q 518 501 431 501 l 621 526 l 622 493 q 590 416 622 443 q 496 389 557 389 q 357 408 433 389 q 322 122 322 181 q 324 104 322 110 l 601 104 q 753 140 685 114 q 765 79 765 99 q 715 -7 765 21 q 554 -35 664 -35 q 356 -4 451 -35 q 249 -36 304 -36 q 174 -10 197 -36 q 150 76 150 17 q 172 318 150 156 q 257 865 194 481 l 214 950 q 379 1008 307 1008 q 440 944 436 1008 q 603 958 532 947 q 794 993 674 969 l 828 1000 q 835 942 835 976 q 785 841 835 874 q 663 808 736 808 m 403 1149 q 344 1164 360 1149 q 328 1215 328 1179 q 356 1319 328 1257 q 443 1301 407 1301 q 530 1311 489 1301 q 624 1339 571 1321 q 689 1358 663 1351 q 739 1365 715 1365 q 798 1350 782 1365 q 814 1299 814 1335 q 786 1193 814 1251 q 699 1211 738 1211 q 615 1202 654 1211 q 519 1175 576 1193 q 451 1155 476 1161 q 403 1149 426 1149 z "},"F":{"ha":731,"x_min":150,"x_max":821,"o":"m 814 1000 q 821 942 821 976 q 772 841 821 874 q 649 808 722 808 q 426 832 531 808 l 394 635 l 374 508 q 518 501 431 501 l 621 526 l 622 493 q 590 416 622 443 q 496 389 557 389 q 357 408 433 389 q 322 122 322 181 q 356 0 322 42 q 249 -36 300 -36 q 174 -10 197 -36 q 150 76 150 17 q 172 318 150 156 q 257 865 194 481 l 214 950 q 379 1008 307 1008 q 440 944 436 1008 q 608 960 535 949 q 814 1000 681 972 z "},"G":{"ha":1022,"x_min":71,"x_max":913,"o":"m 781 -158 q 804 -225 781 -206 q 708 -257 760 -257 q 637 -236 660 -257 q 614 -169 614 -215 q 643 14 614 -114 q 465 -42 561 -42 q 176 65 281 -42 q 71 361 71 171 q 154 690 71 542 q 379 924 238 839 q 689 1008 521 1008 q 851 976 793 1008 q 908 888 908 944 q 870 807 908 839 q 774 775 832 775 q 579 890 639 775 q 410 772 485 851 q 292 584 335 693 q 249 350 249 475 q 304 138 249 214 q 458 63 360 63 q 606 106 542 63 q 707 224 669 149 q 750 392 744 299 l 660 454 q 745 505 696 486 q 835 524 794 524 q 894 508 876 524 q 913 456 913 493 q 885 346 913 443 q 810 58 839 185 q 781 -158 781 -69 z "},"Ğ":{"ha":1022,"x_min":71,"x_max":913,"o":"m 781 -158 q 804 -225 781 -206 q 708 -257 760 -257 q 637 -236 660 -257 q 614 -169 614 -215 q 643 14 614 -114 q 465 -42 561 -42 q 176 65 281 -42 q 71 361 71 171 q 154 690 71 542 q 379 924 238 839 q 689 1008 521 1008 q 851 976 793 1008 q 908 888 908 944 q 870 807 908 839 q 774 775 832 775 q 579 890 639 775 q 410 772 485 851 q 292 584 335 693 q 249 350 249 475 q 304 138 249 214 q 458 63 360 63 q 606 106 542 63 q 707 224 669 149 q 750 392 744 299 l 660 454 q 745 505 696 486 q 835 524 794 524 q 894 508 876 524 q 913 456 913 493 q 885 346 913 443 q 810 58 839 185 q 781 -158 781 -69 m 643 1193 q 751 1244 708 1193 q 793 1378 793 1294 q 873 1351 844 1375 q 901 1282 901 1328 q 866 1191 901 1233 q 769 1123 831 1149 q 633 1097 707 1097 q 468 1138 526 1097 q 410 1240 410 1178 q 438 1316 410 1281 q 513 1364 467 1351 q 643 1193 501 1193 z "},"Ĝ":{"ha":1022,"x_min":71,"x_max":913,"o":"m 781 -158 q 804 -225 781 -206 q 708 -257 760 -257 q 637 -236 660 -257 q 614 -169 614 -215 q 643 14 614 -114 q 465 -42 561 -42 q 176 65 281 -42 q 71 361 71 171 q 154 690 71 542 q 379 924 238 839 q 689 1008 521 1008 q 851 976 793 1008 q 908 888 908 944 q 870 807 908 839 q 774 775 832 775 q 579 890 639 775 q 410 772 485 851 q 292 584 335 693 q 249 350 249 475 q 304 138 249 214 q 458 63 360 63 q 606 106 542 63 q 707 224 669 149 q 750 392 744 299 l 660 454 q 745 505 696 486 q 835 524 794 524 q 894 508 876 524 q 913 456 913 493 q 885 346 913 443 q 810 58 839 185 q 781 -158 781 -69 m 578 1367 q 634 1393 607 1385 q 706 1401 661 1401 q 774 1383 747 1401 q 803 1328 801 1365 l 808 1207 q 850 1117 810 1147 q 754 1090 801 1090 q 696 1108 717 1090 q 675 1169 675 1125 q 692 1332 675 1275 l 671 1332 q 610 1236 633 1297 q 589 1115 586 1175 q 551 1097 579 1104 q 489 1090 522 1090 q 445 1101 461 1090 q 429 1131 429 1113 q 476 1249 429 1179 q 578 1367 522 1318 z "},"Ģ":{"ha":1022,"x_min":71,"x_max":913,"o":"m 781 -158 q 804 -225 781 -206 q 708 -257 760 -257 q 637 -236 660 -257 q 614 -169 614 -215 q 643 14 614 -114 q 465 -42 561 -42 q 176 65 281 -42 q 71 361 71 171 q 154 690 71 542 q 379 924 238 839 q 689 1008 521 1008 q 851 976 793 1008 q 908 888 908 944 q 870 807 908 839 q 774 775 832 775 q 579 890 639 775 q 410 772 485 851 q 292 584 335 693 q 249 350 249 475 q 304 138 249 214 q 458 63 360 63 q 606 106 542 63 q 707 224 669 149 q 750 392 744 299 l 660 454 q 745 505 696 486 q 835 524 794 524 q 894 508 876 524 q 913 456 913 493 q 885 346 913 443 q 810 58 839 185 q 781 -158 781 -69 m 188 -247 q 240 -160 196 -197 q 336 -124 285 -124 q 409 -152 383 -124 q 435 -224 435 -181 q 353 -411 435 -328 q 140 -532 272 -494 l 129 -486 q 211 -422 176 -464 q 250 -342 246 -379 l 188 -247 z "},"Ġ":{"ha":1022,"x_min":71,"x_max":913,"o":"m 781 -158 q 804 -225 781 -206 q 708 -257 760 -257 q 637 -236 660 -257 q 614 -169 614 -215 q 643 14 614 -114 q 465 -42 561 -42 q 176 65 281 -42 q 71 361 71 171 q 154 690 71 542 q 379 924 238 839 q 689 1008 521 1008 q 851 976 793 1008 q 908 888 908 944 q 870 807 908 839 q 774 775 832 775 q 579 890 639 775 q 410 772 485 851 q 292 584 335 693 q 249 350 249 475 q 304 138 249 214 q 458 63 360 63 q 606 106 542 63 q 707 224 669 149 q 750 392 744 299 l 660 454 q 745 505 696 486 q 835 524 794 524 q 894 508 876 524 q 913 456 913 493 q 885 346 913 443 q 810 58 839 185 q 781 -158 781 -69 m 626 1125 q 563 1145 586 1125 q 539 1199 539 1165 q 572 1278 539 1247 q 657 1308 606 1308 q 721 1288 697 1308 q 744 1233 744 1268 q 712 1156 744 1186 q 626 1125 679 1125 z "},"H":{"ha":1133,"x_min":150,"x_max":1057,"o":"m 1057 935 q 1017 674 1057 915 q 958 296 976 419 q 939 122 939 172 q 972 0 939 42 q 865 -36 918 -36 q 790 -10 814 -36 q 767 76 767 17 q 801 404 767 178 l 357 404 q 322 122 322 179 q 356 0 322 42 q 249 -36 301 -36 q 174 -10 197 -36 q 150 76 150 17 q 172 321 150 157 q 257 865 194 485 l 214 950 q 379 1008 307 1008 q 440 935 440 1008 q 426 829 440 921 q 404 699 411 738 l 372 503 l 815 503 q 875 865 842 672 l 831 950 q 996 1008 924 1008 q 1057 935 1057 1008 z "},"Ħ":{"ha":1133,"x_min":119,"x_max":1140,"o":"m 1114 657 q 1017 669 1068 665 q 939 122 939 206 q 972 0 939 42 q 865 -36 918 -36 q 790 -10 814 -36 q 767 76 767 17 q 801 404 767 178 l 357 404 q 322 122 322 179 q 356 0 322 42 q 249 -36 301 -36 q 174 -10 197 -36 q 150 76 150 17 q 165 266 150 144 q 219 638 181 388 q 141 656 163 642 q 119 704 119 671 q 149 779 119 742 q 242 768 179 774 l 257 865 l 214 950 q 379 1008 307 1008 q 440 935 440 1008 q 415 765 440 911 q 535 772 467 767 q 635 781 604 778 q 864 797 783 794 q 875 865 867 815 l 831 950 q 996 1008 924 1008 q 1057 935 1057 1008 q 1038 799 1057 922 q 1118 780 1096 794 q 1140 733 1140 765 q 1114 657 1140 692 m 815 503 l 843 671 q 723 664 792 669 q 624 656 654 658 q 394 639 475 642 q 372 503 379 540 l 815 503 z "},"Ĥ":{"ha":1133,"x_min":150,"x_max":1057,"o":"m 1057 935 q 1017 674 1057 915 q 958 296 976 419 q 939 122 939 172 q 972 0 939 42 q 865 -36 918 -36 q 790 -10 814 -36 q 767 76 767 17 q 801 404 767 178 l 357 404 q 322 122 322 179 q 356 0 322 42 q 249 -36 301 -36 q 174 -10 197 -36 q 150 76 150 17 q 172 321 150 157 q 257 865 194 485 l 214 950 q 379 1008 307 1008 q 440 935 440 1008 q 426 829 440 921 q 404 699 411 738 l 372 503 l 815 503 q 875 865 842 672 l 831 950 q 996 1008 924 1008 q 1057 935 1057 1008 m 653 1386 q 709 1413 682 1404 q 781 1421 736 1421 q 849 1403 822 1421 q 878 1347 876 1385 l 883 1226 q 925 1136 885 1167 q 829 1110 876 1110 q 771 1127 792 1110 q 750 1189 750 1144 q 767 1351 750 1294 l 746 1351 q 685 1256 708 1317 q 664 1135 661 1194 q 626 1117 654 1124 q 564 1110 597 1110 q 520 1121 536 1110 q 504 1150 504 1132 q 551 1268 504 1199 q 653 1386 597 1338 z "},"I":{"ha":517,"x_min":150,"x_max":440,"o":"m 150 78 q 172 322 150 158 q 257 865 194 486 l 214 950 q 379 1008 307 1008 q 440 935 440 1008 q 400 674 440 915 q 372 497 394 640 q 335 256 349 353 q 322 124 322 160 q 356 1 322 43 q 249 -35 301 -35 q 174 -8 197 -35 q 150 78 150 18 z "},"Ĳ":{"ha":1267,"x_min":150,"x_max":1256,"o":"m 150 78 q 172 322 150 158 q 257 865 194 486 l 214 950 q 379 1008 307 1008 q 440 935 440 1008 q 400 674 440 915 q 372 497 394 640 q 335 256 349 353 q 322 124 322 160 q 356 1 322 43 q 249 -35 301 -35 q 174 -8 197 -35 q 150 78 150 18 m 1256 918 q 1199 818 1256 850 l 1136 376 q 1008 62 1104 158 q 728 -35 913 -35 q 591 -1 649 -35 q 533 96 533 33 q 561 162 533 135 q 636 189 589 189 q 783 57 733 189 q 874 98 839 67 q 931 195 908 129 q 969 376 954 261 l 1026 783 l 1000 783 q 723 816 806 783 q 640 924 640 849 q 646 974 640 949 q 661 1017 651 1000 q 853 942 747 972 q 1039 907 958 911 q 1086 982 1054 956 q 1161 1008 1118 1008 q 1231 985 1206 1008 q 1256 918 1256 961 z "},"Í":{"ha":517,"x_min":150,"x_max":615,"o":"m 150 78 q 172 322 150 158 q 257 865 194 486 l 214 950 q 379 1008 307 1008 q 440 935 440 1008 q 400 674 440 915 q 372 497 394 640 q 335 256 349 353 q 322 124 322 160 q 356 1 322 43 q 249 -35 301 -35 q 174 -8 197 -35 q 150 78 150 18 m 251 1119 q 200 1190 213 1119 q 306 1241 260 1214 q 401 1304 351 1268 q 478 1356 450 1340 q 540 1371 507 1371 q 615 1286 615 1371 q 603 1211 615 1240 q 481 1195 538 1211 q 347 1149 425 1179 q 251 1119 276 1119 z "},"Ĭ":{"ha":517,"x_min":150,"x_max":669,"o":"m 150 78 q 172 322 150 158 q 257 865 194 486 l 214 950 q 379 1008 307 1008 q 440 935 440 1008 q 400 674 440 915 q 372 497 394 640 q 335 256 349 353 q 322 124 322 160 q 356 1 322 43 q 249 -35 301 -35 q 174 -8 197 -35 q 150 78 150 18 m 411 1213 q 519 1263 476 1213 q 561 1397 561 1314 q 641 1371 613 1394 q 669 1301 669 1347 q 634 1210 669 1253 q 537 1142 599 1168 q 401 1117 475 1117 q 236 1157 294 1117 q 178 1260 178 1197 q 206 1335 178 1300 q 281 1383 235 1371 q 411 1213 269 1213 z "},"Î":{"ha":517,"x_min":150,"x_max":618,"o":"m 150 78 q 172 322 150 158 q 257 865 194 486 l 214 950 q 379 1008 307 1008 q 440 935 440 1008 q 400 674 440 915 q 372 497 394 640 q 335 256 349 353 q 322 124 322 160 q 356 1 322 43 q 249 -35 301 -35 q 174 -8 197 -35 q 150 78 150 18 m 346 1386 q 402 1413 375 1404 q 474 1421 429 1421 q 542 1403 515 1421 q 571 1347 569 1385 l 576 1226 q 618 1136 578 1167 q 522 1110 569 1110 q 464 1127 485 1110 q 443 1189 443 1144 q 460 1351 443 1294 l 439 1351 q 378 1256 401 1317 q 357 1135 354 1194 q 319 1117 347 1124 q 257 1110 290 1110 q 213 1121 229 1110 q 197 1150 197 1132 q 244 1268 197 1199 q 346 1386 290 1338 z "},"Ï":{"ha":517,"x_min":110,"x_max":678,"o":"m 150 78 q 172 322 150 158 q 257 865 194 486 l 214 950 q 379 1008 307 1008 q 440 935 440 1008 q 400 674 440 915 q 372 497 394 640 q 335 256 349 353 q 322 124 322 160 q 356 1 322 43 q 249 -35 301 -35 q 174 -8 197 -35 q 150 78 150 18 m 197 1139 q 133 1160 157 1139 q 110 1218 110 1182 q 142 1291 110 1260 q 224 1322 175 1322 q 290 1301 265 1322 q 315 1244 315 1279 q 282 1169 315 1200 q 197 1139 249 1139 m 564 1139 q 497 1160 522 1139 q 472 1218 472 1182 q 506 1291 472 1260 q 589 1322 539 1322 q 653 1301 629 1322 q 678 1244 678 1279 q 645 1169 678 1200 q 564 1139 613 1139 z "},"İ":{"ha":517,"x_min":150,"x_max":513,"o":"m 150 78 q 172 322 150 158 q 257 865 194 486 l 214 950 q 379 1008 307 1008 q 440 935 440 1008 q 400 674 440 915 q 372 497 394 640 q 335 256 349 353 q 322 124 322 160 q 356 1 322 43 q 249 -35 301 -35 q 174 -8 197 -35 q 150 78 150 18 m 394 1144 q 331 1165 354 1144 q 307 1218 307 1185 q 340 1297 307 1267 q 425 1328 374 1328 q 489 1308 465 1328 q 513 1253 513 1288 q 480 1175 513 1206 q 394 1144 447 1144 z "},"Ị":{"ha":517,"x_min":92,"x_max":440,"o":"m 150 78 q 172 322 150 158 q 257 865 194 486 l 214 950 q 379 1008 307 1008 q 440 935 440 1008 q 400 674 440 915 q 372 497 394 640 q 335 256 349 353 q 322 124 322 160 q 356 1 322 43 q 249 -35 301 -35 q 174 -8 197 -35 q 150 78 150 18 m 178 -307 q 115 -287 139 -307 q 92 -233 92 -267 q 124 -154 92 -185 q 210 -124 157 -124 q 273 -144 249 -124 q 297 -199 297 -165 q 264 -277 297 -247 q 178 -307 231 -307 z "},"Ì":{"ha":517,"x_min":150,"x_max":569,"o":"m 150 78 q 172 322 150 158 q 257 865 194 486 l 214 950 q 379 1008 307 1008 q 440 935 440 1008 q 400 674 440 915 q 372 497 394 640 q 335 256 349 353 q 322 124 322 160 q 356 1 322 43 q 249 -35 301 -35 q 174 -8 197 -35 q 150 78 150 18 m 518 1119 q 422 1149 493 1119 q 288 1195 344 1179 q 167 1211 232 1211 q 154 1286 154 1240 q 229 1371 154 1371 q 291 1356 263 1371 q 368 1304 319 1340 q 464 1241 418 1268 q 569 1190 510 1214 q 518 1119 557 1119 z "},"Ỉ":{"ha":517,"x_min":150,"x_max":585,"o":"m 150 78 q 172 322 150 158 q 257 865 194 486 l 214 950 q 379 1008 307 1008 q 440 935 440 1008 q 400 674 440 915 q 372 497 394 640 q 335 256 349 353 q 322 124 322 160 q 356 1 322 43 q 249 -35 301 -35 q 174 -8 197 -35 q 150 78 150 18 m 268 1074 q 409 1169 364 1121 q 454 1271 454 1218 q 433 1335 454 1313 q 369 1358 411 1358 q 299 1341 332 1358 q 225 1283 267 1324 q 295 1410 238 1360 q 426 1461 353 1461 q 542 1423 500 1461 q 585 1319 585 1385 q 505 1155 585 1222 q 272 1056 425 1088 l 268 1074 z "},"Ī":{"ha":517,"x_min":150,"x_max":629,"o":"m 150 78 q 172 322 150 158 q 257 865 194 486 l 214 950 q 379 1008 307 1008 q 440 935 440 1008 q 400 674 440 915 q 372 497 394 640 q 335 256 349 353 q 322 124 322 160 q 356 1 322 43 q 249 -35 301 -35 q 174 -8 197 -35 q 150 78 150 18 m 217 1164 q 157 1229 157 1164 q 167 1283 157 1250 q 189 1336 178 1315 q 230 1324 204 1329 q 276 1319 256 1319 q 400 1325 317 1319 q 533 1331 486 1331 q 606 1315 582 1331 q 629 1265 629 1299 q 611 1181 629 1226 q 574 1190 600 1186 q 521 1193 547 1193 q 365 1178 463 1193 q 217 1164 263 1164 z "},"Į":{"ha":517,"x_min":4,"x_max":440,"o":"m 135 -231 q 161 -295 135 -272 q 236 -318 188 -318 q 298 -307 268 -318 q 364 -271 328 -296 q 293 -385 351 -339 q 163 -432 235 -432 q 47 -392 89 -432 q 4 -282 4 -351 q 56 -133 4 -197 q 210 -31 108 -69 q 165 5 179 -21 q 150 78 150 31 q 172 322 150 158 q 257 865 194 486 l 214 950 q 379 1008 307 1008 q 440 935 440 1008 q 400 674 440 915 q 372 497 394 640 q 335 256 349 353 q 322 124 322 160 q 356 1 322 43 q 308 -24 329 -15 q 177 -125 219 -75 q 135 -231 135 -175 z "},"Ĩ":{"ha":517,"x_min":139,"x_max":625,"o":"m 150 78 q 172 322 150 158 q 257 865 194 486 l 214 950 q 379 1008 307 1008 q 440 935 440 1008 q 400 674 440 915 q 372 497 394 640 q 335 256 349 353 q 322 124 322 160 q 356 1 322 43 q 249 -35 301 -35 q 174 -8 197 -35 q 150 78 150 18 m 214 1149 q 155 1164 171 1149 q 139 1215 139 1179 q 167 1319 139 1257 q 254 1301 218 1301 q 341 1311 300 1301 q 435 1339 382 1321 q 500 1358 474 1351 q 550 1365 526 1365 q 609 1350 593 1365 q 625 1299 625 1335 q 597 1193 625 1251 q 510 1211 549 1211 q 426 1202 465 1211 q 331 1175 388 1193 q 263 1155 288 1161 q 214 1149 238 1149 z "},"J":{"ha":750,"x_min":17,"x_max":739,"o":"m 739 918 q 682 818 739 850 l 619 376 q 492 62 588 158 q 211 -35 396 -35 q 74 -1 132 -35 q 17 96 17 33 q 44 162 17 135 q 119 189 72 189 q 267 57 217 189 q 357 98 322 67 q 415 195 392 129 q 453 376 438 261 l 510 783 l 483 783 q 206 816 289 783 q 124 924 124 849 q 129 974 124 949 q 144 1017 135 1000 q 336 942 231 972 q 522 907 442 911 q 569 982 538 956 q 644 1008 601 1008 q 714 985 689 1008 q 739 918 739 961 z "},"Ĵ":{"ha":750,"x_min":17,"x_max":739,"o":"m 739 918 q 682 818 739 850 l 619 376 q 492 62 588 158 q 211 -35 396 -35 q 74 -1 132 -35 q 17 96 17 33 q 44 162 17 135 q 119 189 72 189 q 267 57 217 189 q 357 98 322 67 q 415 195 392 129 q 453 376 438 261 l 510 783 l 483 783 q 206 816 289 783 q 124 924 124 849 q 129 974 124 949 q 144 1017 135 1000 q 336 942 231 972 q 522 907 442 911 q 569 982 538 956 q 644 1008 601 1008 q 714 985 689 1008 q 739 918 739 961 m 447 1386 q 503 1413 476 1404 q 575 1421 531 1421 q 644 1403 617 1421 q 672 1347 671 1385 l 678 1226 q 719 1136 679 1167 q 624 1110 671 1110 q 565 1127 586 1110 q 544 1189 544 1144 q 561 1351 544 1294 l 540 1351 q 479 1256 503 1317 q 458 1135 456 1194 q 420 1117 449 1124 q 358 1110 392 1110 q 315 1121 331 1110 q 299 1150 299 1132 q 345 1268 299 1199 q 447 1386 392 1338 z "},"K":{"ha":956,"x_min":150,"x_max":939,"o":"m 625 557 q 781 217 697 369 q 925 11 864 64 q 873 -21 908 -7 q 808 -35 838 -35 q 736 -16 765 -35 q 677 52 707 3 q 603 203 647 101 l 486 464 l 353 376 q 322 122 322 183 q 356 0 322 42 q 249 -36 300 -36 q 174 -10 197 -36 q 150 76 150 17 q 172 323 150 157 q 257 865 194 489 l 214 950 q 379 1008 311 1008 q 440 935 440 1008 q 394 635 440 910 l 369 485 l 418 521 q 622 688 549 618 q 728 814 696 757 q 760 929 760 871 q 749 976 760 950 q 795 999 769 990 q 844 1007 821 1007 q 913 981 886 1007 q 939 913 939 954 q 866 753 939 835 q 625 557 793 671 z "},"Ķ":{"ha":956,"x_min":150,"x_max":939,"o":"m 625 557 q 781 217 697 369 q 925 11 864 64 q 873 -21 908 -7 q 808 -35 838 -35 q 736 -16 765 -35 q 677 52 707 3 q 603 203 647 101 l 486 464 l 353 376 q 322 122 322 183 q 356 0 322 42 q 249 -36 300 -36 q 174 -10 197 -36 q 150 76 150 17 q 172 323 150 157 q 257 865 194 489 l 214 950 q 379 1008 311 1008 q 440 935 440 1008 q 394 635 440 910 l 369 485 l 418 521 q 622 688 549 618 q 728 814 696 757 q 760 929 760 871 q 749 976 760 950 q 795 999 769 990 q 844 1007 821 1007 q 913 981 886 1007 q 939 913 939 954 q 866 753 939 835 q 625 557 793 671 m 332 -247 q 385 -160 340 -197 q 481 -124 429 -124 q 553 -152 528 -124 q 579 -224 579 -181 q 498 -411 579 -328 q 285 -532 417 -494 l 274 -486 q 356 -422 321 -464 q 394 -342 390 -379 l 332 -247 z "},"L":{"ha":754,"x_min":150,"x_max":707,"o":"m 694 140 q 707 79 707 103 q 660 -7 707 21 q 513 -35 613 -35 q 342 -12 426 -35 q 249 -36 292 -36 q 174 -10 197 -36 q 150 76 150 17 q 172 324 150 158 q 257 865 194 490 l 214 950 q 379 1008 307 1008 q 440 935 440 1008 q 400 674 440 915 q 341 296 360 419 q 322 122 322 172 q 324 104 322 110 l 543 104 q 694 140 626 114 z "},"Ĺ":{"ha":754,"x_min":150,"x_max":707,"o":"m 694 140 q 707 79 707 103 q 660 -7 707 21 q 513 -35 613 -35 q 342 -12 426 -35 q 249 -36 292 -36 q 174 -10 197 -36 q 150 76 150 17 q 172 324 150 158 q 257 865 194 490 l 214 950 q 379 1008 307 1008 q 440 935 440 1008 q 400 674 440 915 q 341 296 360 419 q 322 122 322 172 q 324 104 322 110 l 543 104 q 694 140 626 114 m 224 1119 q 172 1190 185 1119 q 278 1241 232 1214 q 374 1304 324 1268 q 451 1356 422 1340 q 513 1371 479 1371 q 588 1286 588 1371 q 575 1211 588 1240 q 453 1195 510 1211 q 319 1149 397 1179 q 224 1119 249 1119 z "},"Ľ":{"ha":754,"x_min":150,"x_max":863,"o":"m 694 140 q 707 79 707 103 q 660 -7 707 21 q 513 -35 613 -35 q 342 -12 426 -35 q 249 -36 292 -36 q 174 -10 197 -36 q 150 76 150 17 q 172 324 150 158 q 257 865 194 490 l 214 950 q 379 1008 307 1008 q 440 935 440 1008 q 400 674 440 915 q 341 296 360 419 q 322 122 322 172 q 324 104 322 110 l 543 104 q 694 140 626 114 m 626 1096 q 667 1180 629 1144 q 756 1215 706 1215 q 833 1181 804 1215 q 863 1100 863 1147 q 794 903 863 988 q 606 779 726 819 l 585 831 q 666 908 635 857 q 697 1006 697 960 l 626 1096 z "},"Ļ":{"ha":754,"x_min":150,"x_max":707,"o":"m 694 140 q 707 79 707 103 q 660 -7 707 21 q 513 -35 613 -35 q 342 -12 426 -35 q 249 -36 292 -36 q 174 -10 197 -36 q 150 76 150 17 q 172 324 150 158 q 257 865 194 490 l 214 950 q 379 1008 307 1008 q 440 935 440 1008 q 400 674 440 915 q 341 296 360 419 q 322 122 322 172 q 324 104 322 110 l 543 104 q 694 140 626 114 m 257 -247 q 310 -160 265 -197 q 406 -124 354 -124 q 478 -152 453 -124 q 504 -224 504 -181 q 423 -411 504 -328 q 210 -532 342 -494 l 199 -486 q 281 -422 246 -464 q 319 -342 315 -379 l 257 -247 z "},"Ŀ":{"ha":754,"x_min":150,"x_max":707,"o":"m 694 140 q 707 79 707 103 q 660 -7 707 21 q 513 -35 613 -35 q 342 -12 426 -35 q 249 -36 292 -36 q 174 -10 197 -36 q 150 76 150 17 q 172 324 150 158 q 257 865 194 490 l 214 950 q 379 1008 307 1008 q 440 935 440 1008 q 400 674 440 915 q 341 296 360 419 q 322 122 322 172 q 324 104 322 110 l 543 104 q 694 140 626 114 m 578 432 q 508 460 536 432 q 479 528 479 488 q 512 610 479 576 q 594 644 544 644 q 665 617 638 644 q 693 549 693 589 q 659 467 693 503 q 578 432 625 432 z "},"Ł":{"ha":754,"x_min":150,"x_max":707,"o":"m 694 140 q 707 79 707 103 q 660 -7 707 21 q 513 -35 613 -35 q 342 -12 426 -35 q 249 -36 292 -36 q 174 -10 197 -36 q 150 76 150 17 q 172 324 150 158 q 257 865 194 490 l 214 950 q 379 1008 307 1008 q 440 935 440 1008 q 400 674 440 915 q 341 296 360 419 q 322 122 322 172 q 324 104 322 110 l 543 104 q 694 140 626 114 z "},"M":{"ha":1432,"x_min":153,"x_max":1351,"o":"m 251 -36 q 176 -11 200 -36 q 153 71 153 14 q 174 312 153 150 q 257 865 194 474 l 214 950 q 301 994 258 979 q 376 1008 343 1008 q 500 957 458 1008 q 576 774 542 906 q 681 288 610 642 l 693 226 l 708 226 q 852 600 756 418 q 1067 895 949 782 q 1297 1008 1186 1008 q 1351 939 1351 1008 q 1335 819 1351 922 q 1313 674 1319 717 q 1256 302 1275 439 q 1236 114 1236 165 q 1269 -3 1236 42 q 1163 -39 1214 -39 q 1090 -13 1113 -39 q 1067 69 1067 13 q 1086 309 1067 151 q 1161 801 1106 467 l 1153 801 q 988 592 1061 722 q 869 328 915 461 q 810 104 824 194 q 754 69 785 82 q 694 57 724 57 q 602 100 633 57 q 539 273 571 143 q 432 774 507 403 l 426 801 l 418 801 l 404 708 q 344 313 364 454 q 324 117 324 172 q 357 0 324 39 q 251 -36 304 -36 z "},"N":{"ha":1172,"x_min":150,"x_max":1096,"o":"m 1096 935 q 1079 817 1096 919 q 1057 675 1063 714 q 999 314 1021 456 q 978 121 978 172 q 1011 -1 978 43 q 904 -37 954 -37 l 900 -37 q 747 22 804 -36 q 626 254 690 81 q 438 844 561 428 l 428 844 l 396 650 q 322 122 322 199 q 356 0 322 42 q 249 -36 301 -36 q 174 -10 197 -36 q 150 76 150 17 q 172 321 150 157 q 257 865 194 485 l 214 950 q 378 1008 307 1008 l 379 1008 l 379 1008 l 381 1008 q 508 949 457 1007 q 621 722 558 892 q 800 161 683 551 l 810 161 q 840 405 817 247 q 914 865 864 563 l 867 950 q 1035 1008 961 1008 q 1096 935 1096 1008 z "},"Ń":{"ha":1172,"x_min":150,"x_max":1096,"o":"m 1096 935 q 1079 817 1096 919 q 1057 675 1063 714 q 999 314 1021 456 q 978 121 978 172 q 1011 -1 978 43 q 904 -37 954 -37 l 900 -37 q 747 22 804 -36 q 626 254 690 81 q 438 844 561 428 l 428 844 l 396 650 q 322 122 322 199 q 356 0 322 42 q 249 -36 301 -36 q 174 -10 197 -36 q 150 76 150 17 q 172 321 150 157 q 257 865 194 485 l 214 950 q 378 1008 307 1008 l 379 1008 l 379 1008 l 381 1008 q 508 949 457 1007 q 621 722 558 892 q 800 161 683 551 l 810 161 q 840 405 817 247 q 914 865 864 563 l 867 950 q 1035 1008 961 1008 q 1096 935 1096 1008 m 579 1119 q 528 1190 540 1119 q 633 1241 588 1214 q 729 1304 679 1268 q 806 1356 778 1340 q 868 1371 835 1371 q 943 1286 943 1371 q 931 1211 943 1240 q 809 1195 865 1211 q 675 1149 753 1179 q 579 1119 604 1119 z "},"Ň":{"ha":1172,"x_min":150,"x_max":1096,"o":"m 1096 935 q 1079 817 1096 919 q 1057 675 1063 714 q 999 314 1021 456 q 978 121 978 172 q 1011 -1 978 43 q 904 -37 954 -37 l 900 -37 q 747 22 804 -36 q 626 254 690 81 q 438 844 561 428 l 428 844 l 396 650 q 322 122 322 199 q 356 0 322 42 q 249 -36 301 -36 q 174 -10 197 -36 q 150 76 150 17 q 172 321 150 157 q 257 865 194 485 l 214 950 q 378 1008 307 1008 l 379 1008 l 379 1008 l 381 1008 q 508 949 457 1007 q 621 722 558 892 q 800 161 683 551 l 810 161 q 840 405 817 247 q 914 865 864 563 l 867 950 q 1035 1008 961 1008 q 1096 935 1096 1008 m 793 1144 q 737 1118 763 1126 q 667 1110 711 1110 q 597 1128 624 1110 q 567 1183 569 1146 l 563 1304 q 521 1394 561 1364 q 617 1421 567 1421 q 676 1403 656 1421 q 696 1342 696 1386 q 679 1179 696 1244 l 700 1179 q 760 1275 736 1214 q 783 1396 785 1336 q 820 1414 792 1407 q 881 1421 849 1421 q 925 1410 910 1421 q 940 1381 940 1399 q 894 1261 940 1331 q 793 1144 849 1192 z "},"Ņ":{"ha":1172,"x_min":150,"x_max":1096,"o":"m 1096 935 q 1079 817 1096 919 q 1057 675 1063 714 q 999 314 1021 456 q 978 121 978 172 q 1011 -1 978 43 q 904 -37 954 -37 l 900 -37 q 747 22 804 -36 q 626 254 690 81 q 438 844 561 428 l 428 844 l 396 650 q 322 122 322 199 q 356 0 322 42 q 249 -36 301 -36 q 174 -10 197 -36 q 150 76 150 17 q 172 321 150 157 q 257 865 194 485 l 214 950 q 378 1008 307 1008 l 379 1008 l 379 1008 l 381 1008 q 508 949 457 1007 q 621 722 558 892 q 800 161 683 551 l 810 161 q 840 405 817 247 q 914 865 864 563 l 867 950 q 1035 1008 961 1008 q 1096 935 1096 1008 m 397 -247 q 450 -160 406 -197 q 546 -124 494 -124 q 619 -152 593 -124 q 644 -224 644 -181 q 563 -411 644 -328 q 350 -532 482 -494 l 339 -486 q 421 -422 386 -464 q 460 -342 456 -379 l 397 -247 z "},"Ŋ":{"ha":1156,"x_min":150,"x_max":1097,"o":"m 1035 1008 q 1097 935 1097 1008 q 1051 633 1097 911 l 1001 321 q 910 -47 967 96 q 762 -262 853 -190 q 538 -333 671 -333 q 434 -302 478 -333 q 390 -225 390 -271 q 623 -173 538 -225 q 760 6 708 -121 q 672 135 715 44 q 577 385 629 225 q 438 844 525 546 l 428 844 l 396 650 q 322 122 322 199 q 356 0 322 42 q 249 -36 301 -36 q 174 -10 197 -36 q 150 76 150 17 q 172 321 150 157 q 257 865 194 485 l 214 950 q 378 1008 307 1008 l 379 1008 l 379 1008 l 381 1008 q 506 949 457 1007 q 615 724 556 892 q 792 161 675 556 l 806 161 q 842 354 822 232 l 914 865 l 868 950 q 1035 1008 963 1008 z "},"Ñ":{"ha":1172,"x_min":150,"x_max":1096,"o":"m 1096 935 q 1079 817 1096 919 q 1057 675 1063 714 q 999 314 1021 456 q 978 121 978 172 q 1011 -1 978 43 q 904 -37 954 -37 l 900 -37 q 747 22 804 -36 q 626 254 690 81 q 438 844 561 428 l 428 844 l 396 650 q 322 122 322 199 q 356 0 322 42 q 249 -36 301 -36 q 174 -10 197 -36 q 150 76 150 17 q 172 321 150 157 q 257 865 194 485 l 214 950 q 378 1008 307 1008 l 379 1008 l 379 1008 l 381 1008 q 508 949 457 1007 q 621 722 558 892 q 800 161 683 551 l 810 161 q 840 405 817 247 q 914 865 864 563 l 867 950 q 1035 1008 961 1008 q 1096 935 1096 1008 m 542 1149 q 483 1164 499 1149 q 467 1215 467 1179 q 494 1319 467 1257 q 582 1301 546 1301 q 669 1311 628 1301 q 763 1339 710 1321 q 828 1358 801 1351 q 878 1365 854 1365 q 937 1350 921 1365 q 953 1299 953 1335 q 925 1193 953 1251 q 838 1211 876 1211 q 754 1202 793 1211 q 658 1175 715 1193 q 590 1155 615 1161 q 542 1149 565 1149 z "},"O":{"ha":1033,"x_min":75,"x_max":999,"o":"m 865 467 q 711 692 711 535 q 750 805 711 760 q 847 850 789 850 q 958 787 918 850 q 999 613 999 724 q 930 284 999 432 q 740 51 861 136 q 467 -35 618 -35 q 260 17 349 -35 q 124 166 172 69 q 75 390 75 263 q 147 715 75 575 q 340 931 219 856 q 604 1007 461 1007 q 707 987 674 1007 q 740 924 740 967 q 729 871 740 897 q 688 878 711 875 q 647 882 664 882 q 448 821 538 882 q 306 649 358 760 q 254 396 254 539 q 322 147 254 232 q 504 63 389 63 q 659 113 581 63 q 794 256 738 164 q 865 467 850 349 z "},"Ó":{"ha":1033,"x_min":75,"x_max":999,"o":"m 865 467 q 711 692 711 535 q 750 805 711 760 q 847 850 789 850 q 958 787 918 850 q 999 613 999 724 q 930 284 999 432 q 740 51 861 136 q 467 -35 618 -35 q 260 17 349 -35 q 124 166 172 69 q 75 390 75 263 q 147 715 75 575 q 340 931 219 856 q 604 1007 461 1007 q 707 987 674 1007 q 740 924 740 967 q 729 871 740 897 q 688 878 711 875 q 647 882 664 882 q 448 821 538 882 q 306 649 358 760 q 254 396 254 539 q 322 147 254 232 q 504 63 389 63 q 659 113 581 63 q 794 256 738 164 q 865 467 850 349 m 556 1119 q 504 1190 517 1119 q 610 1241 564 1214 q 706 1304 656 1268 q 783 1356 754 1340 q 844 1371 811 1371 q 919 1286 919 1371 q 907 1211 919 1240 q 785 1195 842 1211 q 651 1149 729 1179 q 556 1119 581 1119 z "},"Ŏ":{"ha":1033,"x_min":75,"x_max":999,"o":"m 865 467 q 711 692 711 535 q 750 805 711 760 q 847 850 789 850 q 958 787 918 850 q 999 613 999 724 q 930 284 999 432 q 740 51 861 136 q 467 -35 618 -35 q 260 17 349 -35 q 124 166 172 69 q 75 390 75 263 q 147 715 75 575 q 340 931 219 856 q 604 1007 461 1007 q 707 987 674 1007 q 740 924 740 967 q 729 871 740 897 q 688 878 711 875 q 647 882 664 882 q 448 821 538 882 q 306 649 358 760 q 254 396 254 539 q 322 147 254 232 q 504 63 389 63 q 659 113 581 63 q 794 256 738 164 q 865 467 850 349 m 715 1213 q 823 1263 781 1213 q 865 1397 865 1314 q 945 1371 917 1394 q 974 1301 974 1347 q 938 1210 974 1253 q 841 1142 903 1168 q 706 1117 779 1117 q 540 1157 599 1117 q 482 1260 482 1197 q 510 1335 482 1300 q 585 1383 539 1371 q 715 1213 574 1213 z "},"Ô":{"ha":1033,"x_min":75,"x_max":999,"o":"m 865 467 q 711 692 711 535 q 750 805 711 760 q 847 850 789 850 q 958 787 918 850 q 999 613 999 724 q 930 284 999 432 q 740 51 861 136 q 467 -35 618 -35 q 260 17 349 -35 q 124 166 172 69 q 75 390 75 263 q 147 715 75 575 q 340 931 219 856 q 604 1007 461 1007 q 707 987 674 1007 q 740 924 740 967 q 729 871 740 897 q 688 878 711 875 q 647 882 664 882 q 448 821 538 882 q 306 649 358 760 q 254 396 254 539 q 322 147 254 232 q 504 63 389 63 q 659 113 581 63 q 794 256 738 164 q 865 467 850 349 m 650 1386 q 706 1413 679 1404 q 778 1421 733 1421 q 847 1403 819 1421 q 875 1347 874 1385 l 881 1226 q 922 1136 882 1167 q 826 1110 874 1110 q 768 1127 789 1110 q 747 1189 747 1144 q 764 1351 747 1294 l 743 1351 q 682 1256 706 1317 q 661 1135 658 1194 q 623 1117 651 1124 q 561 1110 594 1110 q 517 1121 533 1110 q 501 1150 501 1132 q 548 1268 501 1199 q 650 1386 594 1338 z "},"Ố":{"ha":1033,"x_min":75,"x_max":999,"o":"m 865 467 q 711 692 711 535 q 750 805 711 760 q 847 850 789 850 q 958 787 918 850 q 999 613 999 724 q 930 284 999 432 q 740 51 861 136 q 467 -35 618 -35 q 260 17 349 -35 q 124 166 172 69 q 75 390 75 263 q 147 715 75 575 q 340 931 219 856 q 604 1007 461 1007 q 707 987 674 1007 q 740 924 740 967 q 729 871 740 897 q 688 878 711 875 q 647 882 664 882 q 448 821 538 882 q 306 649 358 760 q 254 396 254 539 q 322 147 254 232 q 504 63 389 63 q 659 113 581 63 q 794 256 738 164 q 865 467 850 349 m 650 1386 q 706 1413 679 1404 q 778 1421 733 1421 q 847 1403 819 1421 q 875 1347 874 1385 l 881 1226 q 922 1136 882 1167 q 826 1110 874 1110 q 768 1127 789 1110 q 747 1189 747 1144 q 764 1351 747 1294 l 743 1351 q 682 1256 706 1317 q 661 1135 658 1194 q 623 1117 651 1124 q 561 1110 594 1110 q 517 1121 533 1110 q 501 1150 501 1132 q 548 1268 501 1199 q 650 1386 594 1338 m 635 1526 q 583 1597 596 1526 q 689 1648 643 1621 q 785 1711 735 1675 q 862 1763 833 1747 q 924 1778 890 1778 q 999 1693 999 1778 q 986 1618 999 1647 q 865 1602 921 1618 q 731 1556 808 1586 q 635 1526 660 1526 z "},"Ộ":{"ha":1033,"x_min":75,"x_max":999,"o":"m 865 467 q 711 692 711 535 q 750 805 711 760 q 847 850 789 850 q 958 787 918 850 q 999 613 999 724 q 930 284 999 432 q 740 51 861 136 q 467 -35 618 -35 q 260 17 349 -35 q 124 166 172 69 q 75 390 75 263 q 147 715 75 575 q 340 931 219 856 q 604 1007 461 1007 q 707 987 674 1007 q 740 924 740 967 q 729 871 740 897 q 688 878 711 875 q 647 882 664 882 q 448 821 538 882 q 306 649 358 760 q 254 396 254 539 q 322 147 254 232 q 504 63 389 63 q 659 113 581 63 q 794 256 738 164 q 865 467 850 349 m 443 -307 q 381 -287 404 -307 q 357 -233 357 -267 q 390 -154 357 -185 q 475 -124 422 -124 q 538 -144 514 -124 q 563 -199 563 -165 q 529 -277 563 -247 q 443 -307 496 -307 m 650 1386 q 706 1413 679 1404 q 778 1421 733 1421 q 847 1403 819 1421 q 875 1347 874 1385 l 881 1226 q 922 1136 882 1167 q 826 1110 874 1110 q 768 1127 789 1110 q 747 1189 747 1144 q 764 1351 747 1294 l 743 1351 q 682 1256 706 1317 q 661 1135 658 1194 q 623 1117 651 1124 q 561 1110 594 1110 q 517 1121 533 1110 q 501 1150 501 1132 q 548 1268 501 1199 q 650 1386 594 1338 z "},"Ồ":{"ha":1033,"x_min":75,"x_max":999,"o":"m 865 467 q 711 692 711 535 q 750 805 711 760 q 847 850 789 850 q 958 787 918 850 q 999 613 999 724 q 930 284 999 432 q 740 51 861 136 q 467 -35 618 -35 q 260 17 349 -35 q 124 166 172 69 q 75 390 75 263 q 147 715 75 575 q 340 931 219 856 q 604 1007 461 1007 q 707 987 674 1007 q 740 924 740 967 q 729 871 740 897 q 688 878 711 875 q 647 882 664 882 q 448 821 538 882 q 306 649 358 760 q 254 396 254 539 q 322 147 254 232 q 504 63 389 63 q 659 113 581 63 q 794 256 738 164 q 865 467 850 349 m 650 1386 q 706 1413 679 1404 q 778 1421 733 1421 q 847 1403 819 1421 q 875 1347 874 1385 l 881 1226 q 922 1136 882 1167 q 826 1110 874 1110 q 768 1127 789 1110 q 747 1189 747 1144 q 764 1351 747 1294 l 743 1351 q 682 1256 706 1317 q 661 1135 658 1194 q 623 1117 651 1124 q 561 1110 594 1110 q 517 1121 533 1110 q 501 1150 501 1132 q 548 1268 501 1199 q 650 1386 594 1338 m 901 1526 q 806 1556 876 1526 q 672 1602 728 1586 q 550 1618 615 1618 q 538 1693 538 1647 q 613 1778 538 1778 q 674 1763 646 1778 q 751 1711 703 1747 q 847 1648 801 1675 q 953 1597 893 1621 q 901 1526 940 1526 z "},"Ổ":{"ha":1033,"x_min":75,"x_max":999,"o":"m 865 467 q 711 692 711 535 q 750 805 711 760 q 847 850 789 850 q 958 787 918 850 q 999 613 999 724 q 930 284 999 432 q 740 51 861 136 q 467 -35 618 -35 q 260 17 349 -35 q 124 166 172 69 q 75 390 75 263 q 147 715 75 575 q 340 931 219 856 q 604 1007 461 1007 q 707 987 674 1007 q 740 924 740 967 q 729 871 740 897 q 688 878 711 875 q 647 882 664 882 q 448 821 538 882 q 306 649 358 760 q 254 396 254 539 q 322 147 254 232 q 504 63 389 63 q 659 113 581 63 q 794 256 738 164 q 865 467 850 349 m 650 1386 q 706 1413 679 1404 q 778 1421 733 1421 q 847 1403 819 1421 q 875 1347 874 1385 l 881 1226 q 922 1136 882 1167 q 826 1110 874 1110 q 768 1127 789 1110 q 747 1189 747 1144 q 764 1351 747 1294 l 743 1351 q 682 1256 706 1317 q 661 1135 658 1194 q 623 1117 651 1124 q 561 1110 594 1110 q 517 1121 533 1110 q 501 1150 501 1132 q 548 1268 501 1199 q 650 1386 594 1338 m 651 1481 q 792 1576 747 1528 q 838 1678 838 1625 q 816 1742 838 1719 q 753 1765 794 1765 q 683 1748 715 1765 q 608 1690 650 1731 q 678 1817 621 1767 q 810 1868 736 1868 q 926 1830 883 1868 q 968 1726 968 1792 q 888 1562 968 1629 q 656 1463 808 1494 l 651 1481 z "},"Ỗ":{"ha":1033,"x_min":75,"x_max":1008,"o":"m 865 467 q 711 692 711 535 q 750 805 711 760 q 847 850 789 850 q 958 787 918 850 q 999 613 999 724 q 930 284 999 432 q 740 51 861 136 q 467 -35 618 -35 q 260 17 349 -35 q 124 166 172 69 q 75 390 75 263 q 147 715 75 575 q 340 931 219 856 q 604 1007 461 1007 q 707 987 674 1007 q 740 924 740 967 q 729 871 740 897 q 688 878 711 875 q 647 882 664 882 q 448 821 538 882 q 306 649 358 760 q 254 396 254 539 q 322 147 254 232 q 504 63 389 63 q 659 113 581 63 q 794 256 738 164 q 865 467 850 349 m 650 1386 q 706 1413 679 1404 q 778 1421 733 1421 q 847 1403 819 1421 q 875 1347 874 1385 l 881 1226 q 922 1136 882 1167 q 826 1110 874 1110 q 768 1127 789 1110 q 747 1189 747 1144 q 764 1351 747 1294 l 743 1351 q 682 1256 706 1317 q 661 1135 658 1194 q 623 1117 651 1124 q 561 1110 594 1110 q 517 1121 533 1110 q 501 1150 501 1132 q 548 1268 501 1199 q 650 1386 594 1338 m 597 1556 q 538 1571 554 1556 q 522 1622 522 1586 q 550 1726 522 1664 q 638 1708 601 1708 q 724 1718 683 1708 q 818 1746 765 1728 q 883 1765 857 1758 q 933 1772 910 1772 q 992 1757 976 1772 q 1008 1706 1008 1742 q 981 1600 1008 1658 q 893 1618 932 1618 q 810 1609 849 1618 q 714 1582 771 1600 q 646 1562 671 1568 q 597 1556 621 1556 z "},"Ö":{"ha":1033,"x_min":75,"x_max":999,"o":"m 865 467 q 711 692 711 535 q 750 805 711 760 q 847 850 789 850 q 958 787 918 850 q 999 613 999 724 q 930 284 999 432 q 740 51 861 136 q 467 -35 618 -35 q 260 17 349 -35 q 124 166 172 69 q 75 390 75 263 q 147 715 75 575 q 340 931 219 856 q 604 1007 461 1007 q 707 987 674 1007 q 740 924 740 967 q 729 871 740 897 q 688 878 711 875 q 647 882 664 882 q 448 821 538 882 q 306 649 358 760 q 254 396 254 539 q 322 147 254 232 q 504 63 389 63 q 659 113 581 63 q 794 256 738 164 q 865 467 850 349 m 501 1139 q 438 1160 461 1139 q 414 1218 414 1182 q 447 1291 414 1260 q 528 1322 479 1322 q 594 1301 569 1322 q 619 1244 619 1279 q 586 1169 619 1200 q 501 1139 553 1139 m 868 1139 q 801 1160 826 1139 q 776 1218 776 1182 q 810 1291 776 1260 q 893 1322 843 1322 q 958 1301 933 1322 q 982 1244 982 1279 q 949 1169 982 1200 q 868 1139 917 1139 z "},"Ọ":{"ha":1033,"x_min":75,"x_max":999,"o":"m 865 467 q 711 692 711 535 q 750 805 711 760 q 847 850 789 850 q 958 787 918 850 q 999 613 999 724 q 930 284 999 432 q 740 51 861 136 q 467 -35 618 -35 q 260 17 349 -35 q 124 166 172 69 q 75 390 75 263 q 147 715 75 575 q 340 931 219 856 q 604 1007 461 1007 q 707 987 674 1007 q 740 924 740 967 q 729 871 740 897 q 688 878 711 875 q 647 882 664 882 q 448 821 538 882 q 306 649 358 760 q 254 396 254 539 q 322 147 254 232 q 504 63 389 63 q 659 113 581 63 q 794 256 738 164 q 865 467 850 349 m 443 -307 q 381 -287 404 -307 q 357 -233 357 -267 q 390 -154 357 -185 q 475 -124 422 -124 q 538 -144 514 -124 q 563 -199 563 -165 q 529 -277 563 -247 q 443 -307 496 -307 z "},"Ò":{"ha":1033,"x_min":75,"x_max":999,"o":"m 865 467 q 711 692 711 535 q 750 805 711 760 q 847 850 789 850 q 958 787 918 850 q 999 613 999 724 q 930 284 999 432 q 740 51 861 136 q 467 -35 618 -35 q 260 17 349 -35 q 124 166 172 69 q 75 390 75 263 q 147 715 75 575 q 340 931 219 856 q 604 1007 461 1007 q 707 987 674 1007 q 740 924 740 967 q 729 871 740 897 q 688 878 711 875 q 647 882 664 882 q 448 821 538 882 q 306 649 358 760 q 254 396 254 539 q 322 147 254 232 q 504 63 389 63 q 659 113 581 63 q 794 256 738 164 q 865 467 850 349 m 822 1119 q 726 1149 797 1119 q 592 1195 649 1179 q 471 1211 536 1211 q 458 1286 458 1240 q 533 1371 458 1371 q 595 1356 567 1371 q 672 1304 624 1340 q 768 1241 722 1268 q 874 1190 814 1214 q 822 1119 861 1119 z "},"Ỏ":{"ha":1033,"x_min":75,"x_max":999,"o":"m 865 467 q 711 692 711 535 q 750 805 711 760 q 847 850 789 850 q 958 787 918 850 q 999 613 999 724 q 930 284 999 432 q 740 51 861 136 q 467 -35 618 -35 q 260 17 349 -35 q 124 166 172 69 q 75 390 75 263 q 147 715 75 575 q 340 931 219 856 q 604 1007 461 1007 q 707 987 674 1007 q 740 924 740 967 q 729 871 740 897 q 688 878 711 875 q 647 882 664 882 q 448 821 538 882 q 306 649 358 760 q 254 396 254 539 q 322 147 254 232 q 504 63 389 63 q 659 113 581 63 q 794 256 738 164 q 865 467 850 349 m 572 1074 q 713 1169 668 1121 q 758 1271 758 1218 q 737 1335 758 1313 q 674 1358 715 1358 q 603 1341 636 1358 q 529 1283 571 1324 q 599 1410 542 1360 q 731 1461 657 1461 q 847 1423 804 1461 q 889 1319 889 1385 q 809 1155 889 1222 q 576 1056 729 1088 l 572 1074 z "},"Ơ":{"ha":1033,"x_min":75,"x_max":1165,"o":"m 1165 1106 q 1106 915 1165 993 q 942 810 1047 838 q 999 613 999 746 q 930 284 999 432 q 740 51 861 136 q 467 -35 618 -35 q 260 17 349 -35 q 124 166 172 69 q 75 390 75 263 q 147 715 75 575 q 340 931 219 856 q 604 1007 461 1007 q 707 987 674 1007 q 740 924 740 967 q 729 871 740 897 q 688 878 711 875 q 647 882 664 882 q 448 821 538 882 q 306 649 358 760 q 254 396 254 539 q 322 147 254 232 q 504 63 389 63 q 659 113 581 63 q 794 256 738 164 q 865 467 850 349 q 711 692 711 535 q 749 804 711 760 q 846 850 788 849 q 958 903 919 850 q 996 1058 996 957 l 1165 1106 z "},"Ớ":{"ha":1033,"x_min":75,"x_max":1165,"o":"m 1165 1106 q 1106 915 1165 993 q 942 810 1047 838 q 999 613 999 746 q 930 284 999 432 q 740 51 861 136 q 467 -35 618 -35 q 260 17 349 -35 q 124 166 172 69 q 75 390 75 263 q 147 715 75 575 q 340 931 219 856 q 604 1007 461 1007 q 707 987 674 1007 q 740 924 740 967 q 729 871 740 897 q 688 878 711 875 q 647 882 664 882 q 448 821 538 882 q 306 649 358 760 q 254 396 254 539 q 322 147 254 232 q 504 63 389 63 q 659 113 581 63 q 794 256 738 164 q 865 467 850 349 q 711 692 711 535 q 749 804 711 760 q 846 850 788 849 q 958 903 919 850 q 996 1058 996 957 l 1165 1106 m 556 1119 q 504 1190 517 1119 q 610 1241 564 1214 q 706 1304 656 1268 q 783 1356 754 1340 q 844 1371 811 1371 q 919 1286 919 1371 q 907 1211 919 1240 q 785 1195 842 1211 q 651 1149 729 1179 q 556 1119 581 1119 z "},"Ợ":{"ha":1033,"x_min":75,"x_max":1165,"o":"m 1165 1106 q 1106 915 1165 993 q 942 810 1047 838 q 999 613 999 746 q 930 284 999 432 q 740 51 861 136 q 467 -35 618 -35 q 260 17 349 -35 q 124 166 172 69 q 75 390 75 263 q 147 715 75 575 q 340 931 219 856 q 604 1007 461 1007 q 707 987 674 1007 q 740 924 740 967 q 729 871 740 897 q 688 878 711 875 q 647 882 664 882 q 448 821 538 882 q 306 649 358 760 q 254 396 254 539 q 322 147 254 232 q 504 63 389 63 q 659 113 581 63 q 794 256 738 164 q 865 467 850 349 q 711 692 711 535 q 749 804 711 760 q 846 850 788 849 q 958 903 919 850 q 996 1058 996 957 l 1165 1106 m 443 -307 q 381 -287 404 -307 q 357 -233 357 -267 q 390 -154 357 -185 q 475 -124 422 -124 q 538 -144 514 -124 q 563 -199 563 -165 q 529 -277 563 -247 q 443 -307 496 -307 z "},"Ờ":{"ha":1033,"x_min":75,"x_max":1165,"o":"m 1165 1106 q 1106 915 1165 993 q 942 810 1047 838 q 999 613 999 746 q 930 284 999 432 q 740 51 861 136 q 467 -35 618 -35 q 260 17 349 -35 q 124 166 172 69 q 75 390 75 263 q 147 715 75 575 q 340 931 219 856 q 604 1007 461 1007 q 707 987 674 1007 q 740 924 740 967 q 729 871 740 897 q 688 878 711 875 q 647 882 664 882 q 448 821 538 882 q 306 649 358 760 q 254 396 254 539 q 322 147 254 232 q 504 63 389 63 q 659 113 581 63 q 794 256 738 164 q 865 467 850 349 q 711 692 711 535 q 749 804 711 760 q 846 850 788 849 q 958 903 919 850 q 996 1058 996 957 l 1165 1106 m 822 1119 q 726 1149 797 1119 q 592 1195 649 1179 q 471 1211 536 1211 q 458 1286 458 1240 q 533 1371 458 1371 q 595 1356 567 1371 q 672 1304 624 1340 q 768 1241 722 1268 q 874 1190 814 1214 q 822 1119 861 1119 z "},"Ở":{"ha":1033,"x_min":75,"x_max":1165,"o":"m 1165 1106 q 1106 915 1165 993 q 942 810 1047 838 q 999 613 999 746 q 930 284 999 432 q 740 51 861 136 q 467 -35 618 -35 q 260 17 349 -35 q 124 166 172 69 q 75 390 75 263 q 147 715 75 575 q 340 931 219 856 q 604 1007 461 1007 q 707 987 674 1007 q 740 924 740 967 q 729 871 740 897 q 688 878 711 875 q 647 882 664 882 q 448 821 538 882 q 306 649 358 760 q 254 396 254 539 q 322 147 254 232 q 504 63 389 63 q 659 113 581 63 q 794 256 738 164 q 865 467 850 349 q 711 692 711 535 q 749 804 711 760 q 846 850 788 849 q 958 903 919 850 q 996 1058 996 957 l 1165 1106 m 572 1074 q 713 1169 668 1121 q 758 1271 758 1218 q 737 1335 758 1313 q 674 1358 715 1358 q 603 1341 636 1358 q 529 1283 571 1324 q 599 1410 542 1360 q 731 1461 657 1461 q 847 1423 804 1461 q 889 1319 889 1385 q 809 1155 889 1222 q 576 1056 729 1088 l 572 1074 z "},"Ỡ":{"ha":1033,"x_min":75,"x_max":1165,"o":"m 1165 1106 q 1106 915 1165 993 q 942 810 1047 838 q 999 613 999 746 q 930 284 999 432 q 740 51 861 136 q 467 -35 618 -35 q 260 17 349 -35 q 124 166 172 69 q 75 390 75 263 q 147 715 75 575 q 340 931 219 856 q 604 1007 461 1007 q 707 987 674 1007 q 740 924 740 967 q 729 871 740 897 q 688 878 711 875 q 647 882 664 882 q 448 821 538 882 q 306 649 358 760 q 254 396 254 539 q 322 147 254 232 q 504 63 389 63 q 659 113 581 63 q 794 256 738 164 q 865 467 850 349 q 711 692 711 535 q 749 804 711 760 q 846 850 788 849 q 958 903 919 850 q 996 1058 996 957 l 1165 1106 m 518 1149 q 459 1164 475 1149 q 443 1215 443 1179 q 471 1319 443 1257 q 558 1301 522 1301 q 645 1311 604 1301 q 739 1339 686 1321 q 804 1358 778 1351 q 854 1365 831 1365 q 913 1350 897 1365 q 929 1299 929 1335 q 901 1193 929 1251 q 814 1211 853 1211 q 731 1202 769 1211 q 635 1175 692 1193 q 567 1155 592 1161 q 518 1149 542 1149 z "},"Ő":{"ha":1033,"x_min":75,"x_max":1047,"o":"m 865 467 q 711 692 711 535 q 750 805 711 760 q 847 850 789 850 q 958 787 918 850 q 999 613 999 724 q 930 284 999 432 q 740 51 861 136 q 467 -35 618 -35 q 260 17 349 -35 q 124 166 172 69 q 75 390 75 263 q 147 715 75 575 q 340 931 219 856 q 604 1007 461 1007 q 707 987 674 1007 q 740 924 740 967 q 729 871 740 897 q 688 878 711 875 q 647 882 664 882 q 448 821 538 882 q 306 649 358 760 q 254 396 254 539 q 322 147 254 232 q 504 63 389 63 q 659 113 581 63 q 794 256 738 164 q 865 467 850 349 m 333 1119 q 285 1190 293 1119 q 369 1239 332 1213 q 449 1300 407 1265 q 520 1354 492 1338 q 579 1371 549 1371 q 646 1286 646 1371 q 635 1211 646 1238 q 531 1195 579 1211 q 419 1150 482 1179 q 333 1119 356 1119 m 733 1119 q 686 1190 694 1119 q 769 1237 733 1211 q 850 1300 806 1263 q 923 1354 896 1338 q 982 1371 950 1371 q 1047 1286 1047 1371 q 1038 1211 1047 1239 q 931 1195 981 1211 q 819 1150 882 1179 q 771 1128 794 1138 q 733 1119 747 1119 z "},"Ō":{"ha":1033,"x_min":75,"x_max":999,"o":"m 865 467 q 711 692 711 535 q 750 805 711 760 q 847 850 789 850 q 958 787 918 850 q 999 613 999 724 q 930 284 999 432 q 740 51 861 136 q 467 -35 618 -35 q 260 17 349 -35 q 124 166 172 69 q 75 390 75 263 q 147 715 75 575 q 340 931 219 856 q 604 1007 461 1007 q 707 987 674 1007 q 740 924 740 967 q 729 871 740 897 q 688 878 711 875 q 647 882 664 882 q 448 821 538 882 q 306 649 358 760 q 254 396 254 539 q 322 147 254 232 q 504 63 389 63 q 659 113 581 63 q 794 256 738 164 q 865 467 850 349 m 521 1164 q 461 1229 461 1164 q 472 1283 461 1250 q 493 1336 482 1315 q 534 1324 508 1329 q 581 1319 560 1319 q 704 1325 621 1319 q 838 1331 790 1331 q 910 1315 886 1331 q 933 1265 933 1299 q 915 1181 933 1226 q 878 1190 904 1186 q 825 1193 851 1193 q 669 1178 767 1193 q 521 1164 567 1164 z "},"Ø":{"ha":1033,"x_min":75,"x_max":999,"o":"m 999 613 q 936 297 999 440 q 762 67 874 154 q 510 -33 650 -21 l 503 -62 q 414 -143 485 -143 q 339 -121 372 -143 l 349 -89 l 369 -25 q 153 115 232 6 q 75 390 75 225 q 147 715 75 575 q 340 931 219 856 q 604 1007 461 1007 q 635 1006 625 1007 l 644 1049 q 733 1129 663 1129 q 808 1107 775 1129 q 532 64 690 756 q 677 126 606 74 q 800 267 749 179 q 865 467 851 356 q 711 692 711 535 q 750 805 711 760 q 847 850 789 850 q 958 787 918 850 q 999 613 999 724 m 254 396 q 293 194 254 274 q 401 83 332 115 q 606 879 501 426 q 426 805 506 868 q 300 636 346 742 q 254 396 254 531 z "},"Ǿ":{"ha":1033,"x_min":75,"x_max":999,"o":"m 999 613 q 936 297 999 440 q 762 67 874 154 q 510 -33 650 -21 l 503 -62 q 414 -143 485 -143 q 339 -121 372 -143 l 349 -89 l 369 -25 q 153 115 232 6 q 75 390 75 225 q 147 715 75 575 q 340 931 219 856 q 604 1007 461 1007 q 635 1006 625 1007 l 644 1049 q 733 1129 663 1129 q 808 1107 775 1129 q 532 64 690 756 q 677 126 606 74 q 800 267 749 179 q 865 467 851 356 q 711 692 711 535 q 750 805 711 760 q 847 850 789 850 q 958 787 918 850 q 999 613 999 724 m 254 396 q 293 194 254 274 q 401 83 332 115 q 606 879 501 426 q 426 805 506 868 q 300 636 346 742 q 254 396 254 531 m 497 1119 q 446 1190 458 1119 q 551 1241 506 1214 q 647 1304 597 1268 q 724 1356 696 1340 q 786 1371 753 1371 q 861 1286 861 1371 q 849 1211 861 1240 q 727 1195 783 1211 q 593 1149 671 1179 q 497 1119 522 1119 z "},"Õ":{"ha":1033,"x_min":75,"x_max":999,"o":"m 865 467 q 711 692 711 535 q 750 805 711 760 q 847 850 789 850 q 958 787 918 850 q 999 613 999 724 q 930 284 999 432 q 740 51 861 136 q 467 -35 618 -35 q 260 17 349 -35 q 124 166 172 69 q 75 390 75 263 q 147 715 75 575 q 340 931 219 856 q 604 1007 461 1007 q 707 987 674 1007 q 740 924 740 967 q 729 871 740 897 q 688 878 711 875 q 647 882 664 882 q 448 821 538 882 q 306 649 358 760 q 254 396 254 539 q 322 147 254 232 q 504 63 389 63 q 659 113 581 63 q 794 256 738 164 q 865 467 850 349 m 518 1149 q 459 1164 475 1149 q 443 1215 443 1179 q 471 1319 443 1257 q 558 1301 522 1301 q 645 1311 604 1301 q 739 1339 686 1321 q 804 1358 778 1351 q 854 1365 831 1365 q 913 1350 897 1365 q 929 1299 929 1335 q 901 1193 929 1251 q 814 1211 853 1211 q 731 1202 769 1211 q 635 1175 692 1193 q 567 1155 592 1161 q 518 1149 542 1149 z "},"Œ":{"ha":1529,"x_min":76,"x_max":1469,"o":"m 1469 942 q 1420 841 1469 874 q 1297 808 1371 808 q 1143 823 1215 808 q 971 867 1071 838 q 883 890 913 883 q 979 785 943 867 q 1015 578 1015 703 q 1013 508 1015 553 q 1169 501 1075 501 l 1272 526 l 1274 493 q 1241 416 1274 443 q 1147 389 1208 389 q 999 406 1085 389 q 839 104 958 219 l 1222 104 q 1372 140 1306 114 q 1385 79 1385 104 q 1324 -9 1385 19 q 1133 -37 1263 -37 q 920 -21 1026 -37 q 728 24 814 -4 q 476 -35 614 -35 q 265 19 356 -35 q 126 170 175 72 q 76 399 76 268 q 150 714 76 575 q 354 931 224 853 q 651 1008 485 1008 q 758 1002 708 1008 q 882 983 807 996 q 1008 964 953 971 q 1125 957 1064 957 q 1267 965 1208 957 q 1418 992 1326 972 l 1463 1000 q 1469 942 1469 976 m 853 515 q 744 856 853 728 q 840 899 783 899 l 853 899 q 721 914 783 914 q 651 908 683 914 q 370 732 471 868 q 269 389 269 596 q 334 154 269 239 q 511 69 399 69 q 691 124 614 69 q 810 280 768 179 q 853 515 853 381 z "},"P":{"ha":963,"x_min":150,"x_max":946,"o":"m 653 1006 q 811 963 744 1006 q 912 849 878 919 q 946 694 946 778 q 900 492 946 585 q 762 342 854 399 q 533 285 669 285 q 344 324 429 285 q 322 122 322 161 q 356 0 322 42 q 249 -36 301 -36 q 174 -10 197 -36 q 150 76 150 17 q 172 321 150 157 q 257 865 194 485 l 214 950 q 379 1008 307 1008 q 440 946 436 1008 q 653 1006 531 1006 m 475 392 q 632 428 565 392 q 734 529 699 465 q 769 675 769 593 q 720 833 769 771 q 563 894 671 894 q 431 858 499 894 q 397 657 406 708 l 358 414 q 475 392 411 392 z "},"Þ":{"ha":983,"x_min":150,"x_max":946,"o":"m 653 875 q 811 832 744 875 q 912 718 878 789 q 946 564 946 647 q 900 361 946 454 q 762 211 854 268 q 533 154 669 154 q 328 201 419 154 q 322 122 322 132 q 356 0 322 42 q 249 -36 301 -36 q 174 -10 197 -36 q 150 76 150 17 q 172 321 150 157 q 257 865 194 485 l 214 950 q 379 1008 307 1008 q 440 935 440 1008 q 422 803 440 915 q 524 856 469 838 q 653 875 579 875 m 475 261 q 632 298 565 261 q 734 399 699 335 q 769 544 769 463 q 720 702 769 640 q 563 764 671 764 q 407 715 493 764 l 386 585 q 340 292 361 432 q 475 261 396 261 z "},"Q":{"ha":1060,"x_min":75,"x_max":999,"o":"m 688 -62 q 915 -29 811 -62 q 921 -87 921 -62 q 874 -209 921 -165 q 750 -253 828 -253 q 556 -208 649 -253 q 358 -94 464 -164 q 300 -152 336 -131 q 222 -174 264 -174 q 164 -152 186 -174 q 142 -94 142 -131 q 174 -25 142 -50 q 260 0 207 0 l 299 -1 q 134 147 193 44 q 75 390 75 249 q 147 715 75 575 q 340 931 219 856 q 604 1007 461 1007 q 707 987 674 1007 q 740 924 740 967 q 729 871 740 897 q 688 878 711 875 q 647 882 664 882 q 448 821 538 882 q 306 649 358 760 q 254 396 254 539 q 322 147 254 232 q 504 63 389 63 q 659 113 581 63 q 794 256 738 164 q 865 467 850 349 q 711 692 711 535 q 750 805 711 760 q 847 850 789 850 q 958 787 918 850 q 999 613 999 724 q 931 285 999 433 q 742 52 863 138 q 471 -35 621 -33 q 585 -56 535 -49 q 688 -62 635 -62 z "},"R":{"ha":1007,"x_min":150,"x_max":957,"o":"m 729 382 q 850 151 789 250 q 957 11 911 53 q 905 -21 940 -7 q 840 -35 869 -35 q 768 -16 797 -35 q 709 52 739 3 q 635 203 679 101 l 571 344 q 533 343 558 343 q 433 352 476 343 q 351 383 390 361 q 322 122 322 192 q 356 0 322 42 q 249 -36 301 -36 q 174 -10 197 -36 q 150 76 150 17 q 172 321 150 157 q 257 865 194 485 l 214 950 q 379 1008 307 1008 q 440 946 436 1008 q 653 1006 531 1006 q 811 966 744 1006 q 912 860 878 926 q 946 715 946 793 q 890 521 946 613 q 729 382 835 429 m 475 450 q 632 482 565 450 q 734 569 699 514 q 769 696 769 625 q 720 839 769 783 q 563 894 671 894 q 431 858 499 894 l 411 746 q 391 632 403 701 q 364 469 379 563 q 475 450 413 450 z "},"Ŕ":{"ha":1007,"x_min":150,"x_max":957,"o":"m 729 382 q 850 151 789 250 q 957 11 911 53 q 905 -21 940 -7 q 840 -35 869 -35 q 768 -16 797 -35 q 709 52 739 3 q 635 203 679 101 l 571 344 q 533 343 558 343 q 433 352 476 343 q 351 383 390 361 q 322 122 322 192 q 356 0 322 42 q 249 -36 301 -36 q 174 -10 197 -36 q 150 76 150 17 q 172 321 150 157 q 257 865 194 485 l 214 950 q 379 1008 307 1008 q 440 946 436 1008 q 653 1006 531 1006 q 811 966 744 1006 q 912 860 878 926 q 946 715 946 793 q 890 521 946 613 q 729 382 835 429 m 475 450 q 632 482 565 450 q 734 569 699 514 q 769 696 769 625 q 720 839 769 783 q 563 894 671 894 q 431 858 499 894 l 411 746 q 391 632 403 701 q 364 469 379 563 q 475 450 413 450 m 499 1119 q 447 1190 460 1119 q 553 1241 507 1214 q 649 1304 599 1268 q 726 1356 697 1340 q 788 1371 754 1371 q 863 1286 863 1371 q 850 1211 863 1240 q 728 1195 785 1211 q 594 1149 672 1179 q 499 1119 524 1119 z "},"Ř":{"ha":1007,"x_min":150,"x_max":957,"o":"m 729 382 q 850 151 789 250 q 957 11 911 53 q 905 -21 940 -7 q 840 -35 869 -35 q 768 -16 797 -35 q 709 52 739 3 q 635 203 679 101 l 571 344 q 533 343 558 343 q 433 352 476 343 q 351 383 390 361 q 322 122 322 192 q 356 0 322 42 q 249 -36 301 -36 q 174 -10 197 -36 q 150 76 150 17 q 172 321 150 157 q 257 865 194 485 l 214 950 q 379 1008 307 1008 q 440 946 436 1008 q 653 1006 531 1006 q 811 966 744 1006 q 912 860 878 926 q 946 715 946 793 q 890 521 946 613 q 729 382 835 429 m 475 450 q 632 482 565 450 q 734 569 699 514 q 769 696 769 625 q 720 839 769 783 q 563 894 671 894 q 431 858 499 894 l 411 746 q 391 632 403 701 q 364 469 379 563 q 475 450 413 450 m 713 1144 q 656 1118 682 1126 q 586 1110 631 1110 q 516 1128 543 1110 q 486 1183 489 1146 l 482 1304 q 440 1394 481 1364 q 536 1421 486 1421 q 595 1403 575 1421 q 615 1342 615 1386 q 599 1179 615 1244 l 619 1179 q 680 1275 656 1214 q 703 1396 704 1336 q 740 1414 711 1407 q 800 1421 768 1421 q 844 1410 829 1421 q 860 1381 860 1399 q 814 1261 860 1331 q 713 1144 768 1192 z "},"Ŗ":{"ha":1007,"x_min":150,"x_max":957,"o":"m 729 382 q 850 151 789 250 q 957 11 911 53 q 905 -21 940 -7 q 840 -35 869 -35 q 768 -16 797 -35 q 709 52 739 3 q 635 203 679 101 l 571 344 q 533 343 558 343 q 433 352 476 343 q 351 383 390 361 q 322 122 322 192 q 356 0 322 42 q 249 -36 301 -36 q 174 -10 197 -36 q 150 76 150 17 q 172 321 150 157 q 257 865 194 485 l 214 950 q 379 1008 307 1008 q 440 946 436 1008 q 653 1006 531 1006 q 811 966 744 1006 q 912 860 878 926 q 946 715 946 793 q 890 521 946 613 q 729 382 835 429 m 475 450 q 632 482 565 450 q 734 569 699 514 q 769 696 769 625 q 720 839 769 783 q 563 894 671 894 q 431 858 499 894 l 411 746 q 391 632 403 701 q 364 469 379 563 q 475 450 413 450 m 378 -247 q 431 -160 386 -197 q 526 -124 475 -124 q 599 -152 574 -124 q 625 -224 625 -181 q 544 -411 625 -328 q 331 -532 463 -494 l 319 -486 q 401 -422 367 -464 q 440 -342 436 -379 l 378 -247 z "},"S":{"ha":994,"x_min":99,"x_max":950,"o":"m 446 -35 q 194 12 289 -35 q 99 142 99 58 q 115 199 99 172 q 158 243 131 226 q 276 113 201 158 q 438 68 350 68 q 629 110 557 68 q 701 229 701 151 q 673 297 701 268 q 601 347 644 326 q 482 394 557 367 q 316 465 379 432 q 207 555 253 499 q 161 694 161 611 q 223 856 161 785 q 397 968 285 928 q 654 1008 508 1008 q 806 991 739 1008 q 912 943 874 974 q 950 872 950 913 q 912 783 950 814 q 811 751 874 751 q 639 901 685 751 q 419 834 499 885 q 340 714 340 783 q 368 651 340 678 q 438 605 396 624 q 556 557 479 586 q 722 488 657 521 q 834 399 788 454 q 881 261 881 343 q 830 113 881 181 q 681 6 779 46 q 446 -35 583 -35 z "},"Ś":{"ha":994,"x_min":99,"x_max":950,"o":"m 446 -35 q 194 12 289 -35 q 99 142 99 58 q 115 199 99 172 q 158 243 131 226 q 276 113 201 158 q 438 68 350 68 q 629 110 557 68 q 701 229 701 151 q 673 297 701 268 q 601 347 644 326 q 482 394 557 367 q 316 465 379 432 q 207 555 253 499 q 161 694 161 611 q 223 856 161 785 q 397 968 285 928 q 654 1008 508 1008 q 806 991 739 1008 q 912 943 874 974 q 950 872 950 913 q 912 783 950 814 q 811 751 874 751 q 639 901 685 751 q 419 834 499 885 q 340 714 340 783 q 368 651 340 678 q 438 605 396 624 q 556 557 479 586 q 722 488 657 521 q 834 399 788 454 q 881 261 881 343 q 830 113 881 181 q 681 6 779 46 q 446 -35 583 -35 m 474 1119 q 422 1190 435 1119 q 528 1241 482 1214 q 624 1304 574 1268 q 701 1356 672 1340 q 763 1371 729 1371 q 838 1286 838 1371 q 825 1211 838 1240 q 703 1195 760 1211 q 569 1149 647 1179 q 474 1119 499 1119 z "},"Š":{"ha":994,"x_min":99,"x_max":950,"o":"m 446 -35 q 194 12 289 -35 q 99 142 99 58 q 115 199 99 172 q 158 243 131 226 q 276 113 201 158 q 438 68 350 68 q 629 110 557 68 q 701 229 701 151 q 673 297 701 268 q 601 347 644 326 q 482 394 557 367 q 316 465 379 432 q 207 555 253 499 q 161 694 161 611 q 223 856 161 785 q 397 968 285 928 q 654 1008 508 1008 q 806 991 739 1008 q 912 943 874 974 q 950 872 950 913 q 912 783 950 814 q 811 751 874 751 q 639 901 685 751 q 419 834 499 885 q 340 714 340 783 q 368 651 340 678 q 438 605 396 624 q 556 557 479 586 q 722 488 657 521 q 834 399 788 454 q 881 261 881 343 q 830 113 881 181 q 681 6 779 46 q 446 -35 583 -35 m 688 1144 q 631 1118 657 1126 q 561 1110 606 1110 q 491 1128 518 1110 q 461 1183 464 1146 l 457 1304 q 415 1394 456 1364 q 511 1421 461 1421 q 570 1403 550 1421 q 590 1342 590 1386 q 574 1179 590 1244 l 594 1179 q 655 1275 631 1214 q 678 1396 679 1336 q 715 1414 686 1407 q 775 1421 743 1421 q 819 1410 804 1421 q 835 1381 835 1399 q 789 1261 835 1331 q 688 1144 743 1192 z "},"Ş":{"ha":994,"x_min":99,"x_max":950,"o":"m 446 -35 q 194 12 289 -35 q 99 142 99 58 q 115 199 99 172 q 158 243 131 226 q 276 113 201 158 q 438 68 350 68 q 629 110 557 68 q 701 229 701 151 q 673 297 701 268 q 601 347 644 326 q 482 394 557 367 q 316 465 379 432 q 207 555 253 499 q 161 694 161 611 q 223 856 161 785 q 397 968 285 928 q 654 1008 508 1008 q 806 991 739 1008 q 912 943 874 974 q 950 872 950 913 q 912 783 950 814 q 811 751 874 751 q 639 901 685 751 q 419 834 499 885 q 340 714 340 783 q 368 651 340 678 q 438 605 396 624 q 556 557 479 586 q 722 488 657 521 q 834 399 788 454 q 881 261 881 343 q 830 113 881 181 q 681 6 779 46 q 446 -35 583 -35 m 351 -418 q 227 -386 274 -418 q 181 -301 181 -354 q 232 -217 181 -251 q 357 -183 283 -183 q 310 -225 328 -199 q 293 -282 293 -251 q 363 -344 293 -344 q 440 -313 408 -344 q 472 -237 472 -282 q 357 -74 472 -126 q 538 -117 472 -74 q 604 -239 604 -161 q 571 -330 604 -289 q 480 -394 538 -371 q 351 -418 422 -418 z "},"Ŝ":{"ha":994,"x_min":99,"x_max":950,"o":"m 446 -35 q 194 12 289 -35 q 99 142 99 58 q 115 199 99 172 q 158 243 131 226 q 276 113 201 158 q 438 68 350 68 q 629 110 557 68 q 701 229 701 151 q 673 297 701 268 q 601 347 644 326 q 482 394 557 367 q 316 465 379 432 q 207 555 253 499 q 161 694 161 611 q 223 856 161 785 q 397 968 285 928 q 654 1008 508 1008 q 806 991 739 1008 q 912 943 874 974 q 950 872 950 913 q 912 783 950 814 q 811 751 874 751 q 639 901 685 751 q 419 834 499 885 q 340 714 340 783 q 368 651 340 678 q 438 605 396 624 q 556 557 479 586 q 722 488 657 521 q 834 399 788 454 q 881 261 881 343 q 830 113 881 181 q 681 6 779 46 q 446 -35 583 -35 m 568 1386 q 624 1413 597 1404 q 696 1421 651 1421 q 765 1403 738 1421 q 793 1347 792 1385 l 799 1226 q 840 1136 800 1167 q 744 1110 792 1110 q 686 1127 707 1110 q 665 1189 665 1144 q 682 1351 665 1294 l 661 1351 q 600 1256 624 1317 q 579 1135 576 1194 q 541 1117 569 1124 q 479 1110 513 1110 q 435 1121 451 1110 q 419 1150 419 1132 q 466 1268 419 1199 q 568 1386 513 1338 z "},"Ș":{"ha":994,"x_min":99,"x_max":950,"o":"m 446 -35 q 194 12 289 -35 q 99 142 99 58 q 115 199 99 172 q 158 243 131 226 q 276 113 201 158 q 438 68 350 68 q 629 110 557 68 q 701 229 701 151 q 673 297 701 268 q 601 347 644 326 q 482 394 557 367 q 316 465 379 432 q 207 555 253 499 q 161 694 161 611 q 223 856 161 785 q 397 968 285 928 q 654 1008 508 1008 q 806 991 739 1008 q 912 943 874 974 q 950 872 950 913 q 912 783 950 814 q 811 751 874 751 q 639 901 685 751 q 419 834 499 885 q 340 714 340 783 q 368 651 340 678 q 438 605 396 624 q 556 557 479 586 q 722 488 657 521 q 834 399 788 454 q 881 261 881 343 q 830 113 881 181 q 681 6 779 46 q 446 -35 583 -35 m 308 -247 q 361 -160 317 -197 q 457 -124 406 -124 q 530 -152 504 -124 q 556 -224 556 -181 q 474 -411 556 -328 q 261 -532 393 -494 l 250 -486 q 332 -422 297 -464 q 371 -342 367 -379 l 308 -247 z "},"T":{"ha":768,"x_min":97,"x_max":836,"o":"m 824 990 q 836 922 836 965 q 800 842 836 871 q 699 814 764 814 q 543 828 649 814 l 524 703 q 440 117 440 193 q 472 0 440 40 q 365 -36 419 -36 q 292 -11 315 -36 q 268 71 268 14 q 293 322 268 143 q 375 849 318 500 q 335 850 361 850 l 111 817 q 97 885 97 843 q 132 969 97 946 q 236 993 167 993 q 347 985 289 993 q 415 975 404 976 q 600 956 535 956 l 824 990 z "},"Ŧ":{"ha":768,"x_min":97,"x_max":836,"o":"m 699 814 q 543 828 649 814 l 497 543 q 633 556 579 556 q 691 540 675 556 q 707 492 707 524 q 683 413 707 446 q 539 428 639 428 q 479 425 521 428 q 440 117 440 178 q 472 0 440 40 q 365 -36 419 -36 q 292 -11 315 -36 q 268 71 268 14 q 304 400 268 160 q 200 392 251 392 q 142 408 158 392 q 125 456 125 424 q 150 536 125 499 q 300 519 194 519 l 322 519 q 369 813 326 546 l 375 849 q 335 850 361 850 l 111 817 q 97 885 97 843 q 132 969 97 946 q 236 993 167 993 q 347 985 289 993 q 415 975 404 976 q 600 956 535 956 l 824 990 q 836 922 836 965 q 800 842 836 871 q 699 814 764 814 z "},"Ť":{"ha":768,"x_min":97,"x_max":836,"o":"m 824 990 q 836 922 836 965 q 800 842 836 871 q 699 814 764 814 q 543 828 649 814 l 524 703 q 440 117 440 193 q 472 0 440 40 q 365 -36 419 -36 q 292 -11 315 -36 q 268 71 268 14 q 293 322 268 143 q 375 849 318 500 q 335 850 361 850 l 111 817 q 97 885 97 843 q 132 969 97 946 q 236 993 167 993 q 347 985 289 993 q 415 975 404 976 q 600 956 535 956 l 824 990 m 608 1144 q 552 1118 578 1126 q 482 1110 526 1110 q 412 1128 439 1110 q 382 1183 385 1146 l 378 1304 q 336 1394 376 1364 q 432 1421 382 1421 q 491 1403 471 1421 q 511 1342 511 1386 q 494 1179 511 1244 l 515 1179 q 576 1275 551 1214 q 599 1396 600 1336 q 635 1414 607 1407 q 696 1421 664 1421 q 740 1410 725 1421 q 756 1381 756 1399 q 710 1261 756 1331 q 608 1144 664 1192 z "},"Ţ":{"ha":768,"x_min":32,"x_max":836,"o":"m 824 990 q 836 922 836 965 q 800 842 836 871 q 699 814 764 814 q 543 828 649 814 l 524 703 q 440 117 440 193 q 472 0 440 40 q 365 -36 419 -36 q 292 -11 315 -36 q 268 71 268 14 q 293 322 268 143 q 375 849 318 500 q 335 850 361 850 l 111 817 q 97 885 97 843 q 132 969 97 946 q 236 993 167 993 q 347 985 289 993 q 415 975 404 976 q 600 956 535 956 l 824 990 m 203 -418 q 78 -386 125 -418 q 32 -301 32 -354 q 83 -217 32 -251 q 208 -183 135 -183 q 162 -225 179 -199 q 144 -282 144 -251 q 214 -344 144 -344 q 292 -313 260 -344 q 324 -237 324 -282 q 208 -74 324 -126 q 390 -117 324 -74 q 456 -239 456 -161 q 422 -330 456 -289 q 331 -394 389 -371 q 203 -418 274 -418 z "},"Ț":{"ha":768,"x_min":97,"x_max":836,"o":"m 824 990 q 836 922 836 965 q 800 842 836 871 q 699 814 764 814 q 543 828 649 814 l 524 703 q 440 117 440 193 q 472 0 440 40 q 365 -36 419 -36 q 292 -11 315 -36 q 268 71 268 14 q 293 322 268 143 q 375 849 318 500 q 335 850 361 850 l 111 817 q 97 885 97 843 q 132 969 97 946 q 236 993 167 993 q 347 985 289 993 q 415 975 404 976 q 600 956 535 956 l 824 990 m 160 -247 q 213 -160 168 -197 q 308 -124 257 -124 q 381 -152 356 -124 q 407 -224 407 -181 q 326 -411 407 -328 q 113 -532 244 -494 l 101 -486 q 183 -422 149 -464 q 222 -342 218 -379 l 160 -247 z "},"U":{"ha":1107,"x_min":153,"x_max":1068,"o":"m 861 -36 q 764 111 764 -36 q 788 271 764 179 l 779 272 q 601 55 710 142 q 361 -32 493 -32 q 201 37 250 -32 q 153 204 153 106 q 175 413 153 272 q 257 865 197 554 l 214 950 q 299 994 256 978 q 376 1010 342 1010 q 423 990 407 1010 q 439 935 439 971 q 399 711 439 915 q 341 407 363 526 q 319 243 319 288 q 345 128 319 165 q 442 90 371 90 q 567 135 499 90 q 698 262 635 181 q 800 446 761 343 q 790 601 790 517 q 831 888 790 765 q 982 1010 872 1010 q 1068 979 1028 1010 q 978 556 1021 808 q 935 117 935 304 q 960 0 935 42 q 861 -36 910 -36 z "},"Ú":{"ha":1107,"x_min":153,"x_max":1068,"o":"m 861 -36 q 764 111 764 -36 q 788 271 764 179 l 779 272 q 601 55 710 142 q 361 -32 493 -32 q 201 37 250 -32 q 153 204 153 106 q 175 413 153 272 q 257 865 197 554 l 214 950 q 299 994 256 978 q 376 1010 342 1010 q 423 990 407 1010 q 439 935 439 971 q 399 711 439 915 q 341 407 363 526 q 319 243 319 288 q 345 128 319 165 q 442 90 371 90 q 567 135 499 90 q 698 262 635 181 q 800 446 761 343 q 790 601 790 517 q 831 888 790 765 q 982 1010 872 1010 q 1068 979 1028 1010 q 978 556 1021 808 q 935 117 935 304 q 960 0 935 42 q 861 -36 910 -36 m 564 1119 q 513 1190 525 1119 q 618 1241 572 1214 q 714 1304 664 1268 q 791 1356 763 1340 q 853 1371 819 1371 q 928 1286 928 1371 q 915 1211 928 1240 q 794 1195 850 1211 q 660 1149 738 1179 q 564 1119 589 1119 z "},"Ŭ":{"ha":1107,"x_min":153,"x_max":1068,"o":"m 861 -36 q 764 111 764 -36 q 788 271 764 179 l 779 272 q 601 55 710 142 q 361 -32 493 -32 q 201 37 250 -32 q 153 204 153 106 q 175 413 153 272 q 257 865 197 554 l 214 950 q 299 994 256 978 q 376 1010 342 1010 q 423 990 407 1010 q 439 935 439 971 q 399 711 439 915 q 341 407 363 526 q 319 243 319 288 q 345 128 319 165 q 442 90 371 90 q 567 135 499 90 q 698 262 635 181 q 800 446 761 343 q 790 601 790 517 q 831 888 790 765 q 982 1010 872 1010 q 1068 979 1028 1010 q 978 556 1021 808 q 935 117 935 304 q 960 0 935 42 q 861 -36 910 -36 m 724 1213 q 831 1263 789 1213 q 874 1397 874 1314 q 953 1371 925 1394 q 982 1301 982 1347 q 947 1210 982 1253 q 849 1142 911 1168 q 714 1117 788 1117 q 549 1157 607 1117 q 490 1260 490 1197 q 519 1335 490 1300 q 593 1383 547 1371 q 724 1213 582 1213 z "},"Û":{"ha":1107,"x_min":153,"x_max":1068,"o":"m 861 -36 q 764 111 764 -36 q 788 271 764 179 l 779 272 q 601 55 710 142 q 361 -32 493 -32 q 201 37 250 -32 q 153 204 153 106 q 175 413 153 272 q 257 865 197 554 l 214 950 q 299 994 256 978 q 376 1010 342 1010 q 423 990 407 1010 q 439 935 439 971 q 399 711 439 915 q 341 407 363 526 q 319 243 319 288 q 345 128 319 165 q 442 90 371 90 q 567 135 499 90 q 698 262 635 181 q 800 446 761 343 q 790 601 790 517 q 831 888 790 765 q 982 1010 872 1010 q 1068 979 1028 1010 q 978 556 1021 808 q 935 117 935 304 q 960 0 935 42 q 861 -36 910 -36 m 658 1386 q 715 1413 688 1404 q 786 1421 742 1421 q 855 1403 828 1421 q 883 1347 882 1385 l 889 1226 q 931 1136 890 1167 q 835 1110 882 1110 q 776 1127 797 1110 q 756 1189 756 1144 q 772 1351 756 1294 l 751 1351 q 690 1256 714 1317 q 669 1135 667 1194 q 631 1117 660 1124 q 569 1110 603 1110 q 526 1121 542 1110 q 510 1150 510 1132 q 556 1268 510 1199 q 658 1386 603 1338 z "},"Ü":{"ha":1107,"x_min":153,"x_max":1068,"o":"m 861 -36 q 764 111 764 -36 q 788 271 764 179 l 779 272 q 601 55 710 142 q 361 -32 493 -32 q 201 37 250 -32 q 153 204 153 106 q 175 413 153 272 q 257 865 197 554 l 214 950 q 299 994 256 978 q 376 1010 342 1010 q 423 990 407 1010 q 439 935 439 971 q 399 711 439 915 q 341 407 363 526 q 319 243 319 288 q 345 128 319 165 q 442 90 371 90 q 567 135 499 90 q 698 262 635 181 q 800 446 761 343 q 790 601 790 517 q 831 888 790 765 q 982 1010 872 1010 q 1068 979 1028 1010 q 978 556 1021 808 q 935 117 935 304 q 960 0 935 42 q 861 -36 910 -36 m 510 1139 q 446 1160 469 1139 q 422 1218 422 1182 q 455 1291 422 1260 q 536 1322 488 1322 q 603 1301 578 1322 q 628 1244 628 1279 q 594 1169 628 1200 q 510 1139 561 1139 m 876 1139 q 810 1160 835 1139 q 785 1218 785 1182 q 818 1291 785 1260 q 901 1322 851 1322 q 966 1301 942 1322 q 990 1244 990 1279 q 958 1169 990 1200 q 876 1139 925 1139 z "},"Ụ":{"ha":1107,"x_min":153,"x_max":1068,"o":"m 861 -36 q 764 111 764 -36 q 788 271 764 179 l 779 272 q 601 55 710 142 q 361 -32 493 -32 q 201 37 250 -32 q 153 204 153 106 q 175 413 153 272 q 257 865 197 554 l 214 950 q 299 994 256 978 q 376 1010 342 1010 q 423 990 407 1010 q 439 935 439 971 q 399 711 439 915 q 341 407 363 526 q 319 243 319 288 q 345 128 319 165 q 442 90 371 90 q 567 135 499 90 q 698 262 635 181 q 800 446 761 343 q 790 601 790 517 q 831 888 790 765 q 982 1010 872 1010 q 1068 979 1028 1010 q 978 556 1021 808 q 935 117 935 304 q 960 0 935 42 q 861 -36 910 -36 m 447 -307 q 385 -287 408 -307 q 361 -233 361 -267 q 394 -154 361 -185 q 479 -124 426 -124 q 542 -144 518 -124 q 567 -199 567 -165 q 533 -277 567 -247 q 447 -307 500 -307 z "},"Ù":{"ha":1107,"x_min":153,"x_max":1068,"o":"m 861 -36 q 764 111 764 -36 q 788 271 764 179 l 779 272 q 601 55 710 142 q 361 -32 493 -32 q 201 37 250 -32 q 153 204 153 106 q 175 413 153 272 q 257 865 197 554 l 214 950 q 299 994 256 978 q 376 1010 342 1010 q 423 990 407 1010 q 439 935 439 971 q 399 711 439 915 q 341 407 363 526 q 319 243 319 288 q 345 128 319 165 q 442 90 371 90 q 567 135 499 90 q 698 262 635 181 q 800 446 761 343 q 790 601 790 517 q 831 888 790 765 q 982 1010 872 1010 q 1068 979 1028 1010 q 978 556 1021 808 q 935 117 935 304 q 960 0 935 42 q 861 -36 910 -36 m 831 1119 q 735 1149 806 1119 q 601 1195 657 1179 q 479 1211 544 1211 q 467 1286 467 1240 q 542 1371 467 1371 q 603 1356 575 1371 q 681 1304 632 1340 q 776 1241 731 1268 q 882 1190 822 1214 q 831 1119 869 1119 z "},"Ủ":{"ha":1107,"x_min":153,"x_max":1068,"o":"m 861 -36 q 764 111 764 -36 q 788 271 764 179 l 779 272 q 601 55 710 142 q 361 -32 493 -32 q 201 37 250 -32 q 153 204 153 106 q 175 413 153 272 q 257 865 197 554 l 214 950 q 299 994 256 978 q 376 1010 342 1010 q 423 990 407 1010 q 439 935 439 971 q 399 711 439 915 q 341 407 363 526 q 319 243 319 288 q 345 128 319 165 q 442 90 371 90 q 567 135 499 90 q 698 262 635 181 q 800 446 761 343 q 790 601 790 517 q 831 888 790 765 q 982 1010 872 1010 q 1068 979 1028 1010 q 978 556 1021 808 q 935 117 935 304 q 960 0 935 42 q 861 -36 910 -36 m 581 1074 q 722 1169 676 1121 q 767 1271 767 1218 q 745 1335 767 1313 q 682 1358 724 1358 q 612 1341 644 1358 q 538 1283 579 1324 q 608 1410 550 1360 q 739 1461 665 1461 q 855 1423 813 1461 q 897 1319 897 1385 q 817 1155 897 1222 q 585 1056 738 1088 l 581 1074 z "},"Ư":{"ha":1107,"x_min":153,"x_max":1386,"o":"m 1386 1235 q 1297 1011 1386 1094 q 1053 924 1207 928 q 971 515 1007 742 q 935 117 935 288 q 960 0 935 42 q 861 -36 910 -36 q 764 111 764 -36 q 788 271 764 179 l 779 272 q 601 55 710 142 q 361 -32 493 -32 q 201 37 250 -32 q 153 204 153 106 q 175 413 153 272 q 257 865 197 554 l 214 950 q 299 994 256 978 q 376 1010 342 1010 q 423 990 407 1010 q 439 935 439 971 q 399 711 439 915 q 341 407 363 526 q 319 243 319 288 q 345 128 319 165 q 442 90 371 90 q 567 135 499 90 q 698 262 635 181 q 800 446 761 343 q 790 601 790 517 q 831 888 790 765 q 982 1010 872 1010 q 1068 979 1028 1010 q 1178 1033 1140 979 q 1217 1188 1217 1086 l 1386 1235 z "},"Ứ":{"ha":1107,"x_min":153,"x_max":1386,"o":"m 1386 1235 q 1297 1011 1386 1094 q 1053 924 1207 928 q 971 515 1007 742 q 935 117 935 288 q 960 0 935 42 q 861 -36 910 -36 q 764 111 764 -36 q 788 271 764 179 l 779 272 q 601 55 710 142 q 361 -32 493 -32 q 201 37 250 -32 q 153 204 153 106 q 175 413 153 272 q 257 865 197 554 l 214 950 q 299 994 256 978 q 376 1010 342 1010 q 423 990 407 1010 q 439 935 439 971 q 399 711 439 915 q 341 407 363 526 q 319 243 319 288 q 345 128 319 165 q 442 90 371 90 q 567 135 499 90 q 698 262 635 181 q 800 446 761 343 q 790 601 790 517 q 831 888 790 765 q 982 1010 872 1010 q 1068 979 1028 1010 q 1178 1033 1140 979 q 1217 1188 1217 1086 l 1386 1235 m 564 1119 q 513 1190 525 1119 q 618 1241 572 1214 q 714 1304 664 1268 q 791 1356 763 1340 q 853 1371 819 1371 q 928 1286 928 1371 q 915 1211 928 1240 q 794 1195 850 1211 q 660 1149 738 1179 q 564 1119 589 1119 z "},"Ự":{"ha":1107,"x_min":153,"x_max":1386,"o":"m 1386 1235 q 1297 1011 1386 1094 q 1053 924 1207 928 q 971 515 1007 742 q 935 117 935 288 q 960 0 935 42 q 861 -36 910 -36 q 764 111 764 -36 q 788 271 764 179 l 779 272 q 601 55 710 142 q 361 -32 493 -32 q 201 37 250 -32 q 153 204 153 106 q 175 413 153 272 q 257 865 197 554 l 214 950 q 299 994 256 978 q 376 1010 342 1010 q 423 990 407 1010 q 439 935 439 971 q 399 711 439 915 q 341 407 363 526 q 319 243 319 288 q 345 128 319 165 q 442 90 371 90 q 567 135 499 90 q 698 262 635 181 q 800 446 761 343 q 790 601 790 517 q 831 888 790 765 q 982 1010 872 1010 q 1068 979 1028 1010 q 1178 1033 1140 979 q 1217 1188 1217 1086 l 1386 1235 m 447 -307 q 385 -287 408 -307 q 361 -233 361 -267 q 394 -154 361 -185 q 479 -124 426 -124 q 542 -144 518 -124 q 567 -199 567 -165 q 533 -277 567 -247 q 447 -307 500 -307 z "},"Ừ":{"ha":1107,"x_min":153,"x_max":1386,"o":"m 1386 1235 q 1297 1011 1386 1094 q 1053 924 1207 928 q 971 515 1007 742 q 935 117 935 288 q 960 0 935 42 q 861 -36 910 -36 q 764 111 764 -36 q 788 271 764 179 l 779 272 q 601 55 710 142 q 361 -32 493 -32 q 201 37 250 -32 q 153 204 153 106 q 175 413 153 272 q 257 865 197 554 l 214 950 q 299 994 256 978 q 376 1010 342 1010 q 423 990 407 1010 q 439 935 439 971 q 399 711 439 915 q 341 407 363 526 q 319 243 319 288 q 345 128 319 165 q 442 90 371 90 q 567 135 499 90 q 698 262 635 181 q 800 446 761 343 q 790 601 790 517 q 831 888 790 765 q 982 1010 872 1010 q 1068 979 1028 1010 q 1178 1033 1140 979 q 1217 1188 1217 1086 l 1386 1235 m 831 1119 q 735 1149 806 1119 q 601 1195 657 1179 q 479 1211 544 1211 q 467 1286 467 1240 q 542 1371 467 1371 q 603 1356 575 1371 q 681 1304 632 1340 q 776 1241 731 1268 q 882 1190 822 1214 q 831 1119 869 1119 z "},"Ử":{"ha":1107,"x_min":153,"x_max":1386,"o":"m 1386 1235 q 1297 1011 1386 1094 q 1053 924 1207 928 q 971 515 1007 742 q 935 117 935 288 q 960 0 935 42 q 861 -36 910 -36 q 764 111 764 -36 q 788 271 764 179 l 779 272 q 601 55 710 142 q 361 -32 493 -32 q 201 37 250 -32 q 153 204 153 106 q 175 413 153 272 q 257 865 197 554 l 214 950 q 299 994 256 978 q 376 1010 342 1010 q 423 990 407 1010 q 439 935 439 971 q 399 711 439 915 q 341 407 363 526 q 319 243 319 288 q 345 128 319 165 q 442 90 371 90 q 567 135 499 90 q 698 262 635 181 q 800 446 761 343 q 790 601 790 517 q 831 888 790 765 q 982 1010 872 1010 q 1068 979 1028 1010 q 1178 1033 1140 979 q 1217 1188 1217 1086 l 1386 1235 m 581 1074 q 722 1169 676 1121 q 767 1271 767 1218 q 745 1335 767 1313 q 682 1358 724 1358 q 612 1341 644 1358 q 538 1283 579 1324 q 608 1410 550 1360 q 739 1461 665 1461 q 855 1423 813 1461 q 897 1319 897 1385 q 817 1155 897 1222 q 585 1056 738 1088 l 581 1074 z "},"Ữ":{"ha":1107,"x_min":153,"x_max":1386,"o":"m 1386 1235 q 1297 1011 1386 1094 q 1053 924 1207 928 q 971 515 1007 742 q 935 117 935 288 q 960 0 935 42 q 861 -36 910 -36 q 764 111 764 -36 q 788 271 764 179 l 779 272 q 601 55 710 142 q 361 -32 493 -32 q 201 37 250 -32 q 153 204 153 106 q 175 413 153 272 q 257 865 197 554 l 214 950 q 299 994 256 978 q 376 1010 342 1010 q 423 990 407 1010 q 439 935 439 971 q 399 711 439 915 q 341 407 363 526 q 319 243 319 288 q 345 128 319 165 q 442 90 371 90 q 567 135 499 90 q 698 262 635 181 q 800 446 761 343 q 790 601 790 517 q 831 888 790 765 q 982 1010 872 1010 q 1068 979 1028 1010 q 1178 1033 1140 979 q 1217 1188 1217 1086 l 1386 1235 m 526 1149 q 467 1164 483 1149 q 451 1215 451 1179 q 479 1319 451 1257 q 567 1301 531 1301 q 653 1311 613 1301 q 747 1339 694 1321 q 813 1358 786 1351 q 863 1365 839 1365 q 922 1350 906 1365 q 938 1299 938 1335 q 910 1193 938 1251 q 822 1211 861 1211 q 739 1202 778 1211 q 643 1175 700 1193 q 575 1155 600 1161 q 526 1149 550 1149 z "},"Ű":{"ha":1107,"x_min":153,"x_max":1068,"o":"m 861 -36 q 764 111 764 -36 q 788 271 764 179 l 779 272 q 601 55 710 142 q 361 -32 493 -32 q 201 37 250 -32 q 153 204 153 106 q 175 413 153 272 q 257 865 197 554 l 214 950 q 299 994 256 978 q 376 1010 342 1010 q 423 990 407 1010 q 439 935 439 971 q 399 711 439 915 q 341 407 363 526 q 319 243 319 288 q 345 128 319 165 q 442 90 371 90 q 567 135 499 90 q 698 262 635 181 q 800 446 761 343 q 790 601 790 517 q 831 888 790 765 q 982 1010 872 1010 q 1068 979 1028 1010 q 978 556 1021 808 q 935 117 935 304 q 960 0 935 42 q 861 -36 910 -36 m 342 1119 q 293 1190 301 1119 q 378 1239 340 1213 q 457 1300 415 1265 q 528 1354 500 1338 q 588 1371 557 1371 q 654 1286 654 1371 q 643 1211 654 1238 q 539 1195 588 1211 q 428 1150 490 1179 q 342 1119 364 1119 m 742 1119 q 694 1190 703 1119 q 778 1237 742 1211 q 858 1300 814 1263 q 931 1354 904 1338 q 990 1371 958 1371 q 1056 1286 1056 1371 q 1046 1211 1056 1239 q 940 1195 989 1211 q 828 1150 890 1179 q 779 1128 803 1138 q 742 1119 756 1119 z "},"Ū":{"ha":1107,"x_min":153,"x_max":1068,"o":"m 861 -36 q 764 111 764 -36 q 788 271 764 179 l 779 272 q 601 55 710 142 q 361 -32 493 -32 q 201 37 250 -32 q 153 204 153 106 q 175 413 153 272 q 257 865 197 554 l 214 950 q 299 994 256 978 q 376 1010 342 1010 q 423 990 407 1010 q 439 935 439 971 q 399 711 439 915 q 341 407 363 526 q 319 243 319 288 q 345 128 319 165 q 442 90 371 90 q 567 135 499 90 q 698 262 635 181 q 800 446 761 343 q 790 601 790 517 q 831 888 790 765 q 982 1010 872 1010 q 1068 979 1028 1010 q 978 556 1021 808 q 935 117 935 304 q 960 0 935 42 q 861 -36 910 -36 m 529 1164 q 469 1229 469 1164 q 480 1283 469 1250 q 501 1336 490 1315 q 542 1324 517 1329 q 589 1319 568 1319 q 713 1325 629 1319 q 846 1331 799 1331 q 918 1315 894 1331 q 942 1265 942 1299 q 924 1181 942 1226 q 886 1190 913 1186 q 833 1193 860 1193 q 678 1178 775 1193 q 529 1164 575 1164 z "},"Ų":{"ha":1107,"x_min":153,"x_max":1068,"o":"m 739 -232 q 765 -297 739 -274 q 840 -319 792 -319 q 902 -308 872 -319 q 968 -272 932 -297 q 897 -387 956 -340 q 767 -433 839 -433 q 651 -393 693 -433 q 608 -283 608 -353 q 663 -132 608 -197 q 822 -28 717 -67 q 764 111 764 -3 q 788 271 764 179 l 779 272 q 601 55 710 142 q 361 -32 493 -32 q 201 37 250 -32 q 153 204 153 106 q 175 413 153 272 q 257 865 197 554 l 214 950 q 299 994 256 978 q 376 1010 342 1010 q 423 990 407 1010 q 439 935 439 971 q 399 711 439 915 q 341 407 363 526 q 319 243 319 288 q 345 128 319 165 q 442 90 371 90 q 567 135 499 90 q 698 262 635 181 q 800 446 761 343 q 790 601 790 517 q 831 888 790 765 q 982 1010 872 1010 q 1068 979 1028 1010 q 978 556 1021 808 q 935 117 935 304 q 960 0 935 42 q 907 -29 939 -15 q 780 -128 821 -78 q 739 -232 739 -178 z "},"Ů":{"ha":1107,"x_min":153,"x_max":1068,"o":"m 861 -36 q 764 111 764 -36 q 788 271 764 179 l 779 272 q 601 55 710 142 q 361 -32 493 -32 q 201 37 250 -32 q 153 204 153 106 q 175 413 153 272 q 257 865 197 554 l 214 950 q 299 994 256 978 q 376 1010 342 1010 q 423 990 407 1010 q 439 935 439 971 q 399 711 439 915 q 341 407 363 526 q 319 243 319 288 q 345 128 319 165 q 442 90 371 90 q 567 135 499 90 q 698 262 635 181 q 800 446 761 343 q 790 601 790 517 q 831 888 790 765 q 982 1010 872 1010 q 1068 979 1028 1010 q 978 556 1021 808 q 935 117 935 304 q 960 0 935 42 q 861 -36 910 -36 m 685 1069 q 542 1119 594 1069 q 488 1254 489 1168 q 558 1426 489 1360 q 739 1493 628 1493 q 883 1443 829 1493 q 936 1308 936 1393 q 905 1185 936 1239 q 816 1100 874 1131 q 685 1069 758 1069 m 694 1153 q 777 1197 744 1153 q 810 1310 810 1242 q 791 1386 810 1363 q 731 1411 772 1410 q 665 1401 704 1411 q 613 1260 613 1342 q 635 1183 613 1213 q 694 1153 658 1153 z "},"Ũ":{"ha":1107,"x_min":153,"x_max":1068,"o":"m 861 -36 q 764 111 764 -36 q 788 271 764 179 l 779 272 q 601 55 710 142 q 361 -32 493 -32 q 201 37 250 -32 q 153 204 153 106 q 175 413 153 272 q 257 865 197 554 l 214 950 q 299 994 256 978 q 376 1010 342 1010 q 423 990 407 1010 q 439 935 439 971 q 399 711 439 915 q 341 407 363 526 q 319 243 319 288 q 345 128 319 165 q 442 90 371 90 q 567 135 499 90 q 698 262 635 181 q 800 446 761 343 q 790 601 790 517 q 831 888 790 765 q 982 1010 872 1010 q 1068 979 1028 1010 q 978 556 1021 808 q 935 117 935 304 q 960 0 935 42 q 861 -36 910 -36 m 526 1149 q 467 1164 483 1149 q 451 1215 451 1179 q 479 1319 451 1257 q 567 1301 531 1301 q 653 1311 613 1301 q 747 1339 694 1321 q 813 1358 786 1351 q 863 1365 839 1365 q 922 1350 906 1365 q 938 1299 938 1335 q 910 1193 938 1251 q 822 1211 861 1211 q 739 1202 778 1211 q 643 1175 700 1193 q 575 1155 600 1161 q 526 1149 550 1149 z "},"V":{"ha":857,"x_min":28,"x_max":857,"o":"m 128 421 q 129 536 129 460 q 108 801 129 694 q 28 971 88 907 q 135 1008 78 1008 q 237 958 201 1008 q 286 795 272 908 q 300 475 300 682 q 299 94 300 128 l 315 94 q 597 560 510 383 q 685 829 685 738 q 651 971 685 917 q 719 1001 693 993 q 772 1008 744 1008 q 834 975 811 1008 q 857 886 857 942 q 758 572 857 782 q 463 64 658 363 l 489 17 q 411 -25 463 -8 q 311 -42 360 -42 q 199 -11 239 -42 q 143 92 160 19 q 126 300 126 165 l 128 421 z "},"W":{"ha":1361,"x_min":28,"x_max":1360,"o":"m 1360 886 q 986 64 1360 678 l 1011 17 q 940 -25 988 -8 q 844 -42 892 -42 q 731 13 761 -42 q 694 176 700 68 l 676 421 l 650 375 q 485 114 553 204 q 362 -9 417 24 q 246 -42 307 -42 q 165 7 188 -42 q 142 150 142 56 l 143 417 q 120 754 143 619 q 28 971 97 889 q 140 1008 79 1008 q 248 958 211 1008 q 299 796 285 908 q 313 475 313 683 q 311 94 313 128 l 329 94 q 660 640 549 365 l 640 915 q 685 947 656 935 q 753 958 715 958 q 826 927 799 958 q 854 842 854 896 q 801 651 854 761 l 821 94 l 838 94 q 1103 560 1021 383 q 1186 829 1186 738 q 1150 971 1186 913 q 1217 1001 1192 993 q 1274 1008 1243 1008 q 1337 975 1314 1008 q 1360 886 1360 942 z "},"Ẃ":{"ha":1361,"x_min":28,"x_max":1360,"o":"m 1360 886 q 986 64 1360 678 l 1011 17 q 940 -25 988 -8 q 844 -42 892 -42 q 731 13 761 -42 q 694 176 700 68 l 676 421 l 650 375 q 485 114 553 204 q 362 -9 417 24 q 246 -42 307 -42 q 165 7 188 -42 q 142 150 142 56 l 143 417 q 120 754 143 619 q 28 971 97 889 q 140 1008 79 1008 q 248 958 211 1008 q 299 796 285 908 q 313 475 313 683 q 311 94 313 128 l 329 94 q 660 640 549 365 l 640 915 q 685 947 656 935 q 753 958 715 958 q 826 927 799 958 q 854 842 854 896 q 801 651 854 761 l 821 94 l 838 94 q 1103 560 1021 383 q 1186 829 1186 738 q 1150 971 1186 913 q 1217 1001 1192 993 q 1274 1008 1243 1008 q 1337 975 1314 1008 q 1360 886 1360 942 m 661 1119 q 610 1190 622 1119 q 715 1241 669 1214 q 811 1304 761 1268 q 888 1356 860 1340 q 950 1371 917 1371 q 1025 1286 1025 1371 q 1013 1211 1025 1240 q 891 1195 947 1211 q 757 1149 835 1179 q 661 1119 686 1119 z "},"Ŵ":{"ha":1361,"x_min":28,"x_max":1360,"o":"m 1360 886 q 986 64 1360 678 l 1011 17 q 940 -25 988 -8 q 844 -42 892 -42 q 731 13 761 -42 q 694 176 700 68 l 676 421 l 650 375 q 485 114 553 204 q 362 -9 417 24 q 246 -42 307 -42 q 165 7 188 -42 q 142 150 142 56 l 143 417 q 120 754 143 619 q 28 971 97 889 q 140 1008 79 1008 q 248 958 211 1008 q 299 796 285 908 q 313 475 313 683 q 311 94 313 128 l 329 94 q 660 640 549 365 l 640 915 q 685 947 656 935 q 753 958 715 958 q 826 927 799 958 q 854 842 854 896 q 801 651 854 761 l 821 94 l 838 94 q 1103 560 1021 383 q 1186 829 1186 738 q 1150 971 1186 913 q 1217 1001 1192 993 q 1274 1008 1243 1008 q 1337 975 1314 1008 q 1360 886 1360 942 m 756 1386 q 812 1413 785 1404 q 883 1421 839 1421 q 952 1403 925 1421 q 981 1347 979 1385 l 986 1226 q 1028 1136 988 1167 q 932 1110 979 1110 q 874 1127 894 1110 q 853 1189 853 1144 q 869 1351 853 1294 l 849 1351 q 788 1256 811 1317 q 767 1135 764 1194 q 728 1117 757 1124 q 667 1110 700 1110 q 623 1121 639 1110 q 607 1150 607 1132 q 653 1268 607 1199 q 756 1386 700 1338 z "},"Ẅ":{"ha":1361,"x_min":28,"x_max":1360,"o":"m 1360 886 q 986 64 1360 678 l 1011 17 q 940 -25 988 -8 q 844 -42 892 -42 q 731 13 761 -42 q 694 176 700 68 l 676 421 l 650 375 q 485 114 553 204 q 362 -9 417 24 q 246 -42 307 -42 q 165 7 188 -42 q 142 150 142 56 l 143 417 q 120 754 143 619 q 28 971 97 889 q 140 1008 79 1008 q 248 958 211 1008 q 299 796 285 908 q 313 475 313 683 q 311 94 313 128 l 329 94 q 660 640 549 365 l 640 915 q 685 947 656 935 q 753 958 715 958 q 826 927 799 958 q 854 842 854 896 q 801 651 854 761 l 821 94 l 838 94 q 1103 560 1021 383 q 1186 829 1186 738 q 1150 971 1186 913 q 1217 1001 1192 993 q 1274 1008 1243 1008 q 1337 975 1314 1008 q 1360 886 1360 942 m 607 1139 q 543 1160 567 1139 q 519 1218 519 1182 q 552 1291 519 1260 q 633 1322 585 1322 q 700 1301 675 1322 q 725 1244 725 1279 q 692 1169 725 1200 q 607 1139 658 1139 m 974 1139 q 907 1160 932 1139 q 882 1218 882 1182 q 915 1291 882 1260 q 999 1322 949 1322 q 1063 1301 1039 1322 q 1088 1244 1088 1279 q 1055 1169 1088 1200 q 974 1139 1022 1139 z "},"Ẁ":{"ha":1361,"x_min":28,"x_max":1360,"o":"m 1360 886 q 986 64 1360 678 l 1011 17 q 940 -25 988 -8 q 844 -42 892 -42 q 731 13 761 -42 q 694 176 700 68 l 676 421 l 650 375 q 485 114 553 204 q 362 -9 417 24 q 246 -42 307 -42 q 165 7 188 -42 q 142 150 142 56 l 143 417 q 120 754 143 619 q 28 971 97 889 q 140 1008 79 1008 q 248 958 211 1008 q 299 796 285 908 q 313 475 313 683 q 311 94 313 128 l 329 94 q 660 640 549 365 l 640 915 q 685 947 656 935 q 753 958 715 958 q 826 927 799 958 q 854 842 854 896 q 801 651 854 761 l 821 94 l 838 94 q 1103 560 1021 383 q 1186 829 1186 738 q 1150 971 1186 913 q 1217 1001 1192 993 q 1274 1008 1243 1008 q 1337 975 1314 1008 q 1360 886 1360 942 m 928 1119 q 832 1149 903 1119 q 698 1195 754 1179 q 576 1211 642 1211 q 564 1286 564 1240 q 639 1371 564 1371 q 701 1356 672 1371 q 778 1304 729 1340 q 874 1241 828 1268 q 979 1190 919 1214 q 928 1119 967 1119 z "},"X":{"ha":1068,"x_min":56,"x_max":1044,"o":"m 782 256 q 880 117 832 161 q 997 47 928 72 q 933 -18 972 6 q 850 -42 893 -42 q 742 1 789 -42 q 638 150 696 43 l 507 393 q 304 207 369 292 q 239 58 239 122 q 253 -4 239 26 q 207 -31 238 -19 q 146 -42 176 -42 q 80 -12 104 -42 q 56 64 56 17 q 104 177 56 115 q 290 347 153 239 l 460 481 l 336 711 q 236 849 285 804 q 118 919 188 894 q 184 985 144 961 q 267 1010 224 1010 q 376 967 329 1010 q 481 817 424 924 l 606 585 q 799 764 738 682 q 861 908 861 846 q 849 971 861 946 q 893 997 863 985 q 954 1008 924 1008 q 1020 979 996 1008 q 1044 901 1044 950 q 995 790 1044 853 q 813 621 946 726 l 653 496 l 782 256 z "},"Y":{"ha":1101,"x_min":-71,"x_max":1035,"o":"m 950 1008 q 1012 975 989 1008 q 1035 885 1035 942 q 921 326 1035 611 q 599 -148 807 40 q 124 -336 390 -336 q -22 -301 26 -336 q -71 -206 -71 -265 q -42 -119 -71 -167 q 37 -183 -8 -160 q 164 -207 82 -207 q 335 -165 238 -207 q 526 -40 433 -122 q 345 44 404 -32 q 271 228 286 121 q 251 513 256 336 q 242 712 249 633 q 214 860 236 790 q 149 971 192 929 q 253 1008 199 1008 q 374 946 335 1008 q 421 793 413 883 q 431 544 429 703 q 439 294 431 390 q 484 124 447 197 q 599 32 521 50 q 790 365 718 167 q 863 829 863 564 q 829 971 863 917 q 897 1001 871 993 q 950 1008 922 1008 z "},"Ý":{"ha":1101,"x_min":-71,"x_max":1035,"o":"m 950 1008 q 1012 975 989 1008 q 1035 885 1035 942 q 921 326 1035 611 q 599 -148 807 40 q 124 -336 390 -336 q -22 -301 26 -336 q -71 -206 -71 -265 q -42 -119 -71 -167 q 37 -183 -8 -160 q 164 -207 82 -207 q 335 -165 238 -207 q 526 -40 433 -122 q 345 44 404 -32 q 271 228 286 121 q 251 513 256 336 q 242 712 249 633 q 214 860 236 790 q 149 971 192 929 q 253 1008 199 1008 q 374 946 335 1008 q 421 793 413 883 q 431 544 429 703 q 439 294 431 390 q 484 124 447 197 q 599 32 521 50 q 790 365 718 167 q 863 829 863 564 q 829 971 863 917 q 897 1001 871 993 q 950 1008 922 1008 m 528 1119 q 476 1190 489 1119 q 582 1241 536 1214 q 678 1304 628 1268 q 755 1356 726 1340 q 817 1371 783 1371 q 892 1286 892 1371 q 879 1211 892 1240 q 758 1195 814 1211 q 624 1149 701 1179 q 528 1119 553 1119 z "},"Ŷ":{"ha":1101,"x_min":-71,"x_max":1035,"o":"m 950 1008 q 1012 975 989 1008 q 1035 885 1035 942 q 921 326 1035 611 q 599 -148 807 40 q 124 -336 390 -336 q -22 -301 26 -336 q -71 -206 -71 -265 q -42 -119 -71 -167 q 37 -183 -8 -160 q 164 -207 82 -207 q 335 -165 238 -207 q 526 -40 433 -122 q 345 44 404 -32 q 271 228 286 121 q 251 513 256 336 q 242 712 249 633 q 214 860 236 790 q 149 971 192 929 q 253 1008 199 1008 q 374 946 335 1008 q 421 793 413 883 q 431 544 429 703 q 439 294 431 390 q 484 124 447 197 q 599 32 521 50 q 790 365 718 167 q 863 829 863 564 q 829 971 863 917 q 897 1001 871 993 q 950 1008 922 1008 m 622 1386 q 678 1413 651 1404 q 750 1421 706 1421 q 819 1403 792 1421 q 847 1347 846 1385 l 853 1226 q 894 1136 854 1167 q 799 1110 846 1110 q 740 1127 761 1110 q 719 1189 719 1144 q 736 1351 719 1294 l 715 1351 q 654 1256 678 1317 q 633 1135 631 1194 q 595 1117 624 1124 q 533 1110 567 1110 q 490 1121 506 1110 q 474 1150 474 1132 q 520 1268 474 1199 q 622 1386 567 1338 z "},"Ÿ":{"ha":1101,"x_min":-71,"x_max":1035,"o":"m 950 1008 q 1012 975 989 1008 q 1035 885 1035 942 q 921 326 1035 611 q 599 -148 807 40 q 124 -336 390 -336 q -22 -301 26 -336 q -71 -206 -71 -265 q -42 -119 -71 -167 q 37 -183 -8 -160 q 164 -207 82 -207 q 335 -165 238 -207 q 526 -40 433 -122 q 345 44 404 -32 q 271 228 286 121 q 251 513 256 336 q 242 712 249 633 q 214 860 236 790 q 149 971 192 929 q 253 1008 199 1008 q 374 946 335 1008 q 421 793 413 883 q 431 544 429 703 q 439 294 431 390 q 484 124 447 197 q 599 32 521 50 q 790 365 718 167 q 863 829 863 564 q 829 971 863 917 q 897 1001 871 993 q 950 1008 922 1008 m 474 1139 q 410 1160 433 1139 q 386 1218 386 1182 q 419 1291 386 1260 q 500 1322 451 1322 q 567 1301 542 1322 q 592 1244 592 1279 q 558 1169 592 1200 q 474 1139 525 1139 m 840 1139 q 774 1160 799 1139 q 749 1218 749 1182 q 782 1291 749 1260 q 865 1322 815 1322 q 930 1301 906 1322 q 954 1244 954 1279 q 922 1169 954 1200 q 840 1139 889 1139 z "},"Ỵ":{"ha":1101,"x_min":-71,"x_max":1035,"o":"m 950 1008 q 1012 975 989 1008 q 1035 885 1035 942 q 921 326 1035 611 q 599 -148 807 40 q 124 -336 390 -336 q -22 -301 26 -336 q -71 -206 -71 -265 q -42 -119 -71 -167 q 37 -183 -8 -160 q 164 -207 82 -207 q 335 -165 238 -207 q 526 -40 433 -122 q 345 44 404 -32 q 271 228 286 121 q 251 513 256 336 q 242 712 249 633 q 214 860 236 790 q 149 971 192 929 q 253 1008 199 1008 q 374 946 335 1008 q 421 793 413 883 q 431 544 429 703 q 439 294 431 390 q 484 124 447 197 q 599 32 521 50 q 790 365 718 167 q 863 829 863 564 q 829 971 863 917 q 897 1001 871 993 q 950 1008 922 1008 m 388 -585 q 325 -565 349 -585 q 301 -511 301 -544 q 334 -432 301 -462 q 419 -401 367 -401 q 483 -422 458 -401 q 507 -476 507 -443 q 474 -555 507 -525 q 388 -585 440 -585 z "},"Ỳ":{"ha":1101,"x_min":-71,"x_max":1035,"o":"m 950 1008 q 1012 975 989 1008 q 1035 885 1035 942 q 921 326 1035 611 q 599 -148 807 40 q 124 -336 390 -336 q -22 -301 26 -336 q -71 -206 -71 -265 q -42 -119 -71 -167 q 37 -183 -8 -160 q 164 -207 82 -207 q 335 -165 238 -207 q 526 -40 433 -122 q 345 44 404 -32 q 271 228 286 121 q 251 513 256 336 q 242 712 249 633 q 214 860 236 790 q 149 971 192 929 q 253 1008 199 1008 q 374 946 335 1008 q 421 793 413 883 q 431 544 429 703 q 439 294 431 390 q 484 124 447 197 q 599 32 521 50 q 790 365 718 167 q 863 829 863 564 q 829 971 863 917 q 897 1001 871 993 q 950 1008 922 1008 m 794 1119 q 699 1149 769 1119 q 565 1195 621 1179 q 443 1211 508 1211 q 431 1286 431 1240 q 506 1371 431 1371 q 567 1356 539 1371 q 644 1304 596 1340 q 740 1241 694 1268 q 846 1190 786 1214 q 794 1119 833 1119 z "},"Ỷ":{"ha":1101,"x_min":-71,"x_max":1035,"o":"m 950 1008 q 1012 975 989 1008 q 1035 885 1035 942 q 921 326 1035 611 q 599 -148 807 40 q 124 -336 390 -336 q -22 -301 26 -336 q -71 -206 -71 -265 q -42 -119 -71 -167 q 37 -183 -8 -160 q 164 -207 82 -207 q 335 -165 238 -207 q 526 -40 433 -122 q 345 44 404 -32 q 271 228 286 121 q 251 513 256 336 q 242 712 249 633 q 214 860 236 790 q 149 971 192 929 q 253 1008 199 1008 q 374 946 335 1008 q 421 793 413 883 q 431 544 429 703 q 439 294 431 390 q 484 124 447 197 q 599 32 521 50 q 790 365 718 167 q 863 829 863 564 q 829 971 863 917 q 897 1001 871 993 q 950 1008 922 1008 m 544 1074 q 685 1169 640 1121 q 731 1271 731 1218 q 709 1335 731 1313 q 646 1358 688 1358 q 576 1341 608 1358 q 501 1283 543 1324 q 572 1410 514 1360 q 703 1461 629 1461 q 819 1423 776 1461 q 861 1319 861 1385 q 781 1155 861 1222 q 549 1056 701 1088 l 544 1074 z "},"Ỹ":{"ha":1101,"x_min":-71,"x_max":1035,"o":"m 950 1008 q 1012 975 989 1008 q 1035 885 1035 942 q 921 326 1035 611 q 599 -148 807 40 q 124 -336 390 -336 q -22 -301 26 -336 q -71 -206 -71 -265 q -42 -119 -71 -167 q 37 -183 -8 -160 q 164 -207 82 -207 q 335 -165 238 -207 q 526 -40 433 -122 q 345 44 404 -32 q 271 228 286 121 q 251 513 256 336 q 242 712 249 633 q 214 860 236 790 q 149 971 192 929 q 253 1008 199 1008 q 374 946 335 1008 q 421 793 413 883 q 431 544 429 703 q 439 294 431 390 q 484 124 447 197 q 599 32 521 50 q 790 365 718 167 q 863 829 863 564 q 829 971 863 917 q 897 1001 871 993 q 950 1008 922 1008 m 490 1149 q 431 1164 447 1149 q 415 1215 415 1179 q 443 1319 415 1257 q 531 1301 494 1301 q 617 1311 576 1301 q 711 1339 658 1321 q 776 1358 750 1351 q 826 1365 803 1365 q 885 1350 869 1365 q 901 1299 901 1335 q 874 1193 901 1251 q 786 1211 825 1211 q 703 1202 742 1211 q 607 1175 664 1193 q 539 1155 564 1161 q 490 1149 514 1149 z "},"Z":{"ha":908,"x_min":38,"x_max":888,"o":"m 888 925 q 858 853 888 882 q 767 807 828 825 l 340 164 l 415 143 q 556 107 503 119 q 649 94 608 94 l 800 176 q 827 128 819 149 q 835 86 835 107 q 781 -5 835 32 q 649 -42 726 -42 q 488 -24 568 -42 q 267 44 407 -7 q 194 -14 225 3 q 125 -31 163 -31 q 63 -6 88 -31 q 38 54 38 18 q 78 144 38 107 q 182 186 118 181 l 578 785 q 519 783 560 783 q 232 816 318 783 q 146 924 146 849 q 153 974 146 949 q 171 1017 160 1000 q 410 942 279 972 q 643 907 542 911 q 706 980 665 951 q 786 1008 746 1008 q 861 987 835 1008 q 888 925 888 965 z "},"Ź":{"ha":908,"x_min":38,"x_max":888,"o":"m 888 925 q 858 853 888 882 q 767 807 828 825 l 340 164 l 415 143 q 556 107 503 119 q 649 94 608 94 l 800 176 q 827 128 819 149 q 835 86 835 107 q 781 -5 835 32 q 649 -42 726 -42 q 488 -24 568 -42 q 267 44 407 -7 q 194 -14 225 3 q 125 -31 163 -31 q 63 -6 88 -31 q 38 54 38 18 q 78 144 38 107 q 182 186 118 181 l 578 785 q 519 783 560 783 q 232 816 318 783 q 146 924 146 849 q 153 974 146 949 q 171 1017 160 1000 q 410 942 279 972 q 643 907 542 911 q 706 980 665 951 q 786 1008 746 1008 q 861 987 835 1008 q 888 925 888 965 m 447 1119 q 396 1190 408 1119 q 501 1241 456 1214 q 597 1304 547 1268 q 674 1356 646 1340 q 736 1371 703 1371 q 811 1286 811 1371 q 799 1211 811 1240 q 677 1195 733 1211 q 543 1149 621 1179 q 447 1119 472 1119 z "},"Ž":{"ha":908,"x_min":38,"x_max":888,"o":"m 888 925 q 858 853 888 882 q 767 807 828 825 l 340 164 l 415 143 q 556 107 503 119 q 649 94 608 94 l 800 176 q 827 128 819 149 q 835 86 835 107 q 781 -5 835 32 q 649 -42 726 -42 q 488 -24 568 -42 q 267 44 407 -7 q 194 -14 225 3 q 125 -31 163 -31 q 63 -6 88 -31 q 38 54 38 18 q 78 144 38 107 q 182 186 118 181 l 578 785 q 519 783 560 783 q 232 816 318 783 q 146 924 146 849 q 153 974 146 949 q 171 1017 160 1000 q 410 942 279 972 q 643 907 542 911 q 706 980 665 951 q 786 1008 746 1008 q 861 987 835 1008 q 888 925 888 965 m 661 1144 q 605 1118 631 1126 q 535 1110 579 1110 q 465 1128 492 1110 q 435 1183 438 1146 l 431 1304 q 389 1394 429 1364 q 485 1421 435 1421 q 544 1403 524 1421 q 564 1342 564 1386 q 547 1179 564 1244 l 568 1179 q 628 1275 604 1214 q 651 1396 653 1336 q 688 1414 660 1407 q 749 1421 717 1421 q 793 1410 778 1421 q 808 1381 808 1399 q 763 1261 808 1331 q 661 1144 717 1192 z "},"Ż":{"ha":908,"x_min":38,"x_max":888,"o":"m 888 925 q 858 853 888 882 q 767 807 828 825 l 340 164 l 415 143 q 556 107 503 119 q 649 94 608 94 l 800 176 q 827 128 819 149 q 835 86 835 107 q 781 -5 835 32 q 649 -42 726 -42 q 488 -24 568 -42 q 267 44 407 -7 q 194 -14 225 3 q 125 -31 163 -31 q 63 -6 88 -31 q 38 54 38 18 q 78 144 38 107 q 182 186 118 181 l 578 785 q 519 783 560 783 q 232 816 318 783 q 146 924 146 849 q 153 974 146 949 q 171 1017 160 1000 q 410 942 279 972 q 643 907 542 911 q 706 980 665 951 q 786 1008 746 1008 q 861 987 835 1008 q 888 925 888 965 m 590 1144 q 526 1165 550 1144 q 503 1218 503 1185 q 536 1297 503 1267 q 621 1328 569 1328 q 685 1308 661 1328 q 708 1253 708 1288 q 676 1175 708 1206 q 590 1144 643 1144 z "},"a":{"ha":1039,"x_min":106,"x_max":926,"o":"m 818 76 q 843 4 818 28 q 750 -35 800 -35 q 678 -6 703 -35 q 653 79 653 24 q 663 163 653 110 l 649 169 q 523 19 599 72 q 358 -35 447 -35 q 226 6 283 -35 q 137 120 168 46 q 106 292 106 194 q 176 566 106 442 q 369 762 247 690 q 639 833 492 833 q 769 822 703 833 q 785 778 779 806 q 851 799 814 799 q 906 782 886 799 q 926 736 926 765 q 917 660 926 704 q 888 529 908 615 q 836 286 854 389 q 818 76 818 183 m 425 96 q 638 260 554 96 q 763 757 721 425 q 502 691 613 753 q 334 526 392 629 q 276 296 276 424 q 315 149 276 201 q 425 96 354 96 z "},"á":{"ha":1039,"x_min":106,"x_max":926,"o":"m 818 76 q 843 4 818 28 q 750 -35 800 -35 q 678 -6 703 -35 q 653 79 653 24 q 663 163 653 110 l 649 169 q 523 19 599 72 q 358 -35 447 -35 q 226 6 283 -35 q 137 120 168 46 q 106 292 106 194 q 176 566 106 442 q 369 762 247 690 q 639 833 492 833 q 769 822 703 833 q 785 778 779 806 q 851 799 814 799 q 906 782 886 799 q 926 736 926 765 q 917 660 926 704 q 888 529 908 615 q 836 286 854 389 q 818 76 818 183 m 425 96 q 638 260 554 96 q 763 757 721 425 q 502 691 613 753 q 334 526 392 629 q 276 296 276 424 q 315 149 276 201 q 425 96 354 96 m 481 932 q 429 1003 442 932 q 535 1053 489 1026 q 631 1117 581 1081 q 708 1168 679 1153 q 769 1183 736 1183 q 844 1099 844 1183 q 832 1024 844 1053 q 710 1008 767 1024 q 576 961 654 992 q 481 932 506 932 z "},"ă":{"ha":1039,"x_min":106,"x_max":926,"o":"m 818 76 q 843 4 818 28 q 750 -35 800 -35 q 678 -6 703 -35 q 653 79 653 24 q 663 163 653 110 l 649 169 q 523 19 599 72 q 358 -35 447 -35 q 226 6 283 -35 q 137 120 168 46 q 106 292 106 194 q 176 566 106 442 q 369 762 247 690 q 639 833 492 833 q 769 822 703 833 q 785 778 779 806 q 851 799 814 799 q 906 782 886 799 q 926 736 926 765 q 917 660 926 704 q 888 529 908 615 q 836 286 854 389 q 818 76 818 183 m 425 96 q 638 260 554 96 q 763 757 721 425 q 502 691 613 753 q 334 526 392 629 q 276 296 276 424 q 315 149 276 201 q 425 96 354 96 m 640 1025 q 748 1076 706 1025 q 790 1210 790 1126 q 870 1183 842 1207 q 899 1114 899 1160 q 863 1023 899 1065 q 766 955 828 981 q 631 929 704 929 q 465 969 524 929 q 407 1072 407 1010 q 435 1148 407 1113 q 510 1196 464 1183 q 640 1025 499 1025 z "},"ắ":{"ha":1039,"x_min":106,"x_max":926,"o":"m 818 76 q 843 4 818 28 q 750 -35 800 -35 q 678 -6 703 -35 q 653 79 653 24 q 663 163 653 110 l 649 169 q 523 19 599 72 q 358 -35 447 -35 q 226 6 283 -35 q 137 120 168 46 q 106 292 106 194 q 176 566 106 442 q 369 762 247 690 q 639 833 492 833 q 769 822 703 833 q 785 778 779 806 q 851 799 814 799 q 906 782 886 799 q 926 736 926 765 q 917 660 926 704 q 888 529 908 615 q 836 286 854 389 q 818 76 818 183 m 425 96 q 638 260 554 96 q 763 757 721 425 q 502 691 613 753 q 334 526 392 629 q 276 296 276 424 q 315 149 276 201 q 425 96 354 96 m 640 1025 q 748 1076 706 1025 q 790 1210 790 1126 q 870 1183 842 1207 q 899 1114 899 1160 q 863 1023 899 1065 q 766 955 828 981 q 631 929 704 929 q 465 969 524 929 q 407 1072 407 1010 q 435 1148 407 1113 q 510 1196 464 1183 q 640 1025 499 1025 m 549 1292 q 497 1363 510 1292 q 603 1413 557 1386 q 699 1476 649 1440 q 776 1528 747 1513 q 838 1543 804 1543 q 913 1458 913 1543 q 900 1383 913 1413 q 778 1367 835 1383 q 644 1321 722 1351 q 549 1292 574 1292 z "},"ặ":{"ha":1039,"x_min":106,"x_max":926,"o":"m 818 76 q 843 4 818 28 q 750 -35 800 -35 q 678 -6 703 -35 q 653 79 653 24 q 663 163 653 110 l 649 169 q 523 19 599 72 q 358 -35 447 -35 q 226 6 283 -35 q 137 120 168 46 q 106 292 106 194 q 176 566 106 442 q 369 762 247 690 q 639 833 492 833 q 769 822 703 833 q 785 778 779 806 q 851 799 814 799 q 906 782 886 799 q 926 736 926 765 q 917 660 926 704 q 888 529 908 615 q 836 286 854 389 q 818 76 818 183 m 425 96 q 638 260 554 96 q 763 757 721 425 q 502 691 613 753 q 334 526 392 629 q 276 296 276 424 q 315 149 276 201 q 425 96 354 96 m 400 -307 q 338 -287 361 -307 q 314 -233 314 -267 q 347 -154 314 -185 q 432 -124 379 -124 q 495 -144 471 -124 q 519 -199 519 -165 q 486 -277 519 -247 q 400 -307 453 -307 m 640 1025 q 748 1076 706 1025 q 790 1210 790 1126 q 870 1183 842 1207 q 899 1114 899 1160 q 863 1023 899 1065 q 766 955 828 981 q 631 929 704 929 q 465 969 524 929 q 407 1072 407 1010 q 435 1148 407 1113 q 510 1196 464 1183 q 640 1025 499 1025 z "},"ằ":{"ha":1039,"x_min":106,"x_max":926,"o":"m 818 76 q 843 4 818 28 q 750 -35 800 -35 q 678 -6 703 -35 q 653 79 653 24 q 663 163 653 110 l 649 169 q 523 19 599 72 q 358 -35 447 -35 q 226 6 283 -35 q 137 120 168 46 q 106 292 106 194 q 176 566 106 442 q 369 762 247 690 q 639 833 492 833 q 769 822 703 833 q 785 778 779 806 q 851 799 814 799 q 906 782 886 799 q 926 736 926 765 q 917 660 926 704 q 888 529 908 615 q 836 286 854 389 q 818 76 818 183 m 425 96 q 638 260 554 96 q 763 757 721 425 q 502 691 613 753 q 334 526 392 629 q 276 296 276 424 q 315 149 276 201 q 425 96 354 96 m 640 1025 q 748 1076 706 1025 q 790 1210 790 1126 q 870 1183 842 1207 q 899 1114 899 1160 q 863 1023 899 1065 q 766 955 828 981 q 631 929 704 929 q 465 969 524 929 q 407 1072 407 1010 q 435 1148 407 1113 q 510 1196 464 1183 q 640 1025 499 1025 m 815 1292 q 719 1321 790 1292 q 585 1367 642 1351 q 464 1383 529 1383 q 451 1458 451 1413 q 526 1543 451 1543 q 588 1528 560 1543 q 665 1476 617 1513 q 761 1413 715 1440 q 867 1363 807 1386 q 815 1292 854 1292 z "},"ẳ":{"ha":1039,"x_min":106,"x_max":926,"o":"m 818 76 q 843 4 818 28 q 750 -35 800 -35 q 678 -6 703 -35 q 653 79 653 24 q 663 163 653 110 l 649 169 q 523 19 599 72 q 358 -35 447 -35 q 226 6 283 -35 q 137 120 168 46 q 106 292 106 194 q 176 566 106 442 q 369 762 247 690 q 639 833 492 833 q 769 822 703 833 q 785 778 779 806 q 851 799 814 799 q 906 782 886 799 q 926 736 926 765 q 917 660 926 704 q 888 529 908 615 q 836 286 854 389 q 818 76 818 183 m 425 96 q 638 260 554 96 q 763 757 721 425 q 502 691 613 753 q 334 526 392 629 q 276 296 276 424 q 315 149 276 201 q 425 96 354 96 m 640 1025 q 748 1076 706 1025 q 790 1210 790 1126 q 870 1183 842 1207 q 899 1114 899 1160 q 863 1023 899 1065 q 766 955 828 981 q 631 929 704 929 q 465 969 524 929 q 407 1072 407 1010 q 435 1148 407 1113 q 510 1196 464 1183 q 640 1025 499 1025 m 565 1246 q 706 1342 661 1293 q 751 1443 751 1390 q 730 1508 751 1485 q 667 1531 708 1531 q 597 1513 629 1531 q 522 1456 564 1496 q 592 1583 535 1532 q 724 1633 650 1633 q 840 1595 797 1633 q 882 1492 882 1557 q 802 1327 882 1394 q 569 1228 722 1260 l 565 1246 z "},"ẵ":{"ha":1039,"x_min":106,"x_max":926,"o":"m 818 76 q 843 4 818 28 q 750 -35 800 -35 q 678 -6 703 -35 q 653 79 653 24 q 663 163 653 110 l 649 169 q 523 19 599 72 q 358 -35 447 -35 q 226 6 283 -35 q 137 120 168 46 q 106 292 106 194 q 176 566 106 442 q 369 762 247 690 q 639 833 492 833 q 769 822 703 833 q 785 778 779 806 q 851 799 814 799 q 906 782 886 799 q 926 736 926 765 q 917 660 926 704 q 888 529 908 615 q 836 286 854 389 q 818 76 818 183 m 425 96 q 638 260 554 96 q 763 757 721 425 q 502 691 613 753 q 334 526 392 629 q 276 296 276 424 q 315 149 276 201 q 425 96 354 96 m 640 1025 q 748 1076 706 1025 q 790 1210 790 1126 q 870 1183 842 1207 q 899 1114 899 1160 q 863 1023 899 1065 q 766 955 828 981 q 631 929 704 929 q 465 969 524 929 q 407 1072 407 1010 q 435 1148 407 1113 q 510 1196 464 1183 q 640 1025 499 1025 m 511 1321 q 452 1336 468 1321 q 436 1388 436 1351 q 464 1492 436 1429 q 551 1474 515 1474 q 638 1483 597 1474 q 732 1511 679 1493 q 797 1531 771 1524 q 847 1538 824 1538 q 906 1522 890 1538 q 922 1471 922 1507 q 894 1365 922 1424 q 807 1383 846 1383 q 724 1374 763 1383 q 628 1347 685 1365 q 560 1327 585 1333 q 511 1321 535 1321 z "},"â":{"ha":1039,"x_min":106,"x_max":926,"o":"m 818 76 q 843 4 818 28 q 750 -35 800 -35 q 678 -6 703 -35 q 653 79 653 24 q 663 163 653 110 l 649 169 q 523 19 599 72 q 358 -35 447 -35 q 226 6 283 -35 q 137 120 168 46 q 106 292 106 194 q 176 566 106 442 q 369 762 247 690 q 639 833 492 833 q 769 822 703 833 q 785 778 779 806 q 851 799 814 799 q 906 782 886 799 q 926 736 926 765 q 917 660 926 704 q 888 529 908 615 q 836 286 854 389 q 818 76 818 183 m 425 96 q 638 260 554 96 q 763 757 721 425 q 502 691 613 753 q 334 526 392 629 q 276 296 276 424 q 315 149 276 201 q 425 96 354 96 m 575 1199 q 631 1225 604 1217 q 703 1233 658 1233 q 772 1215 744 1233 q 800 1160 799 1197 l 806 1039 q 847 949 807 979 q 751 922 799 922 q 693 940 714 922 q 672 1001 672 957 q 689 1164 672 1107 l 668 1164 q 607 1068 631 1129 q 586 947 583 1007 q 548 929 576 936 q 486 922 519 922 q 442 933 458 922 q 426 963 426 944 q 473 1081 426 1011 q 575 1199 519 1150 z "},"ấ":{"ha":1039,"x_min":106,"x_max":926,"o":"m 818 76 q 843 4 818 28 q 750 -35 800 -35 q 678 -6 703 -35 q 653 79 653 24 q 663 163 653 110 l 649 169 q 523 19 599 72 q 358 -35 447 -35 q 226 6 283 -35 q 137 120 168 46 q 106 292 106 194 q 176 566 106 442 q 369 762 247 690 q 639 833 492 833 q 769 822 703 833 q 785 778 779 806 q 851 799 814 799 q 906 782 886 799 q 926 736 926 765 q 917 660 926 704 q 888 529 908 615 q 836 286 854 389 q 818 76 818 183 m 425 96 q 638 260 554 96 q 763 757 721 425 q 502 691 613 753 q 334 526 392 629 q 276 296 276 424 q 315 149 276 201 q 425 96 354 96 m 575 1199 q 631 1225 604 1217 q 703 1233 658 1233 q 772 1215 744 1233 q 800 1160 799 1197 l 806 1039 q 847 949 807 979 q 751 922 799 922 q 693 940 714 922 q 672 1001 672 957 q 689 1164 672 1107 l 668 1164 q 607 1068 631 1129 q 586 947 583 1007 q 548 929 576 936 q 486 922 519 922 q 442 933 458 922 q 426 963 426 944 q 473 1081 426 1011 q 575 1199 519 1150 m 560 1339 q 508 1410 521 1339 q 614 1460 568 1433 q 710 1524 660 1488 q 787 1575 758 1560 q 849 1590 815 1590 q 924 1506 924 1590 q 911 1431 924 1460 q 790 1415 846 1431 q 656 1368 733 1399 q 560 1339 585 1339 z "},"ậ":{"ha":1039,"x_min":106,"x_max":926,"o":"m 818 76 q 843 4 818 28 q 750 -35 800 -35 q 678 -6 703 -35 q 653 79 653 24 q 663 163 653 110 l 649 169 q 523 19 599 72 q 358 -35 447 -35 q 226 6 283 -35 q 137 120 168 46 q 106 292 106 194 q 176 566 106 442 q 369 762 247 690 q 639 833 492 833 q 769 822 703 833 q 785 778 779 806 q 851 799 814 799 q 906 782 886 799 q 926 736 926 765 q 917 660 926 704 q 888 529 908 615 q 836 286 854 389 q 818 76 818 183 m 425 96 q 638 260 554 96 q 763 757 721 425 q 502 691 613 753 q 334 526 392 629 q 276 296 276 424 q 315 149 276 201 q 425 96 354 96 m 400 -307 q 338 -287 361 -307 q 314 -233 314 -267 q 347 -154 314 -185 q 432 -124 379 -124 q 495 -144 471 -124 q 519 -199 519 -165 q 486 -277 519 -247 q 400 -307 453 -307 m 575 1199 q 631 1225 604 1217 q 703 1233 658 1233 q 772 1215 744 1233 q 800 1160 799 1197 l 806 1039 q 847 949 807 979 q 751 922 799 922 q 693 940 714 922 q 672 1001 672 957 q 689 1164 672 1107 l 668 1164 q 607 1068 631 1129 q 586 947 583 1007 q 548 929 576 936 q 486 922 519 922 q 442 933 458 922 q 426 963 426 944 q 473 1081 426 1011 q 575 1199 519 1150 z "},"ầ":{"ha":1039,"x_min":106,"x_max":926,"o":"m 818 76 q 843 4 818 28 q 750 -35 800 -35 q 678 -6 703 -35 q 653 79 653 24 q 663 163 653 110 l 649 169 q 523 19 599 72 q 358 -35 447 -35 q 226 6 283 -35 q 137 120 168 46 q 106 292 106 194 q 176 566 106 442 q 369 762 247 690 q 639 833 492 833 q 769 822 703 833 q 785 778 779 806 q 851 799 814 799 q 906 782 886 799 q 926 736 926 765 q 917 660 926 704 q 888 529 908 615 q 836 286 854 389 q 818 76 818 183 m 425 96 q 638 260 554 96 q 763 757 721 425 q 502 691 613 753 q 334 526 392 629 q 276 296 276 424 q 315 149 276 201 q 425 96 354 96 m 575 1199 q 631 1225 604 1217 q 703 1233 658 1233 q 772 1215 744 1233 q 800 1160 799 1197 l 806 1039 q 847 949 807 979 q 751 922 799 922 q 693 940 714 922 q 672 1001 672 957 q 689 1164 672 1107 l 668 1164 q 607 1068 631 1129 q 586 947 583 1007 q 548 929 576 936 q 486 922 519 922 q 442 933 458 922 q 426 963 426 944 q 473 1081 426 1011 q 575 1199 519 1150 m 826 1339 q 731 1368 801 1339 q 597 1415 653 1399 q 475 1431 540 1431 q 463 1506 463 1460 q 538 1590 463 1590 q 599 1575 571 1590 q 676 1524 628 1560 q 772 1460 726 1488 q 878 1410 818 1433 q 826 1339 865 1339 z "},"ẩ":{"ha":1039,"x_min":106,"x_max":926,"o":"m 818 76 q 843 4 818 28 q 750 -35 800 -35 q 678 -6 703 -35 q 653 79 653 24 q 663 163 653 110 l 649 169 q 523 19 599 72 q 358 -35 447 -35 q 226 6 283 -35 q 137 120 168 46 q 106 292 106 194 q 176 566 106 442 q 369 762 247 690 q 639 833 492 833 q 769 822 703 833 q 785 778 779 806 q 851 799 814 799 q 906 782 886 799 q 926 736 926 765 q 917 660 926 704 q 888 529 908 615 q 836 286 854 389 q 818 76 818 183 m 425 96 q 638 260 554 96 q 763 757 721 425 q 502 691 613 753 q 334 526 392 629 q 276 296 276 424 q 315 149 276 201 q 425 96 354 96 m 575 1199 q 631 1225 604 1217 q 703 1233 658 1233 q 772 1215 744 1233 q 800 1160 799 1197 l 806 1039 q 847 949 807 979 q 751 922 799 922 q 693 940 714 922 q 672 1001 672 957 q 689 1164 672 1107 l 668 1164 q 607 1068 631 1129 q 586 947 583 1007 q 548 929 576 936 q 486 922 519 922 q 442 933 458 922 q 426 963 426 944 q 473 1081 426 1011 q 575 1199 519 1150 m 576 1293 q 717 1389 672 1340 q 763 1490 763 1438 q 741 1555 763 1532 q 678 1578 719 1578 q 608 1560 640 1578 q 533 1503 575 1543 q 603 1630 546 1579 q 735 1681 661 1681 q 851 1642 808 1681 q 893 1539 893 1604 q 813 1374 893 1442 q 581 1275 733 1307 l 576 1293 z "},"ẫ":{"ha":1039,"x_min":106,"x_max":933,"o":"m 818 76 q 843 4 818 28 q 750 -35 800 -35 q 678 -6 703 -35 q 653 79 653 24 q 663 163 653 110 l 649 169 q 523 19 599 72 q 358 -35 447 -35 q 226 6 283 -35 q 137 120 168 46 q 106 292 106 194 q 176 566 106 442 q 369 762 247 690 q 639 833 492 833 q 769 822 703 833 q 785 778 779 806 q 851 799 814 799 q 906 782 886 799 q 926 736 926 765 q 917 660 926 704 q 888 529 908 615 q 836 286 854 389 q 818 76 818 183 m 425 96 q 638 260 554 96 q 763 757 721 425 q 502 691 613 753 q 334 526 392 629 q 276 296 276 424 q 315 149 276 201 q 425 96 354 96 m 575 1199 q 631 1225 604 1217 q 703 1233 658 1233 q 772 1215 744 1233 q 800 1160 799 1197 l 806 1039 q 847 949 807 979 q 751 922 799 922 q 693 940 714 922 q 672 1001 672 957 q 689 1164 672 1107 l 668 1164 q 607 1068 631 1129 q 586 947 583 1007 q 548 929 576 936 q 486 922 519 922 q 442 933 458 922 q 426 963 426 944 q 473 1081 426 1011 q 575 1199 519 1150 m 522 1368 q 463 1383 479 1368 q 447 1435 447 1399 q 475 1539 447 1476 q 563 1521 526 1521 q 649 1531 608 1521 q 743 1558 690 1540 q 808 1578 782 1571 q 858 1585 835 1585 q 917 1569 901 1585 q 933 1518 933 1554 q 906 1413 933 1471 q 818 1431 857 1431 q 735 1422 774 1431 q 639 1394 696 1413 q 571 1374 596 1381 q 522 1368 546 1368 z "},"ä":{"ha":1039,"x_min":106,"x_max":926,"o":"m 818 76 q 843 4 818 28 q 750 -35 800 -35 q 678 -6 703 -35 q 653 79 653 24 q 663 163 653 110 l 649 169 q 523 19 599 72 q 358 -35 447 -35 q 226 6 283 -35 q 137 120 168 46 q 106 292 106 194 q 176 566 106 442 q 369 762 247 690 q 639 833 492 833 q 769 822 703 833 q 785 778 779 806 q 851 799 814 799 q 906 782 886 799 q 926 736 926 765 q 917 660 926 704 q 888 529 908 615 q 836 286 854 389 q 818 76 818 183 m 425 96 q 638 260 554 96 q 763 757 721 425 q 502 691 613 753 q 334 526 392 629 q 276 296 276 424 q 315 149 276 201 q 425 96 354 96 m 426 951 q 363 973 386 951 q 339 1031 339 994 q 372 1103 339 1072 q 453 1135 404 1135 q 519 1113 494 1135 q 544 1057 544 1092 q 511 982 544 1013 q 426 951 478 951 m 793 951 q 726 973 751 951 q 701 1031 701 994 q 735 1103 701 1072 q 818 1135 768 1135 q 883 1113 858 1135 q 907 1057 907 1092 q 874 982 907 1013 q 793 951 842 951 z "},"ạ":{"ha":1039,"x_min":106,"x_max":926,"o":"m 818 76 q 843 4 818 28 q 750 -35 800 -35 q 678 -6 703 -35 q 653 79 653 24 q 663 163 653 110 l 649 169 q 523 19 599 72 q 358 -35 447 -35 q 226 6 283 -35 q 137 120 168 46 q 106 292 106 194 q 176 566 106 442 q 369 762 247 690 q 639 833 492 833 q 769 822 703 833 q 785 778 779 806 q 851 799 814 799 q 906 782 886 799 q 926 736 926 765 q 917 660 926 704 q 888 529 908 615 q 836 286 854 389 q 818 76 818 183 m 425 96 q 638 260 554 96 q 763 757 721 425 q 502 691 613 753 q 334 526 392 629 q 276 296 276 424 q 315 149 276 201 q 425 96 354 96 m 400 -307 q 338 -287 361 -307 q 314 -233 314 -267 q 347 -154 314 -185 q 432 -124 379 -124 q 495 -144 471 -124 q 519 -199 519 -165 q 486 -277 519 -247 q 400 -307 453 -307 z "},"à":{"ha":1039,"x_min":106,"x_max":926,"o":"m 818 76 q 843 4 818 28 q 750 -35 800 -35 q 678 -6 703 -35 q 653 79 653 24 q 663 163 653 110 l 649 169 q 523 19 599 72 q 358 -35 447 -35 q 226 6 283 -35 q 137 120 168 46 q 106 292 106 194 q 176 566 106 442 q 369 762 247 690 q 639 833 492 833 q 769 822 703 833 q 785 778 779 806 q 851 799 814 799 q 906 782 886 799 q 926 736 926 765 q 917 660 926 704 q 888 529 908 615 q 836 286 854 389 q 818 76 818 183 m 425 96 q 638 260 554 96 q 763 757 721 425 q 502 691 613 753 q 334 526 392 629 q 276 296 276 424 q 315 149 276 201 q 425 96 354 96 m 747 932 q 651 961 722 932 q 517 1008 574 992 q 396 1024 461 1024 q 383 1099 383 1053 q 458 1183 383 1183 q 520 1168 492 1183 q 597 1117 549 1153 q 693 1053 647 1081 q 799 1003 739 1026 q 747 932 786 932 z "},"ả":{"ha":1039,"x_min":106,"x_max":926,"o":"m 818 76 q 843 4 818 28 q 750 -35 800 -35 q 678 -6 703 -35 q 653 79 653 24 q 663 163 653 110 l 649 169 q 523 19 599 72 q 358 -35 447 -35 q 226 6 283 -35 q 137 120 168 46 q 106 292 106 194 q 176 566 106 442 q 369 762 247 690 q 639 833 492 833 q 769 822 703 833 q 785 778 779 806 q 851 799 814 799 q 906 782 886 799 q 926 736 926 765 q 917 660 926 704 q 888 529 908 615 q 836 286 854 389 q 818 76 818 183 m 425 96 q 638 260 554 96 q 763 757 721 425 q 502 691 613 753 q 334 526 392 629 q 276 296 276 424 q 315 149 276 201 q 425 96 354 96 m 497 886 q 638 982 593 933 q 683 1083 683 1031 q 662 1148 683 1125 q 599 1171 640 1171 q 528 1153 561 1171 q 454 1096 496 1136 q 524 1223 467 1172 q 656 1274 582 1274 q 772 1235 729 1274 q 814 1132 814 1197 q 734 967 814 1035 q 501 868 654 900 l 497 886 z "},"ā":{"ha":1039,"x_min":106,"x_max":926,"o":"m 818 76 q 843 4 818 28 q 750 -35 800 -35 q 678 -6 703 -35 q 653 79 653 24 q 663 163 653 110 l 649 169 q 523 19 599 72 q 358 -35 447 -35 q 226 6 283 -35 q 137 120 168 46 q 106 292 106 194 q 176 566 106 442 q 369 762 247 690 q 639 833 492 833 q 769 822 703 833 q 785 778 779 806 q 851 799 814 799 q 906 782 886 799 q 926 736 926 765 q 917 660 926 704 q 888 529 908 615 q 836 286 854 389 q 818 76 818 183 m 425 96 q 638 260 554 96 q 763 757 721 425 q 502 691 613 753 q 334 526 392 629 q 276 296 276 424 q 315 149 276 201 q 425 96 354 96 m 446 976 q 386 1042 386 976 q 397 1095 386 1063 q 418 1149 407 1128 q 459 1137 433 1142 q 506 1132 485 1132 q 629 1138 546 1132 q 763 1143 715 1143 q 835 1127 811 1143 q 858 1078 858 1111 q 840 993 858 1039 q 803 1002 829 999 q 750 1006 776 1006 q 594 990 692 1006 q 446 976 492 976 z "},"ą":{"ha":1039,"x_min":106,"x_max":926,"o":"m 622 -228 q 649 -292 622 -269 q 724 -315 675 -315 q 785 -304 756 -315 q 851 -268 815 -293 q 781 -383 839 -336 q 650 -429 722 -429 q 534 -389 576 -429 q 492 -279 492 -349 q 546 -128 492 -193 q 703 -25 600 -64 q 653 79 653 1 q 663 163 653 110 l 649 169 q 523 19 599 72 q 358 -35 447 -35 q 226 6 283 -35 q 137 120 168 46 q 106 292 106 194 q 176 566 106 442 q 369 762 247 690 q 639 833 492 833 q 769 822 703 833 q 785 778 779 806 q 851 799 814 799 q 906 782 886 799 q 926 736 926 765 q 917 660 926 704 q 888 529 908 615 q 836 286 854 389 q 818 76 818 183 q 843 4 818 28 q 776 -32 808 -26 q 660 -127 697 -79 q 622 -228 622 -175 m 425 96 q 638 260 554 96 q 763 757 721 425 q 502 691 613 753 q 334 526 392 629 q 276 296 276 424 q 315 149 276 201 q 425 96 354 96 z "},"å":{"ha":1039,"x_min":106,"x_max":926,"o":"m 818 76 q 843 4 818 28 q 750 -35 800 -35 q 678 -6 703 -35 q 653 79 653 24 q 663 163 653 110 l 649 169 q 523 19 599 72 q 358 -35 447 -35 q 226 6 283 -35 q 137 120 168 46 q 106 292 106 194 q 176 566 106 442 q 369 762 247 690 q 639 833 492 833 q 769 822 703 833 q 785 778 779 806 q 851 799 814 799 q 906 782 886 799 q 926 736 926 765 q 917 660 926 704 q 888 529 908 615 q 836 286 854 389 q 818 76 818 183 m 425 96 q 638 260 554 96 q 763 757 721 425 q 502 691 613 753 q 334 526 392 629 q 276 296 276 424 q 315 149 276 201 q 425 96 354 96 m 601 882 q 458 931 511 882 q 404 1067 406 981 q 475 1239 406 1172 q 656 1306 544 1306 q 799 1256 746 1306 q 853 1121 853 1206 q 822 997 853 1051 q 733 913 790 943 q 601 882 675 882 m 611 965 q 694 1010 661 965 q 726 1122 726 1054 q 708 1199 726 1175 q 647 1224 689 1222 q 582 1214 621 1224 q 529 1072 529 1154 q 552 995 529 1025 q 611 965 575 965 z "},"ǻ":{"ha":1039,"x_min":106,"x_max":926,"o":"m 818 76 q 843 4 818 28 q 750 -35 800 -35 q 678 -6 703 -35 q 653 79 653 24 q 663 163 653 110 l 649 169 q 523 19 599 72 q 358 -35 447 -35 q 226 6 283 -35 q 137 120 168 46 q 106 292 106 194 q 176 566 106 442 q 369 762 247 690 q 639 833 492 833 q 769 822 703 833 q 785 778 779 806 q 851 799 814 799 q 906 782 886 799 q 926 736 926 765 q 917 660 926 704 q 888 529 908 615 q 836 286 854 389 q 818 76 818 183 m 425 96 q 638 260 554 96 q 763 757 721 425 q 502 691 613 753 q 334 526 392 629 q 276 296 276 424 q 315 149 276 201 q 425 96 354 96 m 601 882 q 458 931 511 882 q 404 1067 406 981 q 475 1239 406 1172 q 656 1306 544 1306 q 799 1256 746 1306 q 853 1121 853 1206 q 822 997 853 1051 q 733 913 790 943 q 601 882 675 882 m 611 965 q 694 1010 661 965 q 726 1122 726 1054 q 708 1199 726 1175 q 647 1224 689 1222 q 582 1214 621 1224 q 529 1072 529 1154 q 552 995 529 1025 q 611 965 575 965 m 546 1397 q 494 1468 507 1397 q 600 1519 554 1492 q 696 1582 646 1546 q 773 1633 744 1618 q 835 1649 801 1649 q 910 1564 910 1649 q 897 1489 910 1518 q 776 1473 832 1489 q 642 1426 719 1457 q 546 1397 571 1397 z "},"ã":{"ha":1039,"x_min":106,"x_max":926,"o":"m 818 76 q 843 4 818 28 q 750 -35 800 -35 q 678 -6 703 -35 q 653 79 653 24 q 663 163 653 110 l 649 169 q 523 19 599 72 q 358 -35 447 -35 q 226 6 283 -35 q 137 120 168 46 q 106 292 106 194 q 176 566 106 442 q 369 762 247 690 q 639 833 492 833 q 769 822 703 833 q 785 778 779 806 q 851 799 814 799 q 906 782 886 799 q 926 736 926 765 q 917 660 926 704 q 888 529 908 615 q 836 286 854 389 q 818 76 818 183 m 425 96 q 638 260 554 96 q 763 757 721 425 q 502 691 613 753 q 334 526 392 629 q 276 296 276 424 q 315 149 276 201 q 425 96 354 96 m 443 961 q 384 976 400 961 q 368 1028 368 992 q 396 1132 368 1069 q 483 1114 447 1114 q 570 1124 529 1114 q 664 1151 611 1133 q 729 1171 703 1164 q 779 1178 756 1178 q 838 1163 822 1178 q 854 1111 854 1147 q 826 1006 854 1064 q 739 1024 778 1024 q 656 1015 694 1024 q 560 988 617 1006 q 492 967 517 974 q 443 961 467 961 z "},"æ":{"ha":1429,"x_min":104,"x_max":1371,"o":"m 1371 635 q 1224 410 1371 492 q 807 322 1078 329 l 807 296 q 849 122 807 185 q 963 58 890 58 q 1110 115 1053 58 q 1172 267 1167 172 q 1285 183 1285 267 q 1240 77 1285 128 q 1119 -4 1196 26 q 949 -35 1042 -35 q 760 19 836 -35 q 654 169 685 72 l 644 169 q 520 19 596 72 q 357 -35 444 -35 q 224 6 282 -35 q 135 120 167 46 q 104 292 104 194 q 175 548 104 432 q 368 731 246 664 q 638 799 490 799 q 768 788 713 799 q 785 722 785 761 q 515 668 631 722 q 338 517 400 614 q 275 296 275 421 q 314 149 275 201 q 424 96 353 96 q 538 135 481 96 q 638 243 594 174 q 635 304 635 282 q 700 575 635 454 q 881 765 765 696 q 1138 833 996 833 q 1309 781 1247 833 q 1371 635 1371 728 m 1114 746 q 981 701 1043 746 q 876 577 919 656 q 815 400 832 499 q 1113 467 1007 404 q 1219 639 1219 529 q 1190 717 1219 688 q 1114 746 1161 746 z "},"ǽ":{"ha":1429,"x_min":104,"x_max":1371,"o":"m 1371 635 q 1224 410 1371 492 q 807 322 1078 329 l 807 296 q 849 122 807 185 q 963 58 890 58 q 1110 115 1053 58 q 1172 267 1167 172 q 1285 183 1285 267 q 1240 77 1285 128 q 1119 -4 1196 26 q 949 -35 1042 -35 q 760 19 836 -35 q 654 169 685 72 l 644 169 q 520 19 596 72 q 357 -35 444 -35 q 224 6 282 -35 q 135 120 167 46 q 104 292 104 194 q 175 548 104 432 q 368 731 246 664 q 638 799 490 799 q 768 788 713 799 q 785 722 785 761 q 515 668 631 722 q 338 517 400 614 q 275 296 275 421 q 314 149 275 201 q 424 96 353 96 q 538 135 481 96 q 638 243 594 174 q 635 304 635 282 q 700 575 635 454 q 881 765 765 696 q 1138 833 996 833 q 1309 781 1247 833 q 1371 635 1371 728 m 1114 746 q 981 701 1043 746 q 876 577 919 656 q 815 400 832 499 q 1113 467 1007 404 q 1219 639 1219 529 q 1190 717 1219 688 q 1114 746 1161 746 m 683 932 q 632 1003 644 932 q 738 1053 692 1026 q 833 1117 783 1081 q 910 1168 882 1153 q 972 1183 939 1183 q 1047 1099 1047 1183 q 1035 1024 1047 1053 q 913 1008 969 1024 q 779 961 857 992 q 683 932 708 932 z "},"b":{"ha":1028,"x_min":132,"x_max":925,"o":"m 672 833 q 805 795 747 833 q 894 687 863 757 q 925 524 925 617 q 842 240 925 368 q 617 39 760 113 q 303 -35 475 -35 q 176 2 221 -35 q 132 144 132 39 q 269 946 132 314 l 208 1015 q 287 1059 242 1043 q 368 1075 332 1075 q 425 1058 408 1075 q 442 999 442 1040 q 431 926 442 972 q 400 796 421 879 q 357 619 374 693 l 371 613 q 501 776 424 718 q 672 833 579 833 m 268 56 q 517 121 406 61 q 691 281 628 181 q 754 503 754 382 q 715 650 754 597 q 606 703 676 703 q 442 621 519 703 q 316 391 364 539 q 268 56 268 243 z "},"c":{"ha":861,"x_min":108,"x_max":799,"o":"m 435 -35 q 195 54 282 -35 q 108 301 108 143 q 175 573 108 451 q 357 764 242 694 q 610 833 472 833 q 748 805 697 833 q 799 726 799 776 q 766 656 799 685 q 685 628 733 628 q 524 728 574 628 q 348 562 417 681 q 279 293 279 443 q 320 121 279 183 q 433 58 361 58 q 578 122 521 58 q 640 281 635 185 q 753 196 753 281 q 710 81 753 133 q 594 -3 667 28 q 435 -35 521 -35 z "},"ć":{"ha":861,"x_min":108,"x_max":799,"o":"m 435 -35 q 195 54 282 -35 q 108 301 108 143 q 175 573 108 451 q 357 764 242 694 q 610 833 472 833 q 748 805 697 833 q 799 726 799 776 q 766 656 799 685 q 685 628 733 628 q 524 728 574 628 q 348 562 417 681 q 279 293 279 443 q 320 121 279 183 q 433 58 361 58 q 578 122 521 58 q 640 281 635 185 q 753 196 753 281 q 710 81 753 133 q 594 -3 667 28 q 435 -35 521 -35 m 431 932 q 379 1003 392 932 q 485 1053 439 1026 q 581 1117 531 1081 q 658 1168 629 1153 q 719 1183 686 1183 q 794 1099 794 1183 q 782 1024 794 1053 q 660 1008 717 1024 q 526 961 604 992 q 431 932 456 932 z "},"č":{"ha":861,"x_min":108,"x_max":799,"o":"m 435 -35 q 195 54 282 -35 q 108 301 108 143 q 175 573 108 451 q 357 764 242 694 q 610 833 472 833 q 748 805 697 833 q 799 726 799 776 q 766 656 799 685 q 685 628 733 628 q 524 728 574 628 q 348 562 417 681 q 279 293 279 443 q 320 121 279 183 q 433 58 361 58 q 578 122 521 58 q 640 281 635 185 q 753 196 753 281 q 710 81 753 133 q 594 -3 667 28 q 435 -35 521 -35 m 644 957 q 588 931 614 939 q 518 922 563 922 q 448 940 475 922 q 418 996 421 958 l 414 1117 q 372 1207 413 1176 q 468 1233 418 1233 q 527 1216 507 1233 q 547 1154 547 1199 q 531 992 547 1057 l 551 992 q 612 1088 588 1026 q 635 1208 636 1149 q 672 1226 643 1219 q 732 1233 700 1233 q 776 1222 761 1233 q 792 1193 792 1211 q 746 1074 792 1143 q 644 957 700 1004 z "},"ç":{"ha":861,"x_min":108,"x_max":799,"o":"m 435 -35 q 195 54 282 -35 q 108 301 108 143 q 175 573 108 451 q 357 764 242 694 q 610 833 472 833 q 748 805 697 833 q 799 726 799 776 q 766 656 799 685 q 685 628 733 628 q 524 728 574 628 q 348 562 417 681 q 279 293 279 443 q 320 121 279 183 q 433 58 361 58 q 578 122 521 58 q 640 281 635 185 q 753 196 753 281 q 710 81 753 133 q 594 -3 667 28 q 435 -35 521 -35 m 310 -418 q 185 -386 232 -418 q 139 -301 139 -354 q 190 -217 139 -251 q 315 -183 242 -183 q 269 -225 286 -199 q 251 -282 251 -251 q 321 -344 251 -344 q 399 -313 367 -344 q 431 -237 431 -282 q 315 -74 431 -126 q 497 -117 431 -74 q 563 -239 563 -161 q 529 -330 563 -289 q 438 -394 496 -371 q 310 -418 381 -418 z "},"ĉ":{"ha":861,"x_min":108,"x_max":799,"o":"m 435 -35 q 195 54 282 -35 q 108 301 108 143 q 175 573 108 451 q 357 764 242 694 q 610 833 472 833 q 748 805 697 833 q 799 726 799 776 q 766 656 799 685 q 685 628 733 628 q 524 728 574 628 q 348 562 417 681 q 279 293 279 443 q 320 121 279 183 q 433 58 361 58 q 578 122 521 58 q 640 281 635 185 q 753 196 753 281 q 710 81 753 133 q 594 -3 667 28 q 435 -35 521 -35 m 525 1199 q 581 1225 554 1217 q 653 1233 608 1233 q 722 1215 694 1233 q 750 1160 749 1197 l 756 1039 q 797 949 757 979 q 701 922 749 922 q 643 940 664 922 q 622 1001 622 957 q 639 1164 622 1107 l 618 1164 q 557 1068 581 1129 q 536 947 533 1007 q 498 929 526 936 q 436 922 469 922 q 392 933 408 922 q 376 963 376 944 q 423 1081 376 1011 q 525 1199 469 1150 z "},"ċ":{"ha":861,"x_min":108,"x_max":799,"o":"m 435 -35 q 195 54 282 -35 q 108 301 108 143 q 175 573 108 451 q 357 764 242 694 q 610 833 472 833 q 748 805 697 833 q 799 726 799 776 q 766 656 799 685 q 685 628 733 628 q 524 728 574 628 q 348 562 417 681 q 279 293 279 443 q 320 121 279 183 q 433 58 361 58 q 578 122 521 58 q 640 281 635 185 q 753 196 753 281 q 710 81 753 133 q 594 -3 667 28 q 435 -35 521 -35 m 574 957 q 510 977 533 957 q 486 1031 486 997 q 519 1110 486 1079 q 604 1140 553 1140 q 668 1120 644 1140 q 692 1065 692 1100 q 659 988 692 1018 q 574 957 626 957 z "},"d":{"ha":1038,"x_min":104,"x_max":958,"o":"m 818 89 q 826 40 818 64 q 847 4 833 17 q 743 -35 801 -35 q 656 75 656 -35 q 663 163 656 97 l 647 169 q 522 19 597 72 q 357 -35 446 -35 q 224 6 282 -35 q 135 120 167 46 q 104 292 104 194 q 175 548 104 432 q 368 731 246 664 q 638 799 490 799 q 760 789 701 799 l 788 947 l 726 1017 q 804 1060 760 1044 q 886 1076 849 1076 q 942 1059 925 1076 q 958 1000 958 1042 q 947 914 958 972 q 919 786 935 856 q 846 420 874 583 q 818 89 818 257 m 688 339 q 749 721 714 525 q 497 660 604 715 q 333 510 390 604 q 275 296 275 415 q 314 149 275 201 q 424 96 353 96 q 574 164 500 96 q 688 347 647 232 l 688 339 z "},"ð":{"ha":978,"x_min":113,"x_max":907,"o":"m 829 969 q 744 946 794 957 q 853 733 814 851 q 893 488 893 614 q 835 216 893 335 q 676 31 778 97 q 443 -35 574 -35 q 268 10 343 -35 q 153 138 193 56 q 113 329 113 219 q 173 590 113 475 q 340 769 233 704 q 583 833 447 833 q 643 831 625 833 q 488 988 579 932 q 292 1044 397 1044 q 322 1119 292 1089 q 399 1149 351 1149 q 649 1049 529 1149 q 751 1076 697 1057 q 851 1129 811 1100 q 901 1064 888 1101 q 907 1039 907 1047 q 889 1001 907 1018 q 829 969 871 985 m 476 58 q 619 103 557 58 q 715 231 681 149 q 749 421 749 313 q 682 757 749 606 q 472 697 561 751 q 333 547 382 643 q 285 321 285 450 q 335 128 285 197 q 476 58 386 58 z "},"ď":{"ha":1038,"x_min":104,"x_max":1265,"o":"m 818 89 q 826 40 818 64 q 847 4 833 17 q 743 -35 801 -35 q 656 75 656 -35 q 663 163 656 97 l 647 169 q 522 19 597 72 q 357 -35 446 -35 q 224 6 282 -35 q 135 120 167 46 q 104 292 104 194 q 175 548 104 432 q 368 731 246 664 q 638 799 490 799 q 760 789 701 799 l 788 947 l 726 1017 q 804 1060 760 1044 q 886 1076 849 1076 q 942 1059 925 1076 q 958 1000 958 1042 q 947 914 958 972 q 919 786 935 856 q 846 420 874 583 q 818 89 818 257 m 688 339 q 749 721 714 525 q 497 660 604 715 q 333 510 390 604 q 275 296 275 415 q 314 149 275 201 q 424 96 353 96 q 574 164 500 96 q 688 347 647 232 l 688 339 m 1029 1047 q 1070 1131 1032 1096 q 1158 1167 1108 1167 q 1236 1133 1207 1167 q 1265 1051 1265 1099 q 1197 855 1265 939 q 1008 731 1129 771 l 988 782 q 1069 860 1038 808 q 1100 957 1100 911 l 1029 1047 z "},"đ":{"ha":1038,"x_min":104,"x_max":1126,"o":"m 1101 932 q 1126 853 1126 896 q 1104 805 1126 821 q 1026 789 1082 789 q 921 799 985 789 q 846 426 874 592 q 818 89 818 260 q 826 40 818 64 q 847 4 833 17 q 743 -35 801 -35 q 656 75 656 -35 q 663 163 656 97 l 647 169 q 522 19 597 72 q 357 -35 446 -35 q 224 6 282 -35 q 135 120 167 46 q 104 292 104 194 q 175 548 104 432 q 368 731 246 664 q 638 799 490 799 q 760 789 701 799 l 788 947 l 726 1017 q 804 1060 760 1044 q 886 1076 849 1076 q 942 1059 925 1076 q 958 1000 958 1042 q 947 918 958 974 q 990 917 961 917 q 1101 932 1051 917 m 688 339 q 749 721 714 525 q 497 660 604 715 q 333 510 390 604 q 275 296 275 415 q 314 149 275 201 q 424 96 353 96 q 574 164 500 96 q 688 347 647 232 l 688 339 z "},"e":{"ha":903,"x_min":108,"x_max":844,"o":"m 844 635 q 698 410 844 492 q 281 322 551 329 l 281 296 q 322 122 281 185 q 436 58 364 58 q 583 115 526 58 q 646 267 640 172 q 758 183 758 267 q 714 77 758 128 q 592 -4 669 26 q 422 -35 515 -35 q 192 56 275 -35 q 108 304 108 146 q 174 575 108 454 q 354 765 239 696 q 611 833 469 833 q 783 781 721 833 q 844 635 844 728 m 588 746 q 455 701 517 746 q 349 577 393 656 q 289 400 306 499 q 587 467 481 404 q 693 639 693 529 q 664 717 693 688 q 588 746 635 746 z "},"é":{"ha":903,"x_min":108,"x_max":844,"o":"m 844 635 q 698 410 844 492 q 281 322 551 329 l 281 296 q 322 122 281 185 q 436 58 364 58 q 583 115 526 58 q 646 267 640 172 q 758 183 758 267 q 714 77 758 128 q 592 -4 669 26 q 422 -35 515 -35 q 192 56 275 -35 q 108 304 108 146 q 174 575 108 454 q 354 765 239 696 q 611 833 469 833 q 783 781 721 833 q 844 635 844 728 m 588 746 q 455 701 517 746 q 349 577 393 656 q 289 400 306 499 q 587 467 481 404 q 693 639 693 529 q 664 717 693 688 q 588 746 635 746 m 463 932 q 411 1003 424 932 q 517 1053 471 1026 q 613 1117 563 1081 q 690 1168 661 1153 q 751 1183 718 1183 q 826 1099 826 1183 q 814 1024 826 1053 q 692 1008 749 1024 q 558 961 636 992 q 463 932 488 932 z "},"ĕ":{"ha":903,"x_min":108,"x_max":881,"o":"m 844 635 q 698 410 844 492 q 281 322 551 329 l 281 296 q 322 122 281 185 q 436 58 364 58 q 583 115 526 58 q 646 267 640 172 q 758 183 758 267 q 714 77 758 128 q 592 -4 669 26 q 422 -35 515 -35 q 192 56 275 -35 q 108 304 108 146 q 174 575 108 454 q 354 765 239 696 q 611 833 469 833 q 783 781 721 833 q 844 635 844 728 m 588 746 q 455 701 517 746 q 349 577 393 656 q 289 400 306 499 q 587 467 481 404 q 693 639 693 529 q 664 717 693 688 q 588 746 635 746 m 622 1025 q 730 1076 688 1025 q 772 1210 772 1126 q 852 1183 824 1207 q 881 1114 881 1160 q 845 1023 881 1065 q 748 955 810 981 q 613 929 686 929 q 447 969 506 929 q 389 1072 389 1010 q 417 1148 389 1113 q 492 1196 446 1183 q 622 1025 481 1025 z "},"ě":{"ha":903,"x_min":108,"x_max":844,"o":"m 844 635 q 698 410 844 492 q 281 322 551 329 l 281 296 q 322 122 281 185 q 436 58 364 58 q 583 115 526 58 q 646 267 640 172 q 758 183 758 267 q 714 77 758 128 q 592 -4 669 26 q 422 -35 515 -35 q 192 56 275 -35 q 108 304 108 146 q 174 575 108 454 q 354 765 239 696 q 611 833 469 833 q 783 781 721 833 q 844 635 844 728 m 588 746 q 455 701 517 746 q 349 577 393 656 q 289 400 306 499 q 587 467 481 404 q 693 639 693 529 q 664 717 693 688 q 588 746 635 746 m 676 957 q 620 931 646 939 q 550 922 594 922 q 480 940 507 922 q 450 996 453 958 l 446 1117 q 404 1207 444 1176 q 500 1233 450 1233 q 559 1216 539 1233 q 579 1154 579 1199 q 563 992 579 1057 l 583 992 q 644 1088 619 1026 q 667 1208 668 1149 q 703 1226 675 1219 q 764 1233 732 1233 q 808 1222 793 1233 q 824 1193 824 1211 q 778 1074 824 1143 q 676 957 732 1004 z "},"ê":{"ha":903,"x_min":108,"x_max":844,"o":"m 844 635 q 698 410 844 492 q 281 322 551 329 l 281 296 q 322 122 281 185 q 436 58 364 58 q 583 115 526 58 q 646 267 640 172 q 758 183 758 267 q 714 77 758 128 q 592 -4 669 26 q 422 -35 515 -35 q 192 56 275 -35 q 108 304 108 146 q 174 575 108 454 q 354 765 239 696 q 611 833 469 833 q 783 781 721 833 q 844 635 844 728 m 588 746 q 455 701 517 746 q 349 577 393 656 q 289 400 306 499 q 587 467 481 404 q 693 639 693 529 q 664 717 693 688 q 588 746 635 746 m 557 1199 q 613 1225 586 1217 q 685 1233 640 1233 q 753 1215 726 1233 q 782 1160 781 1197 l 788 1039 q 829 949 789 979 q 733 922 781 922 q 675 940 696 922 q 654 1001 654 957 q 671 1164 654 1107 l 650 1164 q 589 1068 613 1129 q 568 947 565 1007 q 530 929 558 936 q 468 922 501 922 q 424 933 440 922 q 408 963 408 944 q 455 1081 408 1011 q 557 1199 501 1150 z "},"ế":{"ha":903,"x_min":108,"x_max":906,"o":"m 844 635 q 698 410 844 492 q 281 322 551 329 l 281 296 q 322 122 281 185 q 436 58 364 58 q 583 115 526 58 q 646 267 640 172 q 758 183 758 267 q 714 77 758 128 q 592 -4 669 26 q 422 -35 515 -35 q 192 56 275 -35 q 108 304 108 146 q 174 575 108 454 q 354 765 239 696 q 611 833 469 833 q 783 781 721 833 q 844 635 844 728 m 588 746 q 455 701 517 746 q 349 577 393 656 q 289 400 306 499 q 587 467 481 404 q 693 639 693 529 q 664 717 693 688 q 588 746 635 746 m 557 1199 q 613 1225 586 1217 q 685 1233 640 1233 q 753 1215 726 1233 q 782 1160 781 1197 l 788 1039 q 829 949 789 979 q 733 922 781 922 q 675 940 696 922 q 654 1001 654 957 q 671 1164 654 1107 l 650 1164 q 589 1068 613 1129 q 568 947 565 1007 q 530 929 558 936 q 468 922 501 922 q 424 933 440 922 q 408 963 408 944 q 455 1081 408 1011 q 557 1199 501 1150 m 542 1339 q 490 1410 503 1339 q 596 1460 550 1433 q 692 1524 642 1488 q 769 1575 740 1560 q 831 1590 797 1590 q 906 1506 906 1590 q 893 1431 906 1460 q 772 1415 828 1431 q 638 1368 715 1399 q 542 1339 567 1339 z "},"ệ":{"ha":903,"x_min":108,"x_max":844,"o":"m 844 635 q 698 410 844 492 q 281 322 551 329 l 281 296 q 322 122 281 185 q 436 58 364 58 q 583 115 526 58 q 646 267 640 172 q 758 183 758 267 q 714 77 758 128 q 592 -4 669 26 q 422 -35 515 -35 q 192 56 275 -35 q 108 304 108 146 q 174 575 108 454 q 354 765 239 696 q 611 833 469 833 q 783 781 721 833 q 844 635 844 728 m 588 746 q 455 701 517 746 q 349 577 393 656 q 289 400 306 499 q 587 467 481 404 q 693 639 693 529 q 664 717 693 688 q 588 746 635 746 m 382 -307 q 319 -287 343 -307 q 296 -233 296 -267 q 328 -154 296 -185 q 414 -124 361 -124 q 477 -144 453 -124 q 501 -199 501 -165 q 468 -277 501 -247 q 382 -307 435 -307 m 557 1199 q 613 1225 586 1217 q 685 1233 640 1233 q 753 1215 726 1233 q 782 1160 781 1197 l 788 1039 q 829 949 789 979 q 733 922 781 922 q 675 940 696 922 q 654 1001 654 957 q 671 1164 654 1107 l 650 1164 q 589 1068 613 1129 q 568 947 565 1007 q 530 929 558 936 q 468 922 501 922 q 424 933 440 922 q 408 963 408 944 q 455 1081 408 1011 q 557 1199 501 1150 z "},"ề":{"ha":903,"x_min":108,"x_max":860,"o":"m 844 635 q 698 410 844 492 q 281 322 551 329 l 281 296 q 322 122 281 185 q 436 58 364 58 q 583 115 526 58 q 646 267 640 172 q 758 183 758 267 q 714 77 758 128 q 592 -4 669 26 q 422 -35 515 -35 q 192 56 275 -35 q 108 304 108 146 q 174 575 108 454 q 354 765 239 696 q 611 833 469 833 q 783 781 721 833 q 844 635 844 728 m 588 746 q 455 701 517 746 q 349 577 393 656 q 289 400 306 499 q 587 467 481 404 q 693 639 693 529 q 664 717 693 688 q 588 746 635 746 m 557 1199 q 613 1225 586 1217 q 685 1233 640 1233 q 753 1215 726 1233 q 782 1160 781 1197 l 788 1039 q 829 949 789 979 q 733 922 781 922 q 675 940 696 922 q 654 1001 654 957 q 671 1164 654 1107 l 650 1164 q 589 1068 613 1129 q 568 947 565 1007 q 530 929 558 936 q 468 922 501 922 q 424 933 440 922 q 408 963 408 944 q 455 1081 408 1011 q 557 1199 501 1150 m 808 1339 q 713 1368 783 1339 q 578 1415 635 1399 q 457 1431 522 1431 q 444 1506 444 1460 q 519 1590 444 1590 q 581 1575 553 1590 q 658 1524 610 1560 q 754 1460 708 1488 q 860 1410 800 1433 q 808 1339 847 1339 z "},"ể":{"ha":903,"x_min":108,"x_max":875,"o":"m 844 635 q 698 410 844 492 q 281 322 551 329 l 281 296 q 322 122 281 185 q 436 58 364 58 q 583 115 526 58 q 646 267 640 172 q 758 183 758 267 q 714 77 758 128 q 592 -4 669 26 q 422 -35 515 -35 q 192 56 275 -35 q 108 304 108 146 q 174 575 108 454 q 354 765 239 696 q 611 833 469 833 q 783 781 721 833 q 844 635 844 728 m 588 746 q 455 701 517 746 q 349 577 393 656 q 289 400 306 499 q 587 467 481 404 q 693 639 693 529 q 664 717 693 688 q 588 746 635 746 m 557 1199 q 613 1225 586 1217 q 685 1233 640 1233 q 753 1215 726 1233 q 782 1160 781 1197 l 788 1039 q 829 949 789 979 q 733 922 781 922 q 675 940 696 922 q 654 1001 654 957 q 671 1164 654 1107 l 650 1164 q 589 1068 613 1129 q 568 947 565 1007 q 530 929 558 936 q 468 922 501 922 q 424 933 440 922 q 408 963 408 944 q 455 1081 408 1011 q 557 1199 501 1150 m 558 1293 q 699 1389 654 1340 q 744 1490 744 1438 q 723 1555 744 1532 q 660 1578 701 1578 q 590 1560 622 1578 q 515 1503 557 1543 q 585 1630 528 1579 q 717 1681 643 1681 q 833 1642 790 1681 q 875 1539 875 1604 q 795 1374 875 1442 q 563 1275 715 1307 l 558 1293 z "},"ễ":{"ha":903,"x_min":108,"x_max":915,"o":"m 844 635 q 698 410 844 492 q 281 322 551 329 l 281 296 q 322 122 281 185 q 436 58 364 58 q 583 115 526 58 q 646 267 640 172 q 758 183 758 267 q 714 77 758 128 q 592 -4 669 26 q 422 -35 515 -35 q 192 56 275 -35 q 108 304 108 146 q 174 575 108 454 q 354 765 239 696 q 611 833 469 833 q 783 781 721 833 q 844 635 844 728 m 588 746 q 455 701 517 746 q 349 577 393 656 q 289 400 306 499 q 587 467 481 404 q 693 639 693 529 q 664 717 693 688 q 588 746 635 746 m 557 1199 q 613 1225 586 1217 q 685 1233 640 1233 q 753 1215 726 1233 q 782 1160 781 1197 l 788 1039 q 829 949 789 979 q 733 922 781 922 q 675 940 696 922 q 654 1001 654 957 q 671 1164 654 1107 l 650 1164 q 589 1068 613 1129 q 568 947 565 1007 q 530 929 558 936 q 468 922 501 922 q 424 933 440 922 q 408 963 408 944 q 455 1081 408 1011 q 557 1199 501 1150 m 504 1368 q 445 1383 461 1368 q 429 1435 429 1399 q 457 1539 429 1476 q 544 1521 508 1521 q 631 1531 590 1521 q 725 1558 672 1540 q 790 1578 764 1571 q 840 1585 817 1585 q 899 1569 883 1585 q 915 1518 915 1554 q 888 1413 915 1471 q 800 1431 839 1431 q 717 1422 756 1431 q 621 1394 678 1413 q 553 1374 578 1381 q 504 1368 528 1368 z "},"ë":{"ha":903,"x_min":108,"x_max":889,"o":"m 844 635 q 698 410 844 492 q 281 322 551 329 l 281 296 q 322 122 281 185 q 436 58 364 58 q 583 115 526 58 q 646 267 640 172 q 758 183 758 267 q 714 77 758 128 q 592 -4 669 26 q 422 -35 515 -35 q 192 56 275 -35 q 108 304 108 146 q 174 575 108 454 q 354 765 239 696 q 611 833 469 833 q 783 781 721 833 q 844 635 844 728 m 588 746 q 455 701 517 746 q 349 577 393 656 q 289 400 306 499 q 587 467 481 404 q 693 639 693 529 q 664 717 693 688 q 588 746 635 746 m 408 951 q 344 973 368 951 q 321 1031 321 994 q 353 1103 321 1072 q 435 1135 386 1135 q 501 1113 476 1135 q 526 1057 526 1092 q 493 982 526 1013 q 408 951 460 951 m 775 951 q 708 973 733 951 q 683 1031 683 994 q 717 1103 683 1072 q 800 1135 750 1135 q 865 1113 840 1135 q 889 1057 889 1092 q 856 982 889 1013 q 775 951 824 951 z "},"ė":{"ha":903,"x_min":108,"x_max":844,"o":"m 844 635 q 698 410 844 492 q 281 322 551 329 l 281 296 q 322 122 281 185 q 436 58 364 58 q 583 115 526 58 q 646 267 640 172 q 758 183 758 267 q 714 77 758 128 q 592 -4 669 26 q 422 -35 515 -35 q 192 56 275 -35 q 108 304 108 146 q 174 575 108 454 q 354 765 239 696 q 611 833 469 833 q 783 781 721 833 q 844 635 844 728 m 588 746 q 455 701 517 746 q 349 577 393 656 q 289 400 306 499 q 587 467 481 404 q 693 639 693 529 q 664 717 693 688 q 588 746 635 746 m 606 957 q 542 977 565 957 q 518 1031 518 997 q 551 1110 518 1079 q 636 1140 585 1140 q 700 1120 676 1140 q 724 1065 724 1100 q 691 988 724 1018 q 606 957 658 957 z "},"ẹ":{"ha":903,"x_min":108,"x_max":844,"o":"m 844 635 q 698 410 844 492 q 281 322 551 329 l 281 296 q 322 122 281 185 q 436 58 364 58 q 583 115 526 58 q 646 267 640 172 q 758 183 758 267 q 714 77 758 128 q 592 -4 669 26 q 422 -35 515 -35 q 192 56 275 -35 q 108 304 108 146 q 174 575 108 454 q 354 765 239 696 q 611 833 469 833 q 783 781 721 833 q 844 635 844 728 m 588 746 q 455 701 517 746 q 349 577 393 656 q 289 400 306 499 q 587 467 481 404 q 693 639 693 529 q 664 717 693 688 q 588 746 635 746 m 382 -307 q 319 -287 343 -307 q 296 -233 296 -267 q 328 -154 296 -185 q 414 -124 361 -124 q 477 -144 453 -124 q 501 -199 501 -165 q 468 -277 501 -247 q 382 -307 435 -307 z "},"è":{"ha":903,"x_min":108,"x_max":844,"o":"m 844 635 q 698 410 844 492 q 281 322 551 329 l 281 296 q 322 122 281 185 q 436 58 364 58 q 583 115 526 58 q 646 267 640 172 q 758 183 758 267 q 714 77 758 128 q 592 -4 669 26 q 422 -35 515 -35 q 192 56 275 -35 q 108 304 108 146 q 174 575 108 454 q 354 765 239 696 q 611 833 469 833 q 783 781 721 833 q 844 635 844 728 m 588 746 q 455 701 517 746 q 349 577 393 656 q 289 400 306 499 q 587 467 481 404 q 693 639 693 529 q 664 717 693 688 q 588 746 635 746 m 729 932 q 633 961 704 932 q 499 1008 556 992 q 378 1024 443 1024 q 365 1099 365 1053 q 440 1183 365 1183 q 502 1168 474 1183 q 579 1117 531 1153 q 675 1053 629 1081 q 781 1003 721 1026 q 729 932 768 932 z "},"ẻ":{"ha":903,"x_min":108,"x_max":844,"o":"m 844 635 q 698 410 844 492 q 281 322 551 329 l 281 296 q 322 122 281 185 q 436 58 364 58 q 583 115 526 58 q 646 267 640 172 q 758 183 758 267 q 714 77 758 128 q 592 -4 669 26 q 422 -35 515 -35 q 192 56 275 -35 q 108 304 108 146 q 174 575 108 454 q 354 765 239 696 q 611 833 469 833 q 783 781 721 833 q 844 635 844 728 m 588 746 q 455 701 517 746 q 349 577 393 656 q 289 400 306 499 q 587 467 481 404 q 693 639 693 529 q 664 717 693 688 q 588 746 635 746 m 479 886 q 620 982 575 933 q 665 1083 665 1031 q 644 1148 665 1125 q 581 1171 622 1171 q 510 1153 543 1171 q 436 1096 478 1136 q 506 1223 449 1172 q 638 1274 564 1274 q 753 1235 711 1274 q 796 1132 796 1197 q 716 967 796 1035 q 483 868 636 900 l 479 886 z "},"ē":{"ha":903,"x_min":108,"x_max":844,"o":"m 844 635 q 698 410 844 492 q 281 322 551 329 l 281 296 q 322 122 281 185 q 436 58 364 58 q 583 115 526 58 q 646 267 640 172 q 758 183 758 267 q 714 77 758 128 q 592 -4 669 26 q 422 -35 515 -35 q 192 56 275 -35 q 108 304 108 146 q 174 575 108 454 q 354 765 239 696 q 611 833 469 833 q 783 781 721 833 q 844 635 844 728 m 588 746 q 455 701 517 746 q 349 577 393 656 q 289 400 306 499 q 587 467 481 404 q 693 639 693 529 q 664 717 693 688 q 588 746 635 746 m 428 976 q 368 1042 368 976 q 378 1095 368 1063 q 400 1149 389 1128 q 441 1137 415 1142 q 488 1132 467 1132 q 611 1138 528 1132 q 744 1143 697 1143 q 817 1127 793 1143 q 840 1078 840 1111 q 822 993 840 1039 q 785 1002 811 999 q 732 1006 758 1006 q 576 990 674 1006 q 428 976 474 976 z "},"ę":{"ha":903,"x_min":108,"x_max":844,"o":"m 844 635 q 698 410 844 492 q 281 322 551 329 l 281 296 q 322 122 281 185 q 436 58 364 58 q 583 115 526 58 q 646 267 640 172 q 758 183 758 267 q 716 80 758 129 q 603 0 674 31 q 435 -113 489 -57 q 382 -232 382 -169 q 408 -297 382 -274 q 483 -319 435 -319 q 545 -308 515 -319 q 611 -272 575 -297 q 540 -387 599 -340 q 410 -433 482 -433 q 294 -393 336 -433 q 251 -283 251 -353 q 302 -137 251 -200 q 450 -33 353 -74 q 422 -35 440 -35 q 192 56 275 -35 q 108 304 108 146 q 174 575 108 454 q 354 765 239 696 q 611 833 469 833 q 783 781 721 833 q 844 635 844 728 m 588 746 q 455 701 517 746 q 349 577 393 656 q 289 400 306 499 q 587 467 481 404 q 693 639 693 529 q 664 717 693 688 q 588 746 635 746 z "},"ẽ":{"ha":903,"x_min":108,"x_max":844,"o":"m 844 635 q 698 410 844 492 q 281 322 551 329 l 281 296 q 322 122 281 185 q 436 58 364 58 q 583 115 526 58 q 646 267 640 172 q 758 183 758 267 q 714 77 758 128 q 592 -4 669 26 q 422 -35 515 -35 q 192 56 275 -35 q 108 304 108 146 q 174 575 108 454 q 354 765 239 696 q 611 833 469 833 q 783 781 721 833 q 844 635 844 728 m 588 746 q 455 701 517 746 q 349 577 393 656 q 289 400 306 499 q 587 467 481 404 q 693 639 693 529 q 664 717 693 688 q 588 746 635 746 m 425 961 q 366 976 382 961 q 350 1028 350 992 q 378 1132 350 1069 q 465 1114 429 1114 q 552 1124 511 1114 q 646 1151 593 1133 q 711 1171 685 1164 q 761 1178 738 1178 q 820 1163 804 1178 q 836 1111 836 1147 q 808 1006 836 1064 q 721 1024 760 1024 q 638 1015 676 1024 q 542 988 599 1006 q 474 967 499 974 q 425 961 449 961 z "},"f":{"ha":601,"x_min":133,"x_max":599,"o":"m 490 888 q 381 926 425 888 l 367 917 l 425 651 q 560 683 503 665 q 569 638 569 661 q 531 570 569 594 q 433 543 493 546 q 344 135 379 340 q 310 -167 310 -69 q 340 -240 310 -219 q 236 -278 281 -278 q 169 -249 193 -278 q 144 -169 144 -221 q 173 50 144 -104 q 268 528 201 204 q 143 499 197 517 q 133 544 133 521 q 176 615 133 592 q 285 639 218 638 q 274 835 274 758 q 328 1031 274 969 q 471 1093 382 1093 q 563 1063 526 1093 q 599 988 599 1033 q 568 915 599 943 q 490 888 538 888 z "},"g":{"ha":933,"x_min":-4,"x_max":857,"o":"m 799 803 q 857 750 857 803 q 793 209 857 451 q 587 -180 729 -33 q 219 -326 444 -326 q 58 -292 119 -326 q -4 -206 -4 -258 q 14 -148 -4 -178 q 61 -97 32 -118 q 140 -180 93 -153 q 253 -207 186 -207 q 398 -167 322 -207 q 543 -35 474 -128 q 656 204 613 57 l 626 204 q 494 58 578 111 q 322 6 411 6 q 187 45 246 6 q 95 158 128 85 q 63 326 63 231 q 126 585 63 469 q 308 767 189 700 q 586 833 426 833 q 717 822 658 833 q 732 775 731 800 q 767 797 753 792 q 799 803 782 803 m 711 585 l 713 654 q 710 757 713 685 l 708 757 l 711 585 m 389 122 q 529 180 456 122 q 656 380 603 238 q 708 757 708 522 q 456 698 564 753 q 291 549 349 643 q 233 336 233 456 q 274 178 233 235 q 389 122 315 122 z "},"ğ":{"ha":933,"x_min":-4,"x_max":871,"o":"m 799 803 q 857 750 857 803 q 793 209 857 451 q 587 -180 729 -33 q 219 -326 444 -326 q 58 -292 119 -326 q -4 -206 -4 -258 q 14 -148 -4 -178 q 61 -97 32 -118 q 140 -180 93 -153 q 253 -207 186 -207 q 398 -167 322 -207 q 543 -35 474 -128 q 656 204 613 57 l 626 204 q 494 58 578 111 q 322 6 411 6 q 187 45 246 6 q 95 158 128 85 q 63 326 63 231 q 126 585 63 469 q 308 767 189 700 q 586 833 426 833 q 717 822 658 833 q 732 775 731 800 q 767 797 753 792 q 799 803 782 803 m 711 585 l 713 654 q 710 757 713 685 l 708 757 l 711 585 m 389 122 q 529 180 456 122 q 656 380 603 238 q 708 757 708 522 q 456 698 564 753 q 291 549 349 643 q 233 336 233 456 q 274 178 233 235 q 389 122 315 122 m 613 1025 q 720 1076 678 1025 q 763 1210 763 1126 q 842 1183 814 1207 q 871 1114 871 1160 q 835 1023 871 1065 q 738 955 800 981 q 603 929 676 929 q 438 969 496 929 q 379 1072 379 1010 q 408 1148 379 1113 q 482 1196 436 1183 q 613 1025 471 1025 z "},"ĝ":{"ha":933,"x_min":-4,"x_max":857,"o":"m 799 803 q 857 750 857 803 q 793 209 857 451 q 587 -180 729 -33 q 219 -326 444 -326 q 58 -292 119 -326 q -4 -206 -4 -258 q 14 -148 -4 -178 q 61 -97 32 -118 q 140 -180 93 -153 q 253 -207 186 -207 q 398 -167 322 -207 q 543 -35 474 -128 q 656 204 613 57 l 626 204 q 494 58 578 111 q 322 6 411 6 q 187 45 246 6 q 95 158 128 85 q 63 326 63 231 q 126 585 63 469 q 308 767 189 700 q 586 833 426 833 q 717 822 658 833 q 732 775 731 800 q 767 797 753 792 q 799 803 782 803 m 711 585 l 713 654 q 710 757 713 685 l 708 757 l 711 585 m 389 122 q 529 180 456 122 q 656 380 603 238 q 708 757 708 522 q 456 698 564 753 q 291 549 349 643 q 233 336 233 456 q 274 178 233 235 q 389 122 315 122 m 547 1199 q 603 1225 576 1217 q 675 1233 631 1233 q 744 1215 717 1233 q 772 1160 771 1197 l 778 1039 q 819 949 779 979 q 724 922 771 922 q 665 940 686 922 q 644 1001 644 957 q 661 1164 644 1107 l 640 1164 q 579 1068 603 1129 q 558 947 556 1007 q 520 929 549 936 q 458 922 492 922 q 415 933 431 922 q 399 963 399 944 q 445 1081 399 1011 q 547 1199 492 1150 z "},"ģ":{"ha":933,"x_min":-4,"x_max":857,"o":"m 799 803 q 857 750 857 803 q 793 209 857 451 q 587 -180 729 -33 q 219 -326 444 -326 q 58 -292 119 -326 q -4 -206 -4 -258 q 14 -148 -4 -178 q 61 -97 32 -118 q 140 -180 93 -153 q 253 -207 186 -207 q 398 -167 322 -207 q 543 -35 474 -128 q 656 204 613 57 l 626 204 q 494 58 578 111 q 322 6 411 6 q 187 45 246 6 q 95 158 128 85 q 63 326 63 231 q 126 585 63 469 q 308 767 189 700 q 586 833 426 833 q 717 822 658 833 q 732 775 731 800 q 767 797 753 792 q 799 803 782 803 m 711 585 l 713 654 q 710 757 713 685 l 708 757 l 711 585 m 389 122 q 529 180 456 122 q 656 380 603 238 q 708 757 708 522 q 456 698 564 753 q 291 549 349 643 q 233 336 233 456 q 274 178 233 235 q 389 122 315 122 m 744 1074 q 692 987 736 1024 q 596 950 647 950 q 523 978 549 950 q 497 1050 497 1007 q 578 1238 497 1154 q 792 1358 660 1321 l 804 1313 q 721 1247 756 1290 q 683 1168 686 1204 l 744 1074 z "},"ġ":{"ha":933,"x_min":-4,"x_max":857,"o":"m 799 803 q 857 750 857 803 q 793 209 857 451 q 587 -180 729 -33 q 219 -326 444 -326 q 58 -292 119 -326 q -4 -206 -4 -258 q 14 -148 -4 -178 q 61 -97 32 -118 q 140 -180 93 -153 q 253 -207 186 -207 q 398 -167 322 -207 q 543 -35 474 -128 q 656 204 613 57 l 626 204 q 494 58 578 111 q 322 6 411 6 q 187 45 246 6 q 95 158 128 85 q 63 326 63 231 q 126 585 63 469 q 308 767 189 700 q 586 833 426 833 q 717 822 658 833 q 732 775 731 800 q 767 797 753 792 q 799 803 782 803 m 711 585 l 713 654 q 710 757 713 685 l 708 757 l 711 585 m 389 122 q 529 180 456 122 q 656 380 603 238 q 708 757 708 522 q 456 698 564 753 q 291 549 349 643 q 233 336 233 456 q 274 178 233 235 q 389 122 315 122 m 596 957 q 532 977 556 957 q 508 1031 508 997 q 542 1110 508 1079 q 626 1140 575 1140 q 690 1120 667 1140 q 714 1065 714 1100 q 681 988 714 1018 q 596 957 649 957 z "},"h":{"ha":1024,"x_min":114,"x_max":921,"o":"m 210 -35 q 114 64 114 -35 q 138 247 114 113 q 217 668 161 381 q 271 947 271 947 l 210 1017 q 287 1060 242 1044 q 369 1076 332 1076 q 425 1059 408 1076 q 442 1000 442 1042 q 433 931 442 974 q 406 811 425 889 q 351 576 368 660 l 365 569 q 542 770 442 707 q 743 833 642 833 q 876 788 832 833 q 921 649 921 743 q 909 533 921 593 q 875 383 897 474 q 836 210 849 278 q 824 76 824 143 q 842 4 824 24 q 753 -35 799 -35 q 682 -10 704 -35 q 660 64 660 15 q 672 183 660 117 q 706 354 683 249 q 737 501 726 442 q 747 603 747 560 q 663 715 747 715 q 488 632 578 715 q 339 402 399 549 q 279 76 279 256 q 296 4 279 25 q 210 -35 256 -35 z "},"ħ":{"ha":1024,"x_min":81,"x_max":922,"o":"m 922 649 q 910 531 922 593 q 875 383 899 469 q 836 210 849 278 q 824 76 824 143 q 842 4 824 26 q 754 -35 801 -35 q 683 -10 706 -35 q 660 64 660 15 q 672 186 660 117 q 707 354 685 256 q 739 510 729 458 q 749 603 749 561 q 728 687 749 658 q 663 715 708 715 q 490 632 579 715 q 340 402 400 549 q 281 76 281 256 q 297 4 281 25 q 210 -35 257 -35 q 138 -10 161 -35 q 115 64 115 15 q 140 249 115 113 q 214 647 164 385 l 242 789 l 222 789 q 110 802 139 789 q 81 851 81 815 q 103 932 81 893 q 257 917 168 917 l 265 917 l 271 947 l 263 1058 q 369 1076 317 1076 q 426 1059 410 1076 q 443 1000 443 1042 q 436 938 443 979 q 556 969 494 951 q 578 907 578 938 q 542 835 578 863 q 403 797 506 808 q 351 576 385 728 l 365 569 q 542 770 442 707 q 743 833 643 833 q 878 788 833 833 q 922 649 922 743 z "},"ĥ":{"ha":1024,"x_min":114,"x_max":921,"o":"m 210 -35 q 114 64 114 -35 q 138 247 114 113 q 217 668 161 381 q 271 947 271 947 l 210 1017 q 287 1060 242 1044 q 369 1076 332 1076 q 425 1059 408 1076 q 442 1000 442 1042 q 433 931 442 974 q 406 811 425 889 q 351 576 368 660 l 365 569 q 542 770 442 707 q 743 833 642 833 q 876 788 832 833 q 921 649 921 743 q 909 533 921 593 q 875 383 897 474 q 836 210 849 278 q 824 76 824 143 q 842 4 824 24 q 753 -35 799 -35 q 682 -10 704 -35 q 660 64 660 15 q 672 183 660 117 q 706 354 683 249 q 737 501 726 442 q 747 603 747 560 q 663 715 747 715 q 488 632 578 715 q 339 402 399 549 q 279 76 279 256 q 296 4 279 25 q 210 -35 256 -35 m 349 1407 q 405 1433 378 1425 q 476 1442 432 1442 q 545 1424 518 1442 q 574 1368 572 1406 l 579 1247 q 621 1157 581 1188 q 525 1131 572 1131 q 467 1148 488 1131 q 446 1210 446 1165 q 463 1372 446 1315 l 442 1372 q 381 1276 404 1338 q 360 1156 357 1215 q 322 1138 350 1144 q 260 1131 293 1131 q 216 1142 232 1131 q 200 1171 200 1153 q 247 1289 200 1219 q 349 1407 293 1358 z "}}}
